solid OpenSCAD_Model
  facet normal 0.994521 -0.104542 0
    outer loop
      vertex 7.75629 -6.21582 1.50015
      vertex 7.8 -5.8 -2.00005
      vertex 7.8 -5.8 1.50015
    endloop
  endfacet
  facet normal 0.994521 -0.104542 0
    outer loop
      vertex 7.8 -5.8 -2.00005
      vertex 7.75629 -6.21582 1.50015
      vertex 7.75629 -6.21582 -2.00005
    endloop
  endfacet
  facet normal -0.95106 -0.309008 0
    outer loop
      vertex -7.62709 -6.61347 -2.00005
      vertex -7.75629 -6.21582 1.50015
      vertex -7.75629 -6.21582 -2.00005
    endloop
  endfacet
  facet normal -0.95106 -0.309008 0
    outer loop
      vertex -7.75629 -6.21582 1.50015
      vertex -7.62709 -6.61347 -2.00005
      vertex -7.62709 -6.61347 1.50015
    endloop
  endfacet
  facet normal -0.994521 -0.104542 0
    outer loop
      vertex -7.75629 -6.21582 -2.00005
      vertex -7.8 -5.8 1.50015
      vertex -7.8 -5.8 -2.00005
    endloop
  endfacet
  facet normal -0.994521 -0.104542 0
    outer loop
      vertex -7.8 -5.8 1.50015
      vertex -7.75629 -6.21582 -2.00005
      vertex -7.75629 -6.21582 1.50015
    endloop
  endfacet
  facet normal 0.95106 0.309008 0
    outer loop
      vertex 7.75629 6.21582 1.50015
      vertex 7.62709 6.61347 -2.00005
      vertex 7.62709 6.61347 1.50015
    endloop
  endfacet
  facet normal 0.95106 0.309008 0
    outer loop
      vertex 7.62709 6.61347 -2.00005
      vertex 7.75629 6.21582 1.50015
      vertex 7.75629 6.21582 -2.00005
    endloop
  endfacet
  facet normal 0.743149 0.669126 0
    outer loop
      vertex 7.41803 6.97557 1.50015
      vertex 7.13826 7.28629 -2.00005
      vertex 7.13826 7.28629 1.50015
    endloop
  endfacet
  facet normal 0.743149 0.669126 0
    outer loop
      vertex 7.13826 7.28629 -2.00005
      vertex 7.41803 6.97557 1.50015
      vertex 7.41803 6.97557 -2.00005
    endloop
  endfacet
  facet normal -0.743149 0.669126 0
    outer loop
      vertex -7.41803 6.97557 -2.00005
      vertex -7.13826 7.28629 1.50015
      vertex -7.13826 7.28629 -2.00005
    endloop
  endfacet
  facet normal -0.743149 0.669126 0
    outer loop
      vertex -7.13826 7.28629 1.50015
      vertex -7.41803 6.97557 -2.00005
      vertex -7.41803 6.97557 1.50015
    endloop
  endfacet
  facet normal 0.95106 -0.309008 0
    outer loop
      vertex 7.62709 -6.61347 1.50015
      vertex 7.75629 -6.21582 -2.00005
      vertex 7.75629 -6.21582 1.50015
    endloop
  endfacet
  facet normal 0.95106 -0.309008 0
    outer loop
      vertex 7.75629 -6.21582 -2.00005
      vertex 7.62709 -6.61347 1.50015
      vertex 7.62709 -6.61347 -2.00005
    endloop
  endfacet
  facet normal -0.406729 0.913549 0
    outer loop
      vertex -6.41803 7.70211 -2.00005
      vertex -6.8 7.53205 1.50015
      vertex -6.41803 7.70211 1.50015
    endloop
  endfacet
  facet normal -0.406729 0.913549 0
    outer loop
      vertex -6.8 7.53205 1.50015
      vertex -6.41803 7.70211 -2.00005
      vertex -6.8 7.53205 -2.00005
    endloop
  endfacet
  facet normal 1 -0 0
    outer loop
      vertex 7.8 -5.8 1.50015
      vertex 7.8 5.8 -2.00005
      vertex 7.8 5.8 1.50015
    endloop
  endfacet
  facet normal 1 0 0
    outer loop
      vertex 7.8 5.8 -2.00005
      vertex 7.8 -5.8 1.50015
      vertex 7.8 -5.8 -2.00005
    endloop
  endfacet
  facet normal 0.994521 0.104542 0
    outer loop
      vertex 7.8 5.8 1.50015
      vertex 7.75629 6.21582 -2.00005
      vertex 7.75629 6.21582 1.50015
    endloop
  endfacet
  facet normal 0.994521 0.104542 0
    outer loop
      vertex 7.75629 6.21582 -2.00005
      vertex 7.8 5.8 1.50015
      vertex 7.8 5.8 -2.00005
    endloop
  endfacet
  facet normal -1 0 0
    outer loop
      vertex -7.8 -5.8 -2.00005
      vertex -7.8 5.8 1.50015
      vertex -7.8 5.8 -2.00005
    endloop
  endfacet
  facet normal -1 -0 0
    outer loop
      vertex -7.8 5.8 1.50015
      vertex -7.8 -5.8 -2.00005
      vertex -7.8 -5.8 1.50015
    endloop
  endfacet
  facet normal -0.95106 0.309008 0
    outer loop
      vertex -7.75629 6.21582 -2.00005
      vertex -7.62709 6.61347 1.50015
      vertex -7.62709 6.61347 -2.00005
    endloop
  endfacet
  facet normal -0.95106 0.309008 0
    outer loop
      vertex -7.62709 6.61347 1.50015
      vertex -7.75629 6.21582 -2.00005
      vertex -7.75629 6.21582 1.50015
    endloop
  endfacet
  facet normal 0 1 -0
    outer loop
      vertex 6.00906 7.78904 -2.00005
      vertex -6.00906 7.78904 1.50015
      vertex 6.00906 7.78904 1.50015
    endloop
  endfacet
  facet normal 0 1 0
    outer loop
      vertex -6.00906 7.78904 1.50015
      vertex 6.00906 7.78904 -2.00005
      vertex -6.00906 7.78904 -2.00005
    endloop
  endfacet
  facet normal 0.866024 -0.500003 0
    outer loop
      vertex 7.41803 -6.97557 1.50015
      vertex 7.62709 -6.61347 -2.00005
      vertex 7.62709 -6.61347 1.50015
    endloop
  endfacet
  facet normal 0.866024 -0.500003 0
    outer loop
      vertex 7.62709 -6.61347 -2.00005
      vertex 7.41803 -6.97557 1.50015
      vertex 7.41803 -6.97557 -2.00005
    endloop
  endfacet
  facet normal 0.587785 -0.809017 0
    outer loop
      vertex 6.8 -7.53205 -2.00005
      vertex 7.13826 -7.28629 1.50015
      vertex 6.8 -7.53205 1.50015
    endloop
  endfacet
  facet normal 0.587785 -0.809017 0
    outer loop
      vertex 7.13826 -7.28629 1.50015
      vertex 6.8 -7.53205 -2.00005
      vertex 7.13826 -7.28629 -2.00005
    endloop
  endfacet
  facet normal 0.743149 -0.669126 0
    outer loop
      vertex 7.13826 -7.28629 1.50015
      vertex 7.41803 -6.97557 -2.00005
      vertex 7.41803 -6.97557 1.50015
    endloop
  endfacet
  facet normal 0.743149 -0.669126 0
    outer loop
      vertex 7.41803 -6.97557 -2.00005
      vertex 7.13826 -7.28629 1.50015
      vertex 7.13826 -7.28629 -2.00005
    endloop
  endfacet
  facet normal 0.406729 -0.913549 0
    outer loop
      vertex 6.41803 -7.70211 -2.00005
      vertex 6.8 -7.53205 1.50015
      vertex 6.41803 -7.70211 1.50015
    endloop
  endfacet
  facet normal 0.406729 -0.913549 0
    outer loop
      vertex 6.8 -7.53205 1.50015
      vertex 6.41803 -7.70211 -2.00005
      vertex 6.8 -7.53205 -2.00005
    endloop
  endfacet
  facet normal -0.207913 -0.978147 0
    outer loop
      vertex -6.41803 -7.70211 -2.00005
      vertex -6.00906 -7.78904 1.50015
      vertex -6.41803 -7.70211 1.50015
    endloop
  endfacet
  facet normal -0.207913 -0.978147 -0
    outer loop
      vertex -6.00906 -7.78904 1.50015
      vertex -6.41803 -7.70211 -2.00005
      vertex -6.00906 -7.78904 -2.00005
    endloop
  endfacet
  facet normal 0 -1 0
    outer loop
      vertex -6.00906 -7.78904 -2.00005
      vertex 6.00906 -7.78904 1.50015
      vertex -6.00906 -7.78904 1.50015
    endloop
  endfacet
  facet normal 0 -1 -0
    outer loop
      vertex 6.00906 -7.78904 1.50015
      vertex -6.00906 -7.78904 -2.00005
      vertex 6.00906 -7.78904 -2.00005
    endloop
  endfacet
  facet normal -0.866024 -0.500003 0
    outer loop
      vertex -7.41803 -6.97557 -2.00005
      vertex -7.62709 -6.61347 1.50015
      vertex -7.62709 -6.61347 -2.00005
    endloop
  endfacet
  facet normal -0.866024 -0.500003 0
    outer loop
      vertex -7.62709 -6.61347 1.50015
      vertex -7.41803 -6.97557 -2.00005
      vertex -7.41803 -6.97557 1.50015
    endloop
  endfacet
  facet normal 0.587785 0.809017 -0
    outer loop
      vertex 7.13826 7.28629 -2.00005
      vertex 6.8 7.53205 1.50015
      vertex 7.13826 7.28629 1.50015
    endloop
  endfacet
  facet normal 0.587785 0.809017 0
    outer loop
      vertex 6.8 7.53205 1.50015
      vertex 7.13826 7.28629 -2.00005
      vertex 6.8 7.53205 -2.00005
    endloop
  endfacet
  facet normal 0.406729 0.913549 -0
    outer loop
      vertex 6.8 7.53205 -2.00005
      vertex 6.41803 7.70211 1.50015
      vertex 6.8 7.53205 1.50015
    endloop
  endfacet
  facet normal 0.406729 0.913549 0
    outer loop
      vertex 6.41803 7.70211 1.50015
      vertex 6.8 7.53205 -2.00005
      vertex 6.41803 7.70211 -2.00005
    endloop
  endfacet
  facet normal -0.866024 0.500003 0
    outer loop
      vertex -7.62709 6.61347 -2.00005
      vertex -7.41803 6.97557 1.50015
      vertex -7.41803 6.97557 -2.00005
    endloop
  endfacet
  facet normal -0.866024 0.500003 0
    outer loop
      vertex -7.41803 6.97557 1.50015
      vertex -7.62709 6.61347 -2.00005
      vertex -7.62709 6.61347 1.50015
    endloop
  endfacet
  facet normal 0.207913 -0.978147 0
    outer loop
      vertex 6.00906 -7.78904 -2.00005
      vertex 6.41803 -7.70211 1.50015
      vertex 6.00906 -7.78904 1.50015
    endloop
  endfacet
  facet normal 0.207913 -0.978147 0
    outer loop
      vertex 6.41803 -7.70211 1.50015
      vertex 6.00906 -7.78904 -2.00005
      vertex 6.41803 -7.70211 -2.00005
    endloop
  endfacet
  facet normal 0.866024 0.500003 0
    outer loop
      vertex 7.62709 6.61347 1.50015
      vertex 7.41803 6.97557 -2.00005
      vertex 7.41803 6.97557 1.50015
    endloop
  endfacet
  facet normal 0.866024 0.500003 0
    outer loop
      vertex 7.41803 6.97557 -2.00005
      vertex 7.62709 6.61347 1.50015
      vertex 7.62709 6.61347 -2.00005
    endloop
  endfacet
  facet normal -0.587785 -0.809017 0
    outer loop
      vertex -7.13826 -7.28629 -2.00005
      vertex -6.8 -7.53205 1.50015
      vertex -7.13826 -7.28629 1.50015
    endloop
  endfacet
  facet normal -0.587785 -0.809017 -0
    outer loop
      vertex -6.8 -7.53205 1.50015
      vertex -7.13826 -7.28629 -2.00005
      vertex -6.8 -7.53205 -2.00005
    endloop
  endfacet
  facet normal 0.207913 0.978147 -0
    outer loop
      vertex 6.41803 7.70211 -2.00005
      vertex 6.00906 7.78904 1.50015
      vertex 6.41803 7.70211 1.50015
    endloop
  endfacet
  facet normal 0.207913 0.978147 0
    outer loop
      vertex 6.00906 7.78904 1.50015
      vertex 6.41803 7.70211 -2.00005
      vertex 6.00906 7.78904 -2.00005
    endloop
  endfacet
  facet normal -0.994521 0.104542 0
    outer loop
      vertex -7.8 5.8 -2.00005
      vertex -7.75629 6.21582 1.50015
      vertex -7.75629 6.21582 -2.00005
    endloop
  endfacet
  facet normal -0.994521 0.104542 0
    outer loop
      vertex -7.75629 6.21582 1.50015
      vertex -7.8 5.8 -2.00005
      vertex -7.8 5.8 1.50015
    endloop
  endfacet
  facet normal -0.587785 0.809017 0
    outer loop
      vertex -6.8 7.53205 -2.00005
      vertex -7.13826 7.28629 1.50015
      vertex -6.8 7.53205 1.50015
    endloop
  endfacet
  facet normal -0.587785 0.809017 0
    outer loop
      vertex -7.13826 7.28629 1.50015
      vertex -6.8 7.53205 -2.00005
      vertex -7.13826 7.28629 -2.00005
    endloop
  endfacet
  facet normal -0.207913 0.978147 0
    outer loop
      vertex -6.00906 7.78904 -2.00005
      vertex -6.41803 7.70211 1.50015
      vertex -6.00906 7.78904 1.50015
    endloop
  endfacet
  facet normal -0.207913 0.978147 0
    outer loop
      vertex -6.41803 7.70211 1.50015
      vertex -6.00906 7.78904 -2.00005
      vertex -6.41803 7.70211 -2.00005
    endloop
  endfacet
  facet normal -0.406729 -0.913549 0
    outer loop
      vertex -6.8 -7.53205 -2.00005
      vertex -6.41803 -7.70211 1.50015
      vertex -6.8 -7.53205 1.50015
    endloop
  endfacet
  facet normal -0.406729 -0.913549 -0
    outer loop
      vertex -6.41803 -7.70211 1.50015
      vertex -6.8 -7.53205 -2.00005
      vertex -6.41803 -7.70211 -2.00005
    endloop
  endfacet
  facet normal 0 0 -1
    outer loop
      vertex 7.8 -5.8 -2.00005
      vertex 6.75629 -5.21582 -2.00005
      vertex 6.8 -4.8 -2.00005
    endloop
  endfacet
  facet normal 0 0 -1
    outer loop
      vertex 7.13826 -7.28629 -2.00005
      vertex 6.62709 -5.61347 -2.00005
      vertex 6.75629 -5.21582 -2.00005
    endloop
  endfacet
  facet normal 0 0 -1
    outer loop
      vertex 5.8 -6.53205 -2.00005
      vertex 6.8 -7.53205 -2.00005
      vertex 6.41803 -7.70211 -2.00005
    endloop
  endfacet
  facet normal 0 0 -1
    outer loop
      vertex 7.13826 -7.28629 -2.00005
      vertex 6.41803 -5.97557 -2.00005
      vertex 6.62709 -5.61347 -2.00005
    endloop
  endfacet
  facet normal 0 0 -1
    outer loop
      vertex 7.13826 -7.28629 -2.00005
      vertex 6.13826 -6.28629 -2.00005
      vertex 6.41803 -5.97557 -2.00005
    endloop
  endfacet
  facet normal 0 0 -1
    outer loop
      vertex 5.8 -6.53205 -2.00005
      vertex 6.41803 -7.70211 -2.00005
      vertex 6.00906 -7.78904 -2.00005
    endloop
  endfacet
  facet normal 0 0 -1
    outer loop
      vertex 6.8 -7.53205 -2.00005
      vertex 5.8 -6.53205 -2.00005
      vertex 6.13826 -6.28629 -2.00005
    endloop
  endfacet
  facet normal 0 0 -1
    outer loop
      vertex 6.00906 -7.78904 -2.00005
      vertex 5.41803 -6.70211 -2.00005
      vertex 5.8 -6.53205 -2.00005
    endloop
  endfacet
  facet normal 0 0 -1
    outer loop
      vertex 6.00906 -7.78904 -2.00005
      vertex 5.00906 -6.78904 -2.00005
      vertex 5.41803 -6.70211 -2.00005
    endloop
  endfacet
  facet normal 0 0 -1
    outer loop
      vertex 6.00906 -7.78904 -2.00005
      vertex -5.00906 -6.78904 -2.00005
      vertex 5.00906 -6.78904 -2.00005
    endloop
  endfacet
  facet normal 0 0 -1
    outer loop
      vertex -6.00906 -7.78904 -2.00005
      vertex -5.00906 -6.78904 -2.00005
      vertex 6.00906 -7.78904 -2.00005
    endloop
  endfacet
  facet normal 0 0 -1
    outer loop
      vertex -6.00906 -7.78904 -2.00005
      vertex -5.41803 -6.70211 -2.00005
      vertex -5.00906 -6.78904 -2.00005
    endloop
  endfacet
  facet normal 0 0 -1
    outer loop
      vertex -6.00906 -7.78904 -2.00005
      vertex -5.8 -6.53205 -2.00005
      vertex -5.41803 -6.70211 -2.00005
    endloop
  endfacet
  facet normal 0 0 -1
    outer loop
      vertex -6.41803 -7.70211 -2.00005
      vertex -5.8 -6.53205 -2.00005
      vertex -6.00906 -7.78904 -2.00005
    endloop
  endfacet
  facet normal 0 0 -1
    outer loop
      vertex -6.8 -7.53205 -2.00005
      vertex -5.8 -6.53205 -2.00005
      vertex -6.41803 -7.70211 -2.00005
    endloop
  endfacet
  facet normal -0 0 -1
    outer loop
      vertex -5.8 -6.53205 -2.00005
      vertex -6.8 -7.53205 -2.00005
      vertex -6.13826 -6.28629 -2.00005
    endloop
  endfacet
  facet normal 0 0 -1
    outer loop
      vertex -7.13826 -7.28629 -2.00005
      vertex -6.13826 -6.28629 -2.00005
      vertex -6.8 -7.53205 -2.00005
    endloop
  endfacet
  facet normal 0 0 -1
    outer loop
      vertex -7.41803 -6.97557 -2.00005
      vertex -6.13826 -6.28629 -2.00005
      vertex -7.13826 -7.28629 -2.00005
    endloop
  endfacet
  facet normal -0 0 -1
    outer loop
      vertex -6.13826 -6.28629 -2.00005
      vertex -7.41803 -6.97557 -2.00005
      vertex -6.41803 -5.97557 -2.00005
    endloop
  endfacet
  facet normal 0 0 -1
    outer loop
      vertex -7.62709 -6.61347 -2.00005
      vertex -6.41803 -5.97557 -2.00005
      vertex -7.41803 -6.97557 -2.00005
    endloop
  endfacet
  facet normal 0 0 -1
    outer loop
      vertex -7.75629 -6.21582 -2.00005
      vertex -6.41803 -5.97557 -2.00005
      vertex -7.62709 -6.61347 -2.00005
    endloop
  endfacet
  facet normal -0 0 -1
    outer loop
      vertex -6.8 -4.8 -2.00005
      vertex -7.8 -5.8 -2.00005
      vertex -6.8 4.8 -2.00005
    endloop
  endfacet
  facet normal -0 0 -1
    outer loop
      vertex -6.41803 -5.97557 -2.00005
      vertex -7.75629 -6.21582 -2.00005
      vertex -6.62709 -5.61347 -2.00005
    endloop
  endfacet
  facet normal 0 0 -1
    outer loop
      vertex -7.8 5.8 -2.00005
      vertex -6.8 4.8 -2.00005
      vertex -7.8 -5.8 -2.00005
    endloop
  endfacet
  facet normal 0 0 -1
    outer loop
      vertex -7.8 -5.8 -2.00005
      vertex -6.62709 -5.61347 -2.00005
      vertex -7.75629 -6.21582 -2.00005
    endloop
  endfacet
  facet normal 0 -0 -1
    outer loop
      vertex -7.75629 6.21582 -2.00005
      vertex -6.8 4.8 -2.00005
      vertex -7.8 5.8 -2.00005
    endloop
  endfacet
  facet normal -0 0 -1
    outer loop
      vertex -6.62709 -5.61347 -2.00005
      vertex -7.8 -5.8 -2.00005
      vertex -6.75629 -5.21582 -2.00005
    endloop
  endfacet
  facet normal 0 0 -1
    outer loop
      vertex -6.8 4.8 -2.00005
      vertex -7.13826 7.28629 -2.00005
      vertex -6.8 7.53205 -2.00005
    endloop
  endfacet
  facet normal -0 0 -1
    outer loop
      vertex -6.75629 -5.21582 -2.00005
      vertex -7.8 -5.8 -2.00005
      vertex -6.8 -4.8 -2.00005
    endloop
  endfacet
  facet normal 0 0 -1
    outer loop
      vertex -6.8 4.8 -2.00005
      vertex -7.41803 6.97557 -2.00005
      vertex -7.13826 7.28629 -2.00005
    endloop
  endfacet
  facet normal 0 0 -1
    outer loop
      vertex -6.8 4.8 -2.00005
      vertex -7.62709 6.61347 -2.00005
      vertex -7.41803 6.97557 -2.00005
    endloop
  endfacet
  facet normal 0 0 -1
    outer loop
      vertex -6.8 4.8 -2.00005
      vertex -7.75629 6.21582 -2.00005
      vertex -7.62709 6.61347 -2.00005
    endloop
  endfacet
  facet normal 0 0 -1
    outer loop
      vertex 6.75629 -5.21582 -2.00005
      vertex 7.8 -5.8 -2.00005
      vertex 7.75629 -6.21582 -2.00005
    endloop
  endfacet
  facet normal 0 0 -1
    outer loop
      vertex 7.8 -5.8 -2.00005
      vertex 6.8 -4.8 -2.00005
      vertex 7.8 5.8 -2.00005
    endloop
  endfacet
  facet normal 0 0 -1
    outer loop
      vertex 6.75629 -5.21582 -2.00005
      vertex 7.75629 -6.21582 -2.00005
      vertex 7.62709 -6.61347 -2.00005
    endloop
  endfacet
  facet normal 0 0 -1
    outer loop
      vertex 6.8 4.8 -2.00005
      vertex 7.8 5.8 -2.00005
      vertex 6.8 -4.8 -2.00005
    endloop
  endfacet
  facet normal 0 0 -1
    outer loop
      vertex 6.75629 -5.21582 -2.00005
      vertex 7.62709 -6.61347 -2.00005
      vertex 7.41803 -6.97557 -2.00005
    endloop
  endfacet
  facet normal 0 0 -1
    outer loop
      vertex 6.75629 5.21582 -2.00005
      vertex 7.8 5.8 -2.00005
      vertex 6.8 4.8 -2.00005
    endloop
  endfacet
  facet normal 0 0 -1
    outer loop
      vertex 6.75629 -5.21582 -2.00005
      vertex 7.41803 -6.97557 -2.00005
      vertex 7.13826 -7.28629 -2.00005
    endloop
  endfacet
  facet normal 0 0 -1
    outer loop
      vertex 6.62709 5.61347 -2.00005
      vertex 7.8 5.8 -2.00005
      vertex 6.75629 5.21582 -2.00005
    endloop
  endfacet
  facet normal 0 0 -1
    outer loop
      vertex 6.13826 -6.28629 -2.00005
      vertex 7.13826 -7.28629 -2.00005
      vertex 6.8 -7.53205 -2.00005
    endloop
  endfacet
  facet normal -0 0 -1
    outer loop
      vertex 7.8 5.8 -2.00005
      vertex 6.62709 5.61347 -2.00005
      vertex 7.75629 6.21582 -2.00005
    endloop
  endfacet
  facet normal 0 0 -1
    outer loop
      vertex 6.41803 5.97557 -2.00005
      vertex 7.75629 6.21582 -2.00005
      vertex 6.62709 5.61347 -2.00005
    endloop
  endfacet
  facet normal -0 0 -1
    outer loop
      vertex 7.75629 6.21582 -2.00005
      vertex 6.41803 5.97557 -2.00005
      vertex 7.62709 6.61347 -2.00005
    endloop
  endfacet
  facet normal -0 0 -1
    outer loop
      vertex 7.62709 6.61347 -2.00005
      vertex 6.41803 5.97557 -2.00005
      vertex 7.41803 6.97557 -2.00005
    endloop
  endfacet
  facet normal 0 0 -1
    outer loop
      vertex 6.13826 6.28629 -2.00005
      vertex 7.41803 6.97557 -2.00005
      vertex 6.41803 5.97557 -2.00005
    endloop
  endfacet
  facet normal -0 0 -1
    outer loop
      vertex 7.41803 6.97557 -2.00005
      vertex 6.13826 6.28629 -2.00005
      vertex 7.13826 7.28629 -2.00005
    endloop
  endfacet
  facet normal -0 0 -1
    outer loop
      vertex 7.13826 7.28629 -2.00005
      vertex 6.13826 6.28629 -2.00005
      vertex 6.8 7.53205 -2.00005
    endloop
  endfacet
  facet normal 0 0 -1
    outer loop
      vertex 5.8 6.53205 -2.00005
      vertex 6.8 7.53205 -2.00005
      vertex 6.13826 6.28629 -2.00005
    endloop
  endfacet
  facet normal -0 0 -1
    outer loop
      vertex 6.8 7.53205 -2.00005
      vertex 5.8 6.53205 -2.00005
      vertex 6.41803 7.70211 -2.00005
    endloop
  endfacet
  facet normal -0 0 -1
    outer loop
      vertex 6.41803 7.70211 -2.00005
      vertex 5.8 6.53205 -2.00005
      vertex 6.00906 7.78904 -2.00005
    endloop
  endfacet
  facet normal 0 0 -1
    outer loop
      vertex 5.41803 6.70211 -2.00005
      vertex 6.00906 7.78904 -2.00005
      vertex 5.8 6.53205 -2.00005
    endloop
  endfacet
  facet normal 0 0 -1
    outer loop
      vertex 5.00906 6.78904 -2.00005
      vertex 6.00906 7.78904 -2.00005
      vertex 5.41803 6.70211 -2.00005
    endloop
  endfacet
  facet normal 0 0 -1
    outer loop
      vertex -5.00906 6.78904 -2.00005
      vertex 6.00906 7.78904 -2.00005
      vertex 5.00906 6.78904 -2.00005
    endloop
  endfacet
  facet normal 0 0 -1
    outer loop
      vertex -5.00906 6.78904 -2.00005
      vertex -6.00906 7.78904 -2.00005
      vertex 6.00906 7.78904 -2.00005
    endloop
  endfacet
  facet normal 0 0 -1
    outer loop
      vertex -5.41803 6.70211 -2.00005
      vertex -6.00906 7.78904 -2.00005
      vertex -5.00906 6.78904 -2.00005
    endloop
  endfacet
  facet normal 0 0 -1
    outer loop
      vertex -5.8 6.53205 -2.00005
      vertex -6.00906 7.78904 -2.00005
      vertex -5.41803 6.70211 -2.00005
    endloop
  endfacet
  facet normal 0 0 -1
    outer loop
      vertex -6.8 7.53205 -2.00005
      vertex -5.8 6.53205 -2.00005
      vertex -6.13826 6.28629 -2.00005
    endloop
  endfacet
  facet normal 0 0 -1
    outer loop
      vertex -6.8 7.53205 -2.00005
      vertex -6.13826 6.28629 -2.00005
      vertex -6.41803 5.97557 -2.00005
    endloop
  endfacet
  facet normal 0 0 -1
    outer loop
      vertex -5.8 6.53205 -2.00005
      vertex -6.41803 7.70211 -2.00005
      vertex -6.00906 7.78904 -2.00005
    endloop
  endfacet
  facet normal 0 0 -1
    outer loop
      vertex -6.8 7.53205 -2.00005
      vertex -6.41803 5.97557 -2.00005
      vertex -6.62709 5.61347 -2.00005
    endloop
  endfacet
  facet normal 0 0 -1
    outer loop
      vertex -6.8 7.53205 -2.00005
      vertex -6.62709 5.61347 -2.00005
      vertex -6.75629 5.21582 -2.00005
    endloop
  endfacet
  facet normal 0 0 -1
    outer loop
      vertex -5.8 6.53205 -2.00005
      vertex -6.8 7.53205 -2.00005
      vertex -6.41803 7.70211 -2.00005
    endloop
  endfacet
  facet normal 0 0 -1
    outer loop
      vertex -6.8 7.53205 -2.00005
      vertex -6.75629 5.21582 -2.00005
      vertex -6.8 4.8 -2.00005
    endloop
  endfacet
  facet normal -0.743149 -0.669126 0
    outer loop
      vertex -7.13826 -7.28629 -2.00005
      vertex -7.41803 -6.97557 1.50015
      vertex -7.41803 -6.97557 -2.00005
    endloop
  endfacet
  facet normal -0.743149 -0.669126 0
    outer loop
      vertex -7.41803 -6.97557 1.50015
      vertex -7.13826 -7.28629 -2.00005
      vertex -7.13826 -7.28629 1.50015
    endloop
  endfacet
  facet normal 0 0 1
    outer loop
      vertex 6.00906 7.78904 1.50015
      vertex 7.8 5.8 1.50015
      vertex 7.75629 6.21582 1.50015
    endloop
  endfacet
  facet normal 0 0 1
    outer loop
      vertex -7.8 5.8 1.50015
      vertex 7.8 5.8 1.50015
      vertex 6.00906 7.78904 1.50015
    endloop
  endfacet
  facet normal 0 0 1
    outer loop
      vertex 6.00906 7.78904 1.50015
      vertex 7.75629 6.21582 1.50015
      vertex 7.62709 6.61347 1.50015
    endloop
  endfacet
  facet normal 0 0 1
    outer loop
      vertex 7.8 5.8 1.50015
      vertex -7.8 5.8 1.50015
      vertex 7.8 -5.8 1.50015
    endloop
  endfacet
  facet normal 0 0 1
    outer loop
      vertex 6.00906 7.78904 1.50015
      vertex 7.62709 6.61347 1.50015
      vertex 7.41803 6.97557 1.50015
    endloop
  endfacet
  facet normal 0 0 1
    outer loop
      vertex 7.8 -5.8 1.50015
      vertex 6.00906 -7.78904 1.50015
      vertex 7.75629 -6.21582 1.50015
    endloop
  endfacet
  facet normal 0 0 1
    outer loop
      vertex 6.00906 7.78904 1.50015
      vertex 7.41803 6.97557 1.50015
      vertex 7.13826 7.28629 1.50015
    endloop
  endfacet
  facet normal 0 0 1
    outer loop
      vertex 7.75629 -6.21582 1.50015
      vertex 6.00906 -7.78904 1.50015
      vertex 7.62709 -6.61347 1.50015
    endloop
  endfacet
  facet normal 0 0 1
    outer loop
      vertex 6.00906 7.78904 1.50015
      vertex 7.13826 7.28629 1.50015
      vertex 6.8 7.53205 1.50015
    endloop
  endfacet
  facet normal 0 0 1
    outer loop
      vertex 7.62709 -6.61347 1.50015
      vertex 6.00906 -7.78904 1.50015
      vertex 7.41803 -6.97557 1.50015
    endloop
  endfacet
  facet normal 0 0 1
    outer loop
      vertex 6.00906 7.78904 1.50015
      vertex 6.8 7.53205 1.50015
      vertex 6.41803 7.70211 1.50015
    endloop
  endfacet
  facet normal 0 0 1
    outer loop
      vertex 7.41803 -6.97557 1.50015
      vertex 6.00906 -7.78904 1.50015
      vertex 7.13826 -7.28629 1.50015
    endloop
  endfacet
  facet normal 0 0 1
    outer loop
      vertex 7.13826 -7.28629 1.50015
      vertex 6.00906 -7.78904 1.50015
      vertex 6.8 -7.53205 1.50015
    endloop
  endfacet
  facet normal 0 0 1
    outer loop
      vertex 6.8 -7.53205 1.50015
      vertex 6.00906 -7.78904 1.50015
      vertex 6.41803 -7.70211 1.50015
    endloop
  endfacet
  facet normal 0 0 1
    outer loop
      vertex -7.8 5.8 1.50015
      vertex 6.00906 7.78904 1.50015
      vertex -6.00906 7.78904 1.50015
    endloop
  endfacet
  facet normal 0 0 1
    outer loop
      vertex -7.8 -5.8 1.50015
      vertex 7.8 -5.8 1.50015
      vertex -7.8 5.8 1.50015
    endloop
  endfacet
  facet normal 0 0 1
    outer loop
      vertex -7.8 5.8 1.50015
      vertex -6.00906 7.78904 1.50015
      vertex -6.41803 7.70211 1.50015
    endloop
  endfacet
  facet normal 0 0 1
    outer loop
      vertex 7.8 -5.8 1.50015
      vertex -7.8 -5.8 1.50015
      vertex 6.00906 -7.78904 1.50015
    endloop
  endfacet
  facet normal 0 0 1
    outer loop
      vertex -7.8 5.8 1.50015
      vertex -6.41803 7.70211 1.50015
      vertex -6.8 7.53205 1.50015
    endloop
  endfacet
  facet normal 0 0 1
    outer loop
      vertex 6.00906 -7.78904 1.50015
      vertex -7.8 -5.8 1.50015
      vertex -6.00906 -7.78904 1.50015
    endloop
  endfacet
  facet normal 0 0 1
    outer loop
      vertex -7.8 5.8 1.50015
      vertex -6.8 7.53205 1.50015
      vertex -7.13826 7.28629 1.50015
    endloop
  endfacet
  facet normal 0 0 1
    outer loop
      vertex -6.00906 -7.78904 1.50015
      vertex -7.8 -5.8 1.50015
      vertex -6.41803 -7.70211 1.50015
    endloop
  endfacet
  facet normal 0 0 1
    outer loop
      vertex -7.8 5.8 1.50015
      vertex -7.13826 7.28629 1.50015
      vertex -7.41803 6.97557 1.50015
    endloop
  endfacet
  facet normal 0 0 1
    outer loop
      vertex -6.41803 -7.70211 1.50015
      vertex -7.8 -5.8 1.50015
      vertex -6.8 -7.53205 1.50015
    endloop
  endfacet
  facet normal 0 0 1
    outer loop
      vertex -7.8 5.8 1.50015
      vertex -7.41803 6.97557 1.50015
      vertex -7.62709 6.61347 1.50015
    endloop
  endfacet
  facet normal 0 0 1
    outer loop
      vertex -6.8 -7.53205 1.50015
      vertex -7.8 -5.8 1.50015
      vertex -7.13826 -7.28629 1.50015
    endloop
  endfacet
  facet normal 0 0 1
    outer loop
      vertex -7.8 5.8 1.50015
      vertex -7.62709 6.61347 1.50015
      vertex -7.75629 6.21582 1.50015
    endloop
  endfacet
  facet normal 0 0 1
    outer loop
      vertex -7.13826 -7.28629 1.50015
      vertex -7.8 -5.8 1.50015
      vertex -7.41803 -6.97557 1.50015
    endloop
  endfacet
  facet normal 0 0 1
    outer loop
      vertex -7.41803 -6.97557 1.50015
      vertex -7.8 -5.8 1.50015
      vertex -7.62709 -6.61347 1.50015
    endloop
  endfacet
  facet normal 0 0 1
    outer loop
      vertex -7.62709 -6.61347 1.50015
      vertex -7.8 -5.8 1.50015
      vertex -7.75629 -6.21582 1.50015
    endloop
  endfacet
  facet normal -0.866024 0.500003 0
    outer loop
      vertex 6.41803 -5.97557 -2.00005
      vertex 6.62709 -5.61347 0.000148773
      vertex 6.62709 -5.61347 -2.00005
    endloop
  endfacet
  facet normal -0.866024 0.500003 0
    outer loop
      vertex 6.62709 -5.61347 0.000148773
      vertex 6.41803 -5.97557 -2.00005
      vertex 6.41803 -5.97557 0.000148773
    endloop
  endfacet
  facet normal -0.587785 0.809017 0
    outer loop
      vertex 6.13826 -6.28629 -2.00005
      vertex 5.8 -6.53205 0.000148773
      vertex 6.13826 -6.28629 0.000148773
    endloop
  endfacet
  facet normal -0.587785 0.809017 0
    outer loop
      vertex 5.8 -6.53205 0.000148773
      vertex 6.13826 -6.28629 -2.00005
      vertex 5.8 -6.53205 -2.00005
    endloop
  endfacet
  facet normal 0 -1 0
    outer loop
      vertex -5.00906 6.78904 -2.00005
      vertex 5.00906 6.78904 0.000148773
      vertex -5.00906 6.78904 0.000148773
    endloop
  endfacet
  facet normal 0 -1 -0
    outer loop
      vertex 5.00906 6.78904 0.000148773
      vertex -5.00906 6.78904 -2.00005
      vertex 5.00906 6.78904 -2.00005
    endloop
  endfacet
  facet normal -0.95106 0.309008 0
    outer loop
      vertex 6.62709 -5.61347 -2.00005
      vertex 6.75629 -5.21582 0.000148773
      vertex 6.75629 -5.21582 -2.00005
    endloop
  endfacet
  facet normal -0.95106 0.309008 0
    outer loop
      vertex 6.75629 -5.21582 0.000148773
      vertex 6.62709 -5.61347 -2.00005
      vertex 6.62709 -5.61347 0.000148773
    endloop
  endfacet
  facet normal 0.207913 0.978147 -0
    outer loop
      vertex -5.00906 -6.78904 -2.00005
      vertex -5.41803 -6.70211 0.000148773
      vertex -5.00906 -6.78904 0.000148773
    endloop
  endfacet
  facet normal 0.207913 0.978147 0
    outer loop
      vertex -5.41803 -6.70211 0.000148773
      vertex -5.00906 -6.78904 -2.00005
      vertex -5.41803 -6.70211 -2.00005
    endloop
  endfacet
  facet normal 0.743149 -0.669126 0
    outer loop
      vertex -6.41803 5.97557 0.000148773
      vertex -6.13826 6.28629 -2.00005
      vertex -6.13826 6.28629 0.000148773
    endloop
  endfacet
  facet normal 0.743149 -0.669126 0
    outer loop
      vertex -6.13826 6.28629 -2.00005
      vertex -6.41803 5.97557 0.000148773
      vertex -6.41803 5.97557 -2.00005
    endloop
  endfacet
  facet normal -0.207913 -0.978147 0
    outer loop
      vertex 5.00906 6.78904 -2.00005
      vertex 5.41803 6.70211 0.000148773
      vertex 5.00906 6.78904 0.000148773
    endloop
  endfacet
  facet normal -0.207913 -0.978147 -0
    outer loop
      vertex 5.41803 6.70211 0.000148773
      vertex 5.00906 6.78904 -2.00005
      vertex 5.41803 6.70211 -2.00005
    endloop
  endfacet
  facet normal 1 -0 0
    outer loop
      vertex -6.8 -4.8 0.000148773
      vertex -6.8 4.8 -2.00005
      vertex -6.8 4.8 0.000148773
    endloop
  endfacet
  facet normal 1 0 0
    outer loop
      vertex -6.8 4.8 -2.00005
      vertex -6.8 -4.8 0.000148773
      vertex -6.8 -4.8 -2.00005
    endloop
  endfacet
  facet normal -0.587785 -0.809017 0
    outer loop
      vertex 5.8 6.53205 -2.00005
      vertex 6.13826 6.28629 0.000148773
      vertex 5.8 6.53205 0.000148773
    endloop
  endfacet
  facet normal -0.587785 -0.809017 -0
    outer loop
      vertex 6.13826 6.28629 0.000148773
      vertex 5.8 6.53205 -2.00005
      vertex 6.13826 6.28629 -2.00005
    endloop
  endfacet
  facet normal 0 1 -0
    outer loop
      vertex 5.00906 -6.78904 -2.00005
      vertex -5.00906 -6.78904 0.000148773
      vertex 5.00906 -6.78904 0.000148773
    endloop
  endfacet
  facet normal 0 1 0
    outer loop
      vertex -5.00906 -6.78904 0.000148773
      vertex 5.00906 -6.78904 -2.00005
      vertex -5.00906 -6.78904 -2.00005
    endloop
  endfacet
  facet normal -0.95106 -0.309008 0
    outer loop
      vertex 6.75629 5.21582 -2.00005
      vertex 6.62709 5.61347 0.000148773
      vertex 6.62709 5.61347 -2.00005
    endloop
  endfacet
  facet normal -0.95106 -0.309008 0
    outer loop
      vertex 6.62709 5.61347 0.000148773
      vertex 6.75629 5.21582 -2.00005
      vertex 6.75629 5.21582 0.000148773
    endloop
  endfacet
  facet normal -0.743149 0.669126 0
    outer loop
      vertex 6.13826 -6.28629 -2.00005
      vertex 6.41803 -5.97557 0.000148773
      vertex 6.41803 -5.97557 -2.00005
    endloop
  endfacet
  facet normal -0.743149 0.669126 0
    outer loop
      vertex 6.41803 -5.97557 0.000148773
      vertex 6.13826 -6.28629 -2.00005
      vertex 6.13826 -6.28629 0.000148773
    endloop
  endfacet
  facet normal -0.866024 -0.500003 0
    outer loop
      vertex 6.62709 5.61347 -2.00005
      vertex 6.41803 5.97557 0.000148773
      vertex 6.41803 5.97557 -2.00005
    endloop
  endfacet
  facet normal -0.866024 -0.500003 0
    outer loop
      vertex 6.41803 5.97557 0.000148773
      vertex 6.62709 5.61347 -2.00005
      vertex 6.62709 5.61347 0.000148773
    endloop
  endfacet
  facet normal 0.587785 0.809017 -0
    outer loop
      vertex -5.8 -6.53205 -2.00005
      vertex -6.13826 -6.28629 0.000148773
      vertex -5.8 -6.53205 0.000148773
    endloop
  endfacet
  facet normal 0.587785 0.809017 0
    outer loop
      vertex -6.13826 -6.28629 0.000148773
      vertex -5.8 -6.53205 -2.00005
      vertex -6.13826 -6.28629 -2.00005
    endloop
  endfacet
  facet normal 0.994521 0.104542 0
    outer loop
      vertex -6.75629 -5.21582 0.000148773
      vertex -6.8 -4.8 -2.00005
      vertex -6.8 -4.8 0.000148773
    endloop
  endfacet
  facet normal 0.994521 0.104542 0
    outer loop
      vertex -6.8 -4.8 -2.00005
      vertex -6.75629 -5.21582 0.000148773
      vertex -6.75629 -5.21582 -2.00005
    endloop
  endfacet
  facet normal 0.587785 -0.809017 0
    outer loop
      vertex -6.13826 6.28629 -2.00005
      vertex -5.8 6.53205 0.000148773
      vertex -6.13826 6.28629 0.000148773
    endloop
  endfacet
  facet normal 0.587785 -0.809017 0
    outer loop
      vertex -5.8 6.53205 0.000148773
      vertex -6.13826 6.28629 -2.00005
      vertex -5.8 6.53205 -2.00005
    endloop
  endfacet
  facet normal -1 0 0
    outer loop
      vertex 6.8 -4.8 -2.00005
      vertex 6.8 4.8 0.000148773
      vertex 6.8 4.8 -2.00005
    endloop
  endfacet
  facet normal -1 -0 0
    outer loop
      vertex 6.8 4.8 0.000148773
      vertex 6.8 -4.8 -2.00005
      vertex 6.8 -4.8 0.000148773
    endloop
  endfacet
  facet normal -0.994521 -0.104542 0
    outer loop
      vertex 6.8 4.8 -2.00005
      vertex 6.75629 5.21582 0.000148773
      vertex 6.75629 5.21582 -2.00005
    endloop
  endfacet
  facet normal -0.994521 -0.104542 0
    outer loop
      vertex 6.75629 5.21582 0.000148773
      vertex 6.8 4.8 -2.00005
      vertex 6.8 4.8 0.000148773
    endloop
  endfacet
  facet normal 0.406729 0.913549 -0
    outer loop
      vertex -5.41803 -6.70211 -2.00005
      vertex -5.8 -6.53205 0.000148773
      vertex -5.41803 -6.70211 0.000148773
    endloop
  endfacet
  facet normal 0.406729 0.913549 0
    outer loop
      vertex -5.8 -6.53205 0.000148773
      vertex -5.41803 -6.70211 -2.00005
      vertex -5.8 -6.53205 -2.00005
    endloop
  endfacet
  facet normal -0.207913 0.978147 0
    outer loop
      vertex 5.41803 -6.70211 -2.00005
      vertex 5.00906 -6.78904 0.000148773
      vertex 5.41803 -6.70211 0.000148773
    endloop
  endfacet
  facet normal -0.207913 0.978147 0
    outer loop
      vertex 5.00906 -6.78904 0.000148773
      vertex 5.41803 -6.70211 -2.00005
      vertex 5.00906 -6.78904 -2.00005
    endloop
  endfacet
  facet normal 0.95106 0.309008 0
    outer loop
      vertex -6.62709 -5.61347 0.000148773
      vertex -6.75629 -5.21582 -2.00005
      vertex -6.75629 -5.21582 0.000148773
    endloop
  endfacet
  facet normal 0.95106 0.309008 0
    outer loop
      vertex -6.75629 -5.21582 -2.00005
      vertex -6.62709 -5.61347 0.000148773
      vertex -6.62709 -5.61347 -2.00005
    endloop
  endfacet
  facet normal 0.994521 -0.104542 0
    outer loop
      vertex -6.8 4.8 0.000148773
      vertex -6.75629 5.21582 -2.00005
      vertex -6.75629 5.21582 0.000148773
    endloop
  endfacet
  facet normal 0.994521 -0.104542 0
    outer loop
      vertex -6.75629 5.21582 -2.00005
      vertex -6.8 4.8 0.000148773
      vertex -6.8 4.8 -2.00005
    endloop
  endfacet
  facet normal 0.207913 -0.978147 0
    outer loop
      vertex -5.41803 6.70211 -2.00005
      vertex -5.00906 6.78904 0.000148773
      vertex -5.41803 6.70211 0.000148773
    endloop
  endfacet
  facet normal 0.207913 -0.978147 0
    outer loop
      vertex -5.00906 6.78904 0.000148773
      vertex -5.41803 6.70211 -2.00005
      vertex -5.00906 6.78904 -2.00005
    endloop
  endfacet
  facet normal -0.994521 0.104542 0
    outer loop
      vertex 6.75629 -5.21582 -2.00005
      vertex 6.8 -4.8 0.000148773
      vertex 6.8 -4.8 -2.00005
    endloop
  endfacet
  facet normal -0.994521 0.104542 0
    outer loop
      vertex 6.8 -4.8 0.000148773
      vertex 6.75629 -5.21582 -2.00005
      vertex 6.75629 -5.21582 0.000148773
    endloop
  endfacet
  facet normal 0 0 -1
    outer loop
      vertex 5.00906 -6.78904 0.000148773
      vertex 6.8 -4.8 0.000148773
      vertex 6.75629 -5.21582 0.000148773
    endloop
  endfacet
  facet normal 0 0 -1
    outer loop
      vertex -6.8 -4.8 0.000148773
      vertex 6.8 -4.8 0.000148773
      vertex 5.00906 -6.78904 0.000148773
    endloop
  endfacet
  facet normal 0 0 -1
    outer loop
      vertex 5.00906 -6.78904 0.000148773
      vertex 6.75629 -5.21582 0.000148773
      vertex 6.62709 -5.61347 0.000148773
    endloop
  endfacet
  facet normal 0 0 -1
    outer loop
      vertex 6.8 -4.8 0.000148773
      vertex -6.8 -4.8 0.000148773
      vertex 6.8 4.8 0.000148773
    endloop
  endfacet
  facet normal 0 0 -1
    outer loop
      vertex 5.00906 -6.78904 0.000148773
      vertex 6.62709 -5.61347 0.000148773
      vertex 6.41803 -5.97557 0.000148773
    endloop
  endfacet
  facet normal 0 0 -1
    outer loop
      vertex 6.8 4.8 0.000148773
      vertex 5.00906 6.78904 0.000148773
      vertex 6.75629 5.21582 0.000148773
    endloop
  endfacet
  facet normal 0 0 -1
    outer loop
      vertex 5.00906 -6.78904 0.000148773
      vertex 6.41803 -5.97557 0.000148773
      vertex 6.13826 -6.28629 0.000148773
    endloop
  endfacet
  facet normal 0 0 -1
    outer loop
      vertex 6.75629 5.21582 0.000148773
      vertex 5.00906 6.78904 0.000148773
      vertex 6.62709 5.61347 0.000148773
    endloop
  endfacet
  facet normal 0 0 -1
    outer loop
      vertex 5.00906 -6.78904 0.000148773
      vertex 6.13826 -6.28629 0.000148773
      vertex 5.8 -6.53205 0.000148773
    endloop
  endfacet
  facet normal 0 0 -1
    outer loop
      vertex 6.62709 5.61347 0.000148773
      vertex 5.00906 6.78904 0.000148773
      vertex 6.41803 5.97557 0.000148773
    endloop
  endfacet
  facet normal 0 0 -1
    outer loop
      vertex 5.00906 -6.78904 0.000148773
      vertex 5.8 -6.53205 0.000148773
      vertex 5.41803 -6.70211 0.000148773
    endloop
  endfacet
  facet normal 0 0 -1
    outer loop
      vertex 6.41803 5.97557 0.000148773
      vertex 5.00906 6.78904 0.000148773
      vertex 6.13826 6.28629 0.000148773
    endloop
  endfacet
  facet normal 0 0 -1
    outer loop
      vertex 6.13826 6.28629 0.000148773
      vertex 5.00906 6.78904 0.000148773
      vertex 5.8 6.53205 0.000148773
    endloop
  endfacet
  facet normal 0 0 -1
    outer loop
      vertex 5.8 6.53205 0.000148773
      vertex 5.00906 6.78904 0.000148773
      vertex 5.41803 6.70211 0.000148773
    endloop
  endfacet
  facet normal 0 0 -1
    outer loop
      vertex -6.8 -4.8 0.000148773
      vertex 5.00906 -6.78904 0.000148773
      vertex -5.00906 -6.78904 0.000148773
    endloop
  endfacet
  facet normal 0 0 -1
    outer loop
      vertex -6.8 4.8 0.000148773
      vertex 6.8 4.8 0.000148773
      vertex -6.8 -4.8 0.000148773
    endloop
  endfacet
  facet normal 0 0 -1
    outer loop
      vertex -6.8 -4.8 0.000148773
      vertex -5.00906 -6.78904 0.000148773
      vertex -5.41803 -6.70211 0.000148773
    endloop
  endfacet
  facet normal 0 0 -1
    outer loop
      vertex 6.8 4.8 0.000148773
      vertex -6.8 4.8 0.000148773
      vertex 5.00906 6.78904 0.000148773
    endloop
  endfacet
  facet normal 0 0 -1
    outer loop
      vertex -6.8 -4.8 0.000148773
      vertex -5.41803 -6.70211 0.000148773
      vertex -5.8 -6.53205 0.000148773
    endloop
  endfacet
  facet normal -0 0 -1
    outer loop
      vertex 5.00906 6.78904 0.000148773
      vertex -6.8 4.8 0.000148773
      vertex -5.00906 6.78904 0.000148773
    endloop
  endfacet
  facet normal 0 0 -1
    outer loop
      vertex -6.8 -4.8 0.000148773
      vertex -5.8 -6.53205 0.000148773
      vertex -6.13826 -6.28629 0.000148773
    endloop
  endfacet
  facet normal 0 0 -1
    outer loop
      vertex -5.00906 6.78904 0.000148773
      vertex -6.8 4.8 0.000148773
      vertex -5.41803 6.70211 0.000148773
    endloop
  endfacet
  facet normal 0 0 -1
    outer loop
      vertex -6.8 -4.8 0.000148773
      vertex -6.13826 -6.28629 0.000148773
      vertex -6.41803 -5.97557 0.000148773
    endloop
  endfacet
  facet normal 0 0 -1
    outer loop
      vertex -5.41803 6.70211 0.000148773
      vertex -6.8 4.8 0.000148773
      vertex -5.8 6.53205 0.000148773
    endloop
  endfacet
  facet normal 0 0 -1
    outer loop
      vertex -6.8 -4.8 0.000148773
      vertex -6.41803 -5.97557 0.000148773
      vertex -6.62709 -5.61347 0.000148773
    endloop
  endfacet
  facet normal 0 0 -1
    outer loop
      vertex -5.8 6.53205 0.000148773
      vertex -6.8 4.8 0.000148773
      vertex -6.13826 6.28629 0.000148773
    endloop
  endfacet
  facet normal 0 0 -1
    outer loop
      vertex -6.8 -4.8 0.000148773
      vertex -6.62709 -5.61347 0.000148773
      vertex -6.75629 -5.21582 0.000148773
    endloop
  endfacet
  facet normal 0 0 -1
    outer loop
      vertex -6.13826 6.28629 0.000148773
      vertex -6.8 4.8 0.000148773
      vertex -6.41803 5.97557 0.000148773
    endloop
  endfacet
  facet normal 0 0 -1
    outer loop
      vertex -6.41803 5.97557 0.000148773
      vertex -6.8 4.8 0.000148773
      vertex -6.62709 5.61347 0.000148773
    endloop
  endfacet
  facet normal 0 0 -1
    outer loop
      vertex -6.62709 5.61347 0.000148773
      vertex -6.8 4.8 0.000148773
      vertex -6.75629 5.21582 0.000148773
    endloop
  endfacet
  facet normal -0.406729 0.913549 0
    outer loop
      vertex 5.8 -6.53205 -2.00005
      vertex 5.41803 -6.70211 0.000148773
      vertex 5.8 -6.53205 0.000148773
    endloop
  endfacet
  facet normal -0.406729 0.913549 0
    outer loop
      vertex 5.41803 -6.70211 0.000148773
      vertex 5.8 -6.53205 -2.00005
      vertex 5.41803 -6.70211 -2.00005
    endloop
  endfacet
  facet normal 0.866024 0.500003 0
    outer loop
      vertex -6.41803 -5.97557 0.000148773
      vertex -6.62709 -5.61347 -2.00005
      vertex -6.62709 -5.61347 0.000148773
    endloop
  endfacet
  facet normal 0.866024 0.500003 0
    outer loop
      vertex -6.62709 -5.61347 -2.00005
      vertex -6.41803 -5.97557 0.000148773
      vertex -6.41803 -5.97557 -2.00005
    endloop
  endfacet
  facet normal 0.743149 0.669126 0
    outer loop
      vertex -6.13826 -6.28629 0.000148773
      vertex -6.41803 -5.97557 -2.00005
      vertex -6.41803 -5.97557 0.000148773
    endloop
  endfacet
  facet normal 0.743149 0.669126 0
    outer loop
      vertex -6.41803 -5.97557 -2.00005
      vertex -6.13826 -6.28629 0.000148773
      vertex -6.13826 -6.28629 -2.00005
    endloop
  endfacet
  facet normal 0.95106 -0.309008 0
    outer loop
      vertex -6.75629 5.21582 0.000148773
      vertex -6.62709 5.61347 -2.00005
      vertex -6.62709 5.61347 0.000148773
    endloop
  endfacet
  facet normal 0.95106 -0.309008 0
    outer loop
      vertex -6.62709 5.61347 -2.00005
      vertex -6.75629 5.21582 0.000148773
      vertex -6.75629 5.21582 -2.00005
    endloop
  endfacet
  facet normal 0.866024 -0.500003 0
    outer loop
      vertex -6.62709 5.61347 0.000148773
      vertex -6.41803 5.97557 -2.00005
      vertex -6.41803 5.97557 0.000148773
    endloop
  endfacet
  facet normal 0.866024 -0.500003 0
    outer loop
      vertex -6.41803 5.97557 -2.00005
      vertex -6.62709 5.61347 0.000148773
      vertex -6.62709 5.61347 -2.00005
    endloop
  endfacet
  facet normal -0.406729 -0.913549 0
    outer loop
      vertex 5.41803 6.70211 -2.00005
      vertex 5.8 6.53205 0.000148773
      vertex 5.41803 6.70211 0.000148773
    endloop
  endfacet
  facet normal -0.406729 -0.913549 -0
    outer loop
      vertex 5.8 6.53205 0.000148773
      vertex 5.41803 6.70211 -2.00005
      vertex 5.8 6.53205 -2.00005
    endloop
  endfacet
  facet normal 0.406729 -0.913549 0
    outer loop
      vertex -5.8 6.53205 -2.00005
      vertex -5.41803 6.70211 0.000148773
      vertex -5.8 6.53205 0.000148773
    endloop
  endfacet
  facet normal 0.406729 -0.913549 0
    outer loop
      vertex -5.41803 6.70211 0.000148773
      vertex -5.8 6.53205 -2.00005
      vertex -5.41803 6.70211 -2.00005
    endloop
  endfacet
  facet normal -0.743149 -0.669126 0
    outer loop
      vertex 6.41803 5.97557 -2.00005
      vertex 6.13826 6.28629 0.000148773
      vertex 6.13826 6.28629 -2.00005
    endloop
  endfacet
  facet normal -0.743149 -0.669126 0
    outer loop
      vertex 6.13826 6.28629 0.000148773
      vertex 6.41803 5.97557 -2.00005
      vertex 6.41803 5.97557 0.000148773
    endloop
  endfacet
  facet normal 0 -1 0
    outer loop
      vertex -3.35 -1 -3.6
      vertex -2.35 -1 0
      vertex -3.35 -1 0
    endloop
  endfacet
  facet normal 0 -1 -0
    outer loop
      vertex -2.35 -1 0
      vertex -3.35 -1 -3.6
      vertex -2.35 -1 -3.6
    endloop
  endfacet
  facet normal -0.923191 0 -0.384342
    outer loop
      vertex -3.1 -0.5 -4.2005
      vertex -3.35 1 -3.6
      vertex -3.1 0.5 -4.2005
    endloop
  endfacet
  facet normal -0.923191 -0 -0.384342
    outer loop
      vertex -3.35 1 -3.6
      vertex -3.1 -0.5 -4.2005
      vertex -3.35 -1 -3.6
    endloop
  endfacet
  facet normal -1 0 0
    outer loop
      vertex -3.35 -1 -3.6
      vertex -3.35 1 0
      vertex -3.35 1 -3.6
    endloop
  endfacet
  facet normal -1 -0 0
    outer loop
      vertex -3.35 1 0
      vertex -3.35 -1 -3.6
      vertex -3.35 -1 0
    endloop
  endfacet
  facet normal 0 1 -0
    outer loop
      vertex -2.35 1 -3.6
      vertex -3.35 1 0
      vertex -2.35 1 0
    endloop
  endfacet
  facet normal 0 1 0
    outer loop
      vertex -3.35 1 0
      vertex -2.35 1 -3.6
      vertex -3.35 1 -3.6
    endloop
  endfacet
  facet normal 0.923191 0 -0.384342
    outer loop
      vertex -2.35 1 -3.6
      vertex -2.6 -0.5 -4.2005
      vertex -2.6 0.5 -4.2005
    endloop
  endfacet
  facet normal 0.923191 0 -0.384342
    outer loop
      vertex -2.6 -0.5 -4.2005
      vertex -2.35 1 -3.6
      vertex -2.35 -1 -3.6
    endloop
  endfacet
  facet normal 1 -0 0
    outer loop
      vertex -2.35 -1 0
      vertex -2.35 1 -3.6
      vertex -2.35 1 0
    endloop
  endfacet
  facet normal 1 0 0
    outer loop
      vertex -2.35 1 -3.6
      vertex -2.35 -1 0
      vertex -2.35 -1 -3.6
    endloop
  endfacet
  facet normal -0 0 1
    outer loop
      vertex -3.35 1 0
      vertex -2.35 -1 0
      vertex -2.35 1 0
    endloop
  endfacet
  facet normal 0 0 1
    outer loop
      vertex -2.35 -1 0
      vertex -3.35 1 0
      vertex -3.35 -1 0
    endloop
  endfacet
  facet normal 0 0.768483 -0.63987
    outer loop
      vertex -2.6 0.5 -4.2005
      vertex -3.35 1 -3.6
      vertex -2.35 1 -3.6
    endloop
  endfacet
  facet normal 0 0.768483 -0.63987
    outer loop
      vertex -3.35 1 -3.6
      vertex -2.6 0.5 -4.2005
      vertex -3.1 0.5 -4.2005
    endloop
  endfacet
  facet normal 0 -0.768483 -0.63987
    outer loop
      vertex -3.1 -0.5 -4.2005
      vertex -2.35 -1 -3.6
      vertex -3.35 -1 -3.6
    endloop
  endfacet
  facet normal 0 -0.768483 -0.63987
    outer loop
      vertex -2.35 -1 -3.6
      vertex -3.1 -0.5 -4.2005
      vertex -2.6 -0.5 -4.2005
    endloop
  endfacet
  facet normal 0 0 -1
    outer loop
      vertex -3.1 -0.5 -4.2005
      vertex -2.6 0.5 -4.2005
      vertex -2.6 -0.5 -4.2005
    endloop
  endfacet
  facet normal -0 0 -1
    outer loop
      vertex -2.6 0.5 -4.2005
      vertex -3.1 -0.5 -4.2005
      vertex -3.1 0.5 -4.2005
    endloop
  endfacet
  facet normal 0 -1 0
    outer loop
      vertex 2.35 -1 -3.6
      vertex 3.35 -1 0
      vertex 2.35 -1 0
    endloop
  endfacet
  facet normal 0 -1 -0
    outer loop
      vertex 3.35 -1 0
      vertex 2.35 -1 -3.6
      vertex 3.35 -1 -3.6
    endloop
  endfacet
  facet normal -0.923191 0 -0.384342
    outer loop
      vertex 2.6 -0.5 -4.2005
      vertex 2.35 1 -3.6
      vertex 2.6 0.5 -4.2005
    endloop
  endfacet
  facet normal -0.923191 -0 -0.384342
    outer loop
      vertex 2.35 1 -3.6
      vertex 2.6 -0.5 -4.2005
      vertex 2.35 -1 -3.6
    endloop
  endfacet
  facet normal -1 0 0
    outer loop
      vertex 2.35 -1 -3.6
      vertex 2.35 1 0
      vertex 2.35 1 -3.6
    endloop
  endfacet
  facet normal -1 -0 0
    outer loop
      vertex 2.35 1 0
      vertex 2.35 -1 -3.6
      vertex 2.35 -1 0
    endloop
  endfacet
  facet normal 0 1 -0
    outer loop
      vertex 3.35 1 -3.6
      vertex 2.35 1 0
      vertex 3.35 1 0
    endloop
  endfacet
  facet normal 0 1 0
    outer loop
      vertex 2.35 1 0
      vertex 3.35 1 -3.6
      vertex 2.35 1 -3.6
    endloop
  endfacet
  facet normal 0.923191 0 -0.384342
    outer loop
      vertex 3.35 1 -3.6
      vertex 3.1 -0.5 -4.2005
      vertex 3.1 0.5 -4.2005
    endloop
  endfacet
  facet normal 0.923191 0 -0.384342
    outer loop
      vertex 3.1 -0.5 -4.2005
      vertex 3.35 1 -3.6
      vertex 3.35 -1 -3.6
    endloop
  endfacet
  facet normal 1 -0 0
    outer loop
      vertex 3.35 -1 0
      vertex 3.35 1 -3.6
      vertex 3.35 1 0
    endloop
  endfacet
  facet normal 1 0 0
    outer loop
      vertex 3.35 1 -3.6
      vertex 3.35 -1 0
      vertex 3.35 -1 -3.6
    endloop
  endfacet
  facet normal -0 0 1
    outer loop
      vertex 2.35 1 0
      vertex 3.35 -1 0
      vertex 3.35 1 0
    endloop
  endfacet
  facet normal 0 0 1
    outer loop
      vertex 3.35 -1 0
      vertex 2.35 1 0
      vertex 2.35 -1 0
    endloop
  endfacet
  facet normal 0 0.768483 -0.63987
    outer loop
      vertex 3.1 0.5 -4.2005
      vertex 2.35 1 -3.6
      vertex 3.35 1 -3.6
    endloop
  endfacet
  facet normal 0 0.768483 -0.63987
    outer loop
      vertex 2.35 1 -3.6
      vertex 3.1 0.5 -4.2005
      vertex 2.6 0.5 -4.2005
    endloop
  endfacet
  facet normal 0 -0.768483 -0.63987
    outer loop
      vertex 2.6 -0.5 -4.2005
      vertex 3.35 -1 -3.6
      vertex 2.35 -1 -3.6
    endloop
  endfacet
  facet normal 0 -0.768483 -0.63987
    outer loop
      vertex 3.35 -1 -3.6
      vertex 2.6 -0.5 -4.2005
      vertex 3.1 -0.5 -4.2005
    endloop
  endfacet
  facet normal 0 0 -1
    outer loop
      vertex 2.6 -0.5 -4.2005
      vertex 3.1 0.5 -4.2005
      vertex 3.1 -0.5 -4.2005
    endloop
  endfacet
  facet normal -0 0 -1
    outer loop
      vertex 3.1 0.5 -4.2005
      vertex 2.6 -0.5 -4.2005
      vertex 2.6 0.5 -4.2005
    endloop
  endfacet
endsolid OpenSCAD_Model
