solid OpenSCAD_Model
  facet normal -0.406729 0.913549 0
    outer loop
      vertex -6.41803 7.70211 -2.00005
      vertex -6.8 7.53205 1.50015
      vertex -6.41803 7.70211 1.50015
    endloop
  endfacet
  facet normal -0.406729 0.913549 0
    outer loop
      vertex -6.8 7.53205 1.50015
      vertex -6.41803 7.70211 -2.00005
      vertex -6.8 7.53205 -2.00005
    endloop
  endfacet
  facet normal 0 -1 0
    outer loop
      vertex -6.00906 -7.78904 -2.00005
      vertex 6.00906 -7.78904 1.50015
      vertex -6.00906 -7.78904 1.50015
    endloop
  endfacet
  facet normal 0 -1 -0
    outer loop
      vertex 6.00906 -7.78904 1.50015
      vertex -6.00906 -7.78904 -2.00005
      vertex 6.00906 -7.78904 -2.00005
    endloop
  endfacet
  facet normal -0.95106 -0.309008 0
    outer loop
      vertex -7.62709 -6.61347 -2.00005
      vertex -7.75629 -6.21582 1.50015
      vertex -7.75629 -6.21582 -2.00005
    endloop
  endfacet
  facet normal -0.95106 -0.309008 0
    outer loop
      vertex -7.75629 -6.21582 1.50015
      vertex -7.62709 -6.61347 -2.00005
      vertex -7.62709 -6.61347 1.50015
    endloop
  endfacet
  facet normal -0.866024 0.500003 0
    outer loop
      vertex -7.62709 6.61347 -2.00005
      vertex -7.41803 6.97557 1.50015
      vertex -7.41803 6.97557 -2.00005
    endloop
  endfacet
  facet normal -0.866024 0.500003 0
    outer loop
      vertex -7.41803 6.97557 1.50015
      vertex -7.62709 6.61347 -2.00005
      vertex -7.62709 6.61347 1.50015
    endloop
  endfacet
  facet normal 0.743149 -0.669126 0
    outer loop
      vertex 7.13826 -7.28629 1.50015
      vertex 7.41803 -6.97557 -2.00005
      vertex 7.41803 -6.97557 1.50015
    endloop
  endfacet
  facet normal 0.743149 -0.669126 0
    outer loop
      vertex 7.41803 -6.97557 -2.00005
      vertex 7.13826 -7.28629 1.50015
      vertex 7.13826 -7.28629 -2.00005
    endloop
  endfacet
  facet normal -1 0 0
    outer loop
      vertex -7.8 -5.8 -2.00005
      vertex -7.8 5.8 1.50015
      vertex -7.8 5.8 -2.00005
    endloop
  endfacet
  facet normal -1 -0 0
    outer loop
      vertex -7.8 5.8 1.50015
      vertex -7.8 -5.8 -2.00005
      vertex -7.8 -5.8 1.50015
    endloop
  endfacet
  facet normal 0 1 -0
    outer loop
      vertex 6.00906 7.78904 -2.00005
      vertex -6.00906 7.78904 1.50015
      vertex 6.00906 7.78904 1.50015
    endloop
  endfacet
  facet normal 0 1 0
    outer loop
      vertex -6.00906 7.78904 1.50015
      vertex 6.00906 7.78904 -2.00005
      vertex -6.00906 7.78904 -2.00005
    endloop
  endfacet
  facet normal -0.406729 -0.913549 0
    outer loop
      vertex -6.8 -7.53205 -2.00005
      vertex -6.41803 -7.70211 1.50015
      vertex -6.8 -7.53205 1.50015
    endloop
  endfacet
  facet normal -0.406729 -0.913549 -0
    outer loop
      vertex -6.41803 -7.70211 1.50015
      vertex -6.8 -7.53205 -2.00005
      vertex -6.41803 -7.70211 -2.00005
    endloop
  endfacet
  facet normal 0.95106 -0.309008 0
    outer loop
      vertex 7.62709 -6.61347 1.50015
      vertex 7.75629 -6.21582 -2.00005
      vertex 7.75629 -6.21582 1.50015
    endloop
  endfacet
  facet normal 0.95106 -0.309008 0
    outer loop
      vertex 7.75629 -6.21582 -2.00005
      vertex 7.62709 -6.61347 1.50015
      vertex 7.62709 -6.61347 -2.00005
    endloop
  endfacet
  facet normal -0.95106 0.309008 0
    outer loop
      vertex -7.75629 6.21582 -2.00005
      vertex -7.62709 6.61347 1.50015
      vertex -7.62709 6.61347 -2.00005
    endloop
  endfacet
  facet normal -0.95106 0.309008 0
    outer loop
      vertex -7.62709 6.61347 1.50015
      vertex -7.75629 6.21582 -2.00005
      vertex -7.75629 6.21582 1.50015
    endloop
  endfacet
  facet normal -0.587785 0.809017 0
    outer loop
      vertex -6.8 7.53205 -2.00005
      vertex -7.13826 7.28629 1.50015
      vertex -6.8 7.53205 1.50015
    endloop
  endfacet
  facet normal -0.587785 0.809017 0
    outer loop
      vertex -7.13826 7.28629 1.50015
      vertex -6.8 7.53205 -2.00005
      vertex -7.13826 7.28629 -2.00005
    endloop
  endfacet
  facet normal 0.994521 0.104542 0
    outer loop
      vertex 7.8 5.8 1.50015
      vertex 7.75629 6.21582 -2.00005
      vertex 7.75629 6.21582 1.50015
    endloop
  endfacet
  facet normal 0.994521 0.104542 0
    outer loop
      vertex 7.75629 6.21582 -2.00005
      vertex 7.8 5.8 1.50015
      vertex 7.8 5.8 -2.00005
    endloop
  endfacet
  facet normal -0.743149 0.669126 0
    outer loop
      vertex -7.41803 6.97557 -2.00005
      vertex -7.13826 7.28629 1.50015
      vertex -7.13826 7.28629 -2.00005
    endloop
  endfacet
  facet normal -0.743149 0.669126 0
    outer loop
      vertex -7.13826 7.28629 1.50015
      vertex -7.41803 6.97557 -2.00005
      vertex -7.41803 6.97557 1.50015
    endloop
  endfacet
  facet normal -0.207913 0.978147 0
    outer loop
      vertex -6.00906 7.78904 -2.00005
      vertex -6.41803 7.70211 1.50015
      vertex -6.00906 7.78904 1.50015
    endloop
  endfacet
  facet normal -0.207913 0.978147 0
    outer loop
      vertex -6.41803 7.70211 1.50015
      vertex -6.00906 7.78904 -2.00005
      vertex -6.41803 7.70211 -2.00005
    endloop
  endfacet
  facet normal -0.866024 -0.500003 0
    outer loop
      vertex -7.41803 -6.97557 -2.00005
      vertex -7.62709 -6.61347 1.50015
      vertex -7.62709 -6.61347 -2.00005
    endloop
  endfacet
  facet normal -0.866024 -0.500003 0
    outer loop
      vertex -7.62709 -6.61347 1.50015
      vertex -7.41803 -6.97557 -2.00005
      vertex -7.41803 -6.97557 1.50015
    endloop
  endfacet
  facet normal -0.994521 0.104542 0
    outer loop
      vertex -7.8 5.8 -2.00005
      vertex -7.75629 6.21582 1.50015
      vertex -7.75629 6.21582 -2.00005
    endloop
  endfacet
  facet normal -0.994521 0.104542 0
    outer loop
      vertex -7.75629 6.21582 1.50015
      vertex -7.8 5.8 -2.00005
      vertex -7.8 5.8 1.50015
    endloop
  endfacet
  facet normal -0.743149 -0.669126 0
    outer loop
      vertex -7.13826 -7.28629 -2.00005
      vertex -7.41803 -6.97557 1.50015
      vertex -7.41803 -6.97557 -2.00005
    endloop
  endfacet
  facet normal -0.743149 -0.669126 0
    outer loop
      vertex -7.41803 -6.97557 1.50015
      vertex -7.13826 -7.28629 -2.00005
      vertex -7.13826 -7.28629 1.50015
    endloop
  endfacet
  facet normal 0.406729 -0.913549 0
    outer loop
      vertex 6.41803 -7.70211 -2.00005
      vertex 6.8 -7.53205 1.50015
      vertex 6.41803 -7.70211 1.50015
    endloop
  endfacet
  facet normal 0.406729 -0.913549 0
    outer loop
      vertex 6.8 -7.53205 1.50015
      vertex 6.41803 -7.70211 -2.00005
      vertex 6.8 -7.53205 -2.00005
    endloop
  endfacet
  facet normal 0.207913 0.978147 -0
    outer loop
      vertex 6.41803 7.70211 -2.00005
      vertex 6.00906 7.78904 1.50015
      vertex 6.41803 7.70211 1.50015
    endloop
  endfacet
  facet normal 0.207913 0.978147 0
    outer loop
      vertex 6.00906 7.78904 1.50015
      vertex 6.41803 7.70211 -2.00005
      vertex 6.00906 7.78904 -2.00005
    endloop
  endfacet
  facet normal 0.587785 0.809017 -0
    outer loop
      vertex 7.13826 7.28629 -2.00005
      vertex 6.8 7.53205 1.50015
      vertex 7.13826 7.28629 1.50015
    endloop
  endfacet
  facet normal 0.587785 0.809017 0
    outer loop
      vertex 6.8 7.53205 1.50015
      vertex 7.13826 7.28629 -2.00005
      vertex 6.8 7.53205 -2.00005
    endloop
  endfacet
  facet normal 0.587785 -0.809017 0
    outer loop
      vertex 6.8 -7.53205 -2.00005
      vertex 7.13826 -7.28629 1.50015
      vertex 6.8 -7.53205 1.50015
    endloop
  endfacet
  facet normal 0.587785 -0.809017 0
    outer loop
      vertex 7.13826 -7.28629 1.50015
      vertex 6.8 -7.53205 -2.00005
      vertex 7.13826 -7.28629 -2.00005
    endloop
  endfacet
  facet normal 0.866024 -0.500003 0
    outer loop
      vertex 7.41803 -6.97557 1.50015
      vertex 7.62709 -6.61347 -2.00005
      vertex 7.62709 -6.61347 1.50015
    endloop
  endfacet
  facet normal 0.866024 -0.500003 0
    outer loop
      vertex 7.62709 -6.61347 -2.00005
      vertex 7.41803 -6.97557 1.50015
      vertex 7.41803 -6.97557 -2.00005
    endloop
  endfacet
  facet normal -0.207913 -0.978147 0
    outer loop
      vertex -6.41803 -7.70211 -2.00005
      vertex -6.00906 -7.78904 1.50015
      vertex -6.41803 -7.70211 1.50015
    endloop
  endfacet
  facet normal -0.207913 -0.978147 -0
    outer loop
      vertex -6.00906 -7.78904 1.50015
      vertex -6.41803 -7.70211 -2.00005
      vertex -6.00906 -7.78904 -2.00005
    endloop
  endfacet
  facet normal 0 0 -1
    outer loop
      vertex 7.8 -5.8 -2.00005
      vertex 6.75629 -5.21582 -2.00005
      vertex 6.8 -4.8 -2.00005
    endloop
  endfacet
  facet normal 0 0 -1
    outer loop
      vertex 7.13826 -7.28629 -2.00005
      vertex 6.62709 -5.61347 -2.00005
      vertex 6.75629 -5.21582 -2.00005
    endloop
  endfacet
  facet normal 0 0 -1
    outer loop
      vertex 5.8 -6.53205 -2.00005
      vertex 6.8 -7.53205 -2.00005
      vertex 6.41803 -7.70211 -2.00005
    endloop
  endfacet
  facet normal 0 0 -1
    outer loop
      vertex 7.13826 -7.28629 -2.00005
      vertex 6.41803 -5.97557 -2.00005
      vertex 6.62709 -5.61347 -2.00005
    endloop
  endfacet
  facet normal 0 0 -1
    outer loop
      vertex 7.13826 -7.28629 -2.00005
      vertex 6.13826 -6.28629 -2.00005
      vertex 6.41803 -5.97557 -2.00005
    endloop
  endfacet
  facet normal 0 0 -1
    outer loop
      vertex 5.8 -6.53205 -2.00005
      vertex 6.41803 -7.70211 -2.00005
      vertex 6.00906 -7.78904 -2.00005
    endloop
  endfacet
  facet normal 0 0 -1
    outer loop
      vertex 6.8 -7.53205 -2.00005
      vertex 5.8 -6.53205 -2.00005
      vertex 6.13826 -6.28629 -2.00005
    endloop
  endfacet
  facet normal 0 0 -1
    outer loop
      vertex 6.00906 -7.78904 -2.00005
      vertex 5.41803 -6.70211 -2.00005
      vertex 5.8 -6.53205 -2.00005
    endloop
  endfacet
  facet normal 0 0 -1
    outer loop
      vertex 6.00906 -7.78904 -2.00005
      vertex 5.00906 -6.78904 -2.00005
      vertex 5.41803 -6.70211 -2.00005
    endloop
  endfacet
  facet normal 0 0 -1
    outer loop
      vertex 6.00906 -7.78904 -2.00005
      vertex -5.00906 -6.78904 -2.00005
      vertex 5.00906 -6.78904 -2.00005
    endloop
  endfacet
  facet normal 0 0 -1
    outer loop
      vertex -6.00906 -7.78904 -2.00005
      vertex -5.00906 -6.78904 -2.00005
      vertex 6.00906 -7.78904 -2.00005
    endloop
  endfacet
  facet normal 0 0 -1
    outer loop
      vertex -6.00906 -7.78904 -2.00005
      vertex -5.41803 -6.70211 -2.00005
      vertex -5.00906 -6.78904 -2.00005
    endloop
  endfacet
  facet normal 0 0 -1
    outer loop
      vertex -6.00906 -7.78904 -2.00005
      vertex -5.8 -6.53205 -2.00005
      vertex -5.41803 -6.70211 -2.00005
    endloop
  endfacet
  facet normal 0 0 -1
    outer loop
      vertex -6.41803 -7.70211 -2.00005
      vertex -5.8 -6.53205 -2.00005
      vertex -6.00906 -7.78904 -2.00005
    endloop
  endfacet
  facet normal 0 0 -1
    outer loop
      vertex -6.8 -7.53205 -2.00005
      vertex -5.8 -6.53205 -2.00005
      vertex -6.41803 -7.70211 -2.00005
    endloop
  endfacet
  facet normal -0 0 -1
    outer loop
      vertex -5.8 -6.53205 -2.00005
      vertex -6.8 -7.53205 -2.00005
      vertex -6.13826 -6.28629 -2.00005
    endloop
  endfacet
  facet normal 0 0 -1
    outer loop
      vertex -7.13826 -7.28629 -2.00005
      vertex -6.13826 -6.28629 -2.00005
      vertex -6.8 -7.53205 -2.00005
    endloop
  endfacet
  facet normal 0 0 -1
    outer loop
      vertex -7.41803 -6.97557 -2.00005
      vertex -6.13826 -6.28629 -2.00005
      vertex -7.13826 -7.28629 -2.00005
    endloop
  endfacet
  facet normal -0 0 -1
    outer loop
      vertex -6.13826 -6.28629 -2.00005
      vertex -7.41803 -6.97557 -2.00005
      vertex -6.41803 -5.97557 -2.00005
    endloop
  endfacet
  facet normal 0 0 -1
    outer loop
      vertex -7.62709 -6.61347 -2.00005
      vertex -6.41803 -5.97557 -2.00005
      vertex -7.41803 -6.97557 -2.00005
    endloop
  endfacet
  facet normal 0 0 -1
    outer loop
      vertex -7.75629 -6.21582 -2.00005
      vertex -6.41803 -5.97557 -2.00005
      vertex -7.62709 -6.61347 -2.00005
    endloop
  endfacet
  facet normal -0 0 -1
    outer loop
      vertex -6.8 -4.8 -2.00005
      vertex -7.8 -5.8 -2.00005
      vertex -6.8 4.8 -2.00005
    endloop
  endfacet
  facet normal -0 0 -1
    outer loop
      vertex -6.41803 -5.97557 -2.00005
      vertex -7.75629 -6.21582 -2.00005
      vertex -6.62709 -5.61347 -2.00005
    endloop
  endfacet
  facet normal 0 0 -1
    outer loop
      vertex -7.8 5.8 -2.00005
      vertex -6.8 4.8 -2.00005
      vertex -7.8 -5.8 -2.00005
    endloop
  endfacet
  facet normal 0 0 -1
    outer loop
      vertex -7.8 -5.8 -2.00005
      vertex -6.62709 -5.61347 -2.00005
      vertex -7.75629 -6.21582 -2.00005
    endloop
  endfacet
  facet normal 0 -0 -1
    outer loop
      vertex -7.75629 6.21582 -2.00005
      vertex -6.8 4.8 -2.00005
      vertex -7.8 5.8 -2.00005
    endloop
  endfacet
  facet normal -0 0 -1
    outer loop
      vertex -6.62709 -5.61347 -2.00005
      vertex -7.8 -5.8 -2.00005
      vertex -6.75629 -5.21582 -2.00005
    endloop
  endfacet
  facet normal 0 0 -1
    outer loop
      vertex -6.8 4.8 -2.00005
      vertex -7.13826 7.28629 -2.00005
      vertex -6.8 7.53205 -2.00005
    endloop
  endfacet
  facet normal -0 0 -1
    outer loop
      vertex -6.75629 -5.21582 -2.00005
      vertex -7.8 -5.8 -2.00005
      vertex -6.8 -4.8 -2.00005
    endloop
  endfacet
  facet normal 0 0 -1
    outer loop
      vertex -6.8 4.8 -2.00005
      vertex -7.41803 6.97557 -2.00005
      vertex -7.13826 7.28629 -2.00005
    endloop
  endfacet
  facet normal 0 0 -1
    outer loop
      vertex -6.8 4.8 -2.00005
      vertex -7.62709 6.61347 -2.00005
      vertex -7.41803 6.97557 -2.00005
    endloop
  endfacet
  facet normal 0 0 -1
    outer loop
      vertex -6.8 4.8 -2.00005
      vertex -7.75629 6.21582 -2.00005
      vertex -7.62709 6.61347 -2.00005
    endloop
  endfacet
  facet normal 0 0 -1
    outer loop
      vertex 6.75629 -5.21582 -2.00005
      vertex 7.8 -5.8 -2.00005
      vertex 7.75629 -6.21582 -2.00005
    endloop
  endfacet
  facet normal 0 0 -1
    outer loop
      vertex 7.8 -5.8 -2.00005
      vertex 6.8 -4.8 -2.00005
      vertex 7.8 5.8 -2.00005
    endloop
  endfacet
  facet normal 0 0 -1
    outer loop
      vertex 6.75629 -5.21582 -2.00005
      vertex 7.75629 -6.21582 -2.00005
      vertex 7.62709 -6.61347 -2.00005
    endloop
  endfacet
  facet normal 0 0 -1
    outer loop
      vertex 6.8 4.8 -2.00005
      vertex 7.8 5.8 -2.00005
      vertex 6.8 -4.8 -2.00005
    endloop
  endfacet
  facet normal 0 0 -1
    outer loop
      vertex 6.75629 -5.21582 -2.00005
      vertex 7.62709 -6.61347 -2.00005
      vertex 7.41803 -6.97557 -2.00005
    endloop
  endfacet
  facet normal 0 0 -1
    outer loop
      vertex 6.75629 5.21582 -2.00005
      vertex 7.8 5.8 -2.00005
      vertex 6.8 4.8 -2.00005
    endloop
  endfacet
  facet normal 0 0 -1
    outer loop
      vertex 6.75629 -5.21582 -2.00005
      vertex 7.41803 -6.97557 -2.00005
      vertex 7.13826 -7.28629 -2.00005
    endloop
  endfacet
  facet normal 0 0 -1
    outer loop
      vertex 6.62709 5.61347 -2.00005
      vertex 7.8 5.8 -2.00005
      vertex 6.75629 5.21582 -2.00005
    endloop
  endfacet
  facet normal 0 0 -1
    outer loop
      vertex 6.13826 -6.28629 -2.00005
      vertex 7.13826 -7.28629 -2.00005
      vertex 6.8 -7.53205 -2.00005
    endloop
  endfacet
  facet normal -0 0 -1
    outer loop
      vertex 7.8 5.8 -2.00005
      vertex 6.62709 5.61347 -2.00005
      vertex 7.75629 6.21582 -2.00005
    endloop
  endfacet
  facet normal 0 0 -1
    outer loop
      vertex 6.41803 5.97557 -2.00005
      vertex 7.75629 6.21582 -2.00005
      vertex 6.62709 5.61347 -2.00005
    endloop
  endfacet
  facet normal -0 0 -1
    outer loop
      vertex 7.75629 6.21582 -2.00005
      vertex 6.41803 5.97557 -2.00005
      vertex 7.62709 6.61347 -2.00005
    endloop
  endfacet
  facet normal -0 0 -1
    outer loop
      vertex 7.62709 6.61347 -2.00005
      vertex 6.41803 5.97557 -2.00005
      vertex 7.41803 6.97557 -2.00005
    endloop
  endfacet
  facet normal 0 0 -1
    outer loop
      vertex 6.13826 6.28629 -2.00005
      vertex 7.41803 6.97557 -2.00005
      vertex 6.41803 5.97557 -2.00005
    endloop
  endfacet
  facet normal -0 0 -1
    outer loop
      vertex 7.41803 6.97557 -2.00005
      vertex 6.13826 6.28629 -2.00005
      vertex 7.13826 7.28629 -2.00005
    endloop
  endfacet
  facet normal -0 0 -1
    outer loop
      vertex 7.13826 7.28629 -2.00005
      vertex 6.13826 6.28629 -2.00005
      vertex 6.8 7.53205 -2.00005
    endloop
  endfacet
  facet normal 0 0 -1
    outer loop
      vertex 5.8 6.53205 -2.00005
      vertex 6.8 7.53205 -2.00005
      vertex 6.13826 6.28629 -2.00005
    endloop
  endfacet
  facet normal -0 0 -1
    outer loop
      vertex 6.8 7.53205 -2.00005
      vertex 5.8 6.53205 -2.00005
      vertex 6.41803 7.70211 -2.00005
    endloop
  endfacet
  facet normal -0 0 -1
    outer loop
      vertex 6.41803 7.70211 -2.00005
      vertex 5.8 6.53205 -2.00005
      vertex 6.00906 7.78904 -2.00005
    endloop
  endfacet
  facet normal 0 0 -1
    outer loop
      vertex 5.41803 6.70211 -2.00005
      vertex 6.00906 7.78904 -2.00005
      vertex 5.8 6.53205 -2.00005
    endloop
  endfacet
  facet normal 0 0 -1
    outer loop
      vertex 5.00906 6.78904 -2.00005
      vertex 6.00906 7.78904 -2.00005
      vertex 5.41803 6.70211 -2.00005
    endloop
  endfacet
  facet normal 0 0 -1
    outer loop
      vertex -5.00906 6.78904 -2.00005
      vertex 6.00906 7.78904 -2.00005
      vertex 5.00906 6.78904 -2.00005
    endloop
  endfacet
  facet normal 0 0 -1
    outer loop
      vertex -5.00906 6.78904 -2.00005
      vertex -6.00906 7.78904 -2.00005
      vertex 6.00906 7.78904 -2.00005
    endloop
  endfacet
  facet normal 0 0 -1
    outer loop
      vertex -5.41803 6.70211 -2.00005
      vertex -6.00906 7.78904 -2.00005
      vertex -5.00906 6.78904 -2.00005
    endloop
  endfacet
  facet normal 0 0 -1
    outer loop
      vertex -5.8 6.53205 -2.00005
      vertex -6.00906 7.78904 -2.00005
      vertex -5.41803 6.70211 -2.00005
    endloop
  endfacet
  facet normal 0 0 -1
    outer loop
      vertex -6.8 7.53205 -2.00005
      vertex -5.8 6.53205 -2.00005
      vertex -6.13826 6.28629 -2.00005
    endloop
  endfacet
  facet normal 0 0 -1
    outer loop
      vertex -6.8 7.53205 -2.00005
      vertex -6.13826 6.28629 -2.00005
      vertex -6.41803 5.97557 -2.00005
    endloop
  endfacet
  facet normal 0 0 -1
    outer loop
      vertex -5.8 6.53205 -2.00005
      vertex -6.41803 7.70211 -2.00005
      vertex -6.00906 7.78904 -2.00005
    endloop
  endfacet
  facet normal 0 0 -1
    outer loop
      vertex -6.8 7.53205 -2.00005
      vertex -6.41803 5.97557 -2.00005
      vertex -6.62709 5.61347 -2.00005
    endloop
  endfacet
  facet normal 0 0 -1
    outer loop
      vertex -6.8 7.53205 -2.00005
      vertex -6.62709 5.61347 -2.00005
      vertex -6.75629 5.21582 -2.00005
    endloop
  endfacet
  facet normal 0 0 -1
    outer loop
      vertex -5.8 6.53205 -2.00005
      vertex -6.8 7.53205 -2.00005
      vertex -6.41803 7.70211 -2.00005
    endloop
  endfacet
  facet normal 0 0 -1
    outer loop
      vertex -6.8 7.53205 -2.00005
      vertex -6.75629 5.21582 -2.00005
      vertex -6.8 4.8 -2.00005
    endloop
  endfacet
  facet normal -0.994521 -0.104542 0
    outer loop
      vertex -7.75629 -6.21582 -2.00005
      vertex -7.8 -5.8 1.50015
      vertex -7.8 -5.8 -2.00005
    endloop
  endfacet
  facet normal -0.994521 -0.104542 0
    outer loop
      vertex -7.8 -5.8 1.50015
      vertex -7.75629 -6.21582 -2.00005
      vertex -7.75629 -6.21582 1.50015
    endloop
  endfacet
  facet normal 1 -0 0
    outer loop
      vertex 7.8 -5.8 1.50015
      vertex 7.8 5.8 -2.00005
      vertex 7.8 5.8 1.50015
    endloop
  endfacet
  facet normal 1 0 0
    outer loop
      vertex 7.8 5.8 -2.00005
      vertex 7.8 -5.8 1.50015
      vertex 7.8 -5.8 -2.00005
    endloop
  endfacet
  facet normal 0.207913 -0.978147 0
    outer loop
      vertex 6.00906 -7.78904 -2.00005
      vertex 6.41803 -7.70211 1.50015
      vertex 6.00906 -7.78904 1.50015
    endloop
  endfacet
  facet normal 0.207913 -0.978147 0
    outer loop
      vertex 6.41803 -7.70211 1.50015
      vertex 6.00906 -7.78904 -2.00005
      vertex 6.41803 -7.70211 -2.00005
    endloop
  endfacet
  facet normal 0.743149 0.669126 0
    outer loop
      vertex 7.41803 6.97557 1.50015
      vertex 7.13826 7.28629 -2.00005
      vertex 7.13826 7.28629 1.50015
    endloop
  endfacet
  facet normal 0.743149 0.669126 0
    outer loop
      vertex 7.13826 7.28629 -2.00005
      vertex 7.41803 6.97557 1.50015
      vertex 7.41803 6.97557 -2.00005
    endloop
  endfacet
  facet normal 0.406729 0.913549 -0
    outer loop
      vertex 6.8 7.53205 -2.00005
      vertex 6.41803 7.70211 1.50015
      vertex 6.8 7.53205 1.50015
    endloop
  endfacet
  facet normal 0.406729 0.913549 0
    outer loop
      vertex 6.41803 7.70211 1.50015
      vertex 6.8 7.53205 -2.00005
      vertex 6.41803 7.70211 -2.00005
    endloop
  endfacet
  facet normal 0.994521 -0.104542 0
    outer loop
      vertex 7.75629 -6.21582 1.50015
      vertex 7.8 -5.8 -2.00005
      vertex 7.8 -5.8 1.50015
    endloop
  endfacet
  facet normal 0.994521 -0.104542 0
    outer loop
      vertex 7.8 -5.8 -2.00005
      vertex 7.75629 -6.21582 1.50015
      vertex 7.75629 -6.21582 -2.00005
    endloop
  endfacet
  facet normal 0.866024 0.500003 0
    outer loop
      vertex 7.62709 6.61347 1.50015
      vertex 7.41803 6.97557 -2.00005
      vertex 7.41803 6.97557 1.50015
    endloop
  endfacet
  facet normal 0.866024 0.500003 0
    outer loop
      vertex 7.41803 6.97557 -2.00005
      vertex 7.62709 6.61347 1.50015
      vertex 7.62709 6.61347 -2.00005
    endloop
  endfacet
  facet normal -0.587785 -0.809017 0
    outer loop
      vertex -7.13826 -7.28629 -2.00005
      vertex -6.8 -7.53205 1.50015
      vertex -7.13826 -7.28629 1.50015
    endloop
  endfacet
  facet normal -0.587785 -0.809017 -0
    outer loop
      vertex -6.8 -7.53205 1.50015
      vertex -7.13826 -7.28629 -2.00005
      vertex -6.8 -7.53205 -2.00005
    endloop
  endfacet
  facet normal 0.95106 0.309008 0
    outer loop
      vertex 7.75629 6.21582 1.50015
      vertex 7.62709 6.61347 -2.00005
      vertex 7.62709 6.61347 1.50015
    endloop
  endfacet
  facet normal 0.95106 0.309008 0
    outer loop
      vertex 7.62709 6.61347 -2.00005
      vertex 7.75629 6.21582 1.50015
      vertex 7.75629 6.21582 -2.00005
    endloop
  endfacet
  facet normal -0.866024 0.500003 0
    outer loop
      vertex 6.41803 -5.97557 -2.00005
      vertex 6.62709 -5.61347 0.000148773
      vertex 6.62709 -5.61347 -2.00005
    endloop
  endfacet
  facet normal -0.866024 0.500003 0
    outer loop
      vertex 6.62709 -5.61347 0.000148773
      vertex 6.41803 -5.97557 -2.00005
      vertex 6.41803 -5.97557 0.000148773
    endloop
  endfacet
  facet normal -0.587785 0.809017 0
    outer loop
      vertex 6.13826 -6.28629 -2.00005
      vertex 5.8 -6.53205 0.000148773
      vertex 6.13826 -6.28629 0.000148773
    endloop
  endfacet
  facet normal -0.587785 0.809017 0
    outer loop
      vertex 5.8 -6.53205 0.000148773
      vertex 6.13826 -6.28629 -2.00005
      vertex 5.8 -6.53205 -2.00005
    endloop
  endfacet
  facet normal 0 -1 0
    outer loop
      vertex -5.00906 6.78904 -2.00005
      vertex 5.00906 6.78904 0.000148773
      vertex -5.00906 6.78904 0.000148773
    endloop
  endfacet
  facet normal 0 -1 -0
    outer loop
      vertex 5.00906 6.78904 0.000148773
      vertex -5.00906 6.78904 -2.00005
      vertex 5.00906 6.78904 -2.00005
    endloop
  endfacet
  facet normal -0.95106 0.309008 0
    outer loop
      vertex 6.62709 -5.61347 -2.00005
      vertex 6.75629 -5.21582 0.000148773
      vertex 6.75629 -5.21582 -2.00005
    endloop
  endfacet
  facet normal -0.95106 0.309008 0
    outer loop
      vertex 6.75629 -5.21582 0.000148773
      vertex 6.62709 -5.61347 -2.00005
      vertex 6.62709 -5.61347 0.000148773
    endloop
  endfacet
  facet normal 0.207913 0.978147 -0
    outer loop
      vertex -5.00906 -6.78904 -2.00005
      vertex -5.41803 -6.70211 0.000148773
      vertex -5.00906 -6.78904 0.000148773
    endloop
  endfacet
  facet normal 0.207913 0.978147 0
    outer loop
      vertex -5.41803 -6.70211 0.000148773
      vertex -5.00906 -6.78904 -2.00005
      vertex -5.41803 -6.70211 -2.00005
    endloop
  endfacet
  facet normal 0.743149 -0.669126 0
    outer loop
      vertex -6.41803 5.97557 0.000148773
      vertex -6.13826 6.28629 -2.00005
      vertex -6.13826 6.28629 0.000148773
    endloop
  endfacet
  facet normal 0.743149 -0.669126 0
    outer loop
      vertex -6.13826 6.28629 -2.00005
      vertex -6.41803 5.97557 0.000148773
      vertex -6.41803 5.97557 -2.00005
    endloop
  endfacet
  facet normal -0.207913 -0.978147 0
    outer loop
      vertex 5.00906 6.78904 -2.00005
      vertex 5.41803 6.70211 0.000148773
      vertex 5.00906 6.78904 0.000148773
    endloop
  endfacet
  facet normal -0.207913 -0.978147 -0
    outer loop
      vertex 5.41803 6.70211 0.000148773
      vertex 5.00906 6.78904 -2.00005
      vertex 5.41803 6.70211 -2.00005
    endloop
  endfacet
  facet normal 1 -0 0
    outer loop
      vertex -6.8 -4.8 0.000148773
      vertex -6.8 4.8 -2.00005
      vertex -6.8 4.8 0.000148773
    endloop
  endfacet
  facet normal 1 0 0
    outer loop
      vertex -6.8 4.8 -2.00005
      vertex -6.8 -4.8 0.000148773
      vertex -6.8 -4.8 -2.00005
    endloop
  endfacet
  facet normal -0.587785 -0.809017 0
    outer loop
      vertex 5.8 6.53205 -2.00005
      vertex 6.13826 6.28629 0.000148773
      vertex 5.8 6.53205 0.000148773
    endloop
  endfacet
  facet normal -0.587785 -0.809017 -0
    outer loop
      vertex 6.13826 6.28629 0.000148773
      vertex 5.8 6.53205 -2.00005
      vertex 6.13826 6.28629 -2.00005
    endloop
  endfacet
  facet normal 0 1 -0
    outer loop
      vertex 5.00906 -6.78904 -2.00005
      vertex -5.00906 -6.78904 0.000148773
      vertex 5.00906 -6.78904 0.000148773
    endloop
  endfacet
  facet normal 0 1 0
    outer loop
      vertex -5.00906 -6.78904 0.000148773
      vertex 5.00906 -6.78904 -2.00005
      vertex -5.00906 -6.78904 -2.00005
    endloop
  endfacet
  facet normal -0.95106 -0.309008 0
    outer loop
      vertex 6.75629 5.21582 -2.00005
      vertex 6.62709 5.61347 0.000148773
      vertex 6.62709 5.61347 -2.00005
    endloop
  endfacet
  facet normal -0.95106 -0.309008 0
    outer loop
      vertex 6.62709 5.61347 0.000148773
      vertex 6.75629 5.21582 -2.00005
      vertex 6.75629 5.21582 0.000148773
    endloop
  endfacet
  facet normal -0.743149 0.669126 0
    outer loop
      vertex 6.13826 -6.28629 -2.00005
      vertex 6.41803 -5.97557 0.000148773
      vertex 6.41803 -5.97557 -2.00005
    endloop
  endfacet
  facet normal -0.743149 0.669126 0
    outer loop
      vertex 6.41803 -5.97557 0.000148773
      vertex 6.13826 -6.28629 -2.00005
      vertex 6.13826 -6.28629 0.000148773
    endloop
  endfacet
  facet normal -0.866024 -0.500003 0
    outer loop
      vertex 6.62709 5.61347 -2.00005
      vertex 6.41803 5.97557 0.000148773
      vertex 6.41803 5.97557 -2.00005
    endloop
  endfacet
  facet normal -0.866024 -0.500003 0
    outer loop
      vertex 6.41803 5.97557 0.000148773
      vertex 6.62709 5.61347 -2.00005
      vertex 6.62709 5.61347 0.000148773
    endloop
  endfacet
  facet normal 0.587785 0.809017 -0
    outer loop
      vertex -5.8 -6.53205 -2.00005
      vertex -6.13826 -6.28629 0.000148773
      vertex -5.8 -6.53205 0.000148773
    endloop
  endfacet
  facet normal 0.587785 0.809017 0
    outer loop
      vertex -6.13826 -6.28629 0.000148773
      vertex -5.8 -6.53205 -2.00005
      vertex -6.13826 -6.28629 -2.00005
    endloop
  endfacet
  facet normal 0.994521 0.104542 0
    outer loop
      vertex -6.75629 -5.21582 0.000148773
      vertex -6.8 -4.8 -2.00005
      vertex -6.8 -4.8 0.000148773
    endloop
  endfacet
  facet normal 0.994521 0.104542 0
    outer loop
      vertex -6.8 -4.8 -2.00005
      vertex -6.75629 -5.21582 0.000148773
      vertex -6.75629 -5.21582 -2.00005
    endloop
  endfacet
  facet normal 0.587785 -0.809017 0
    outer loop
      vertex -6.13826 6.28629 -2.00005
      vertex -5.8 6.53205 0.000148773
      vertex -6.13826 6.28629 0.000148773
    endloop
  endfacet
  facet normal 0.587785 -0.809017 0
    outer loop
      vertex -5.8 6.53205 0.000148773
      vertex -6.13826 6.28629 -2.00005
      vertex -5.8 6.53205 -2.00005
    endloop
  endfacet
  facet normal -1 0 0
    outer loop
      vertex 6.8 -4.8 -2.00005
      vertex 6.8 4.8 0.000148773
      vertex 6.8 4.8 -2.00005
    endloop
  endfacet
  facet normal -1 -0 0
    outer loop
      vertex 6.8 4.8 0.000148773
      vertex 6.8 -4.8 -2.00005
      vertex 6.8 -4.8 0.000148773
    endloop
  endfacet
  facet normal -0.994521 -0.104542 0
    outer loop
      vertex 6.8 4.8 -2.00005
      vertex 6.75629 5.21582 0.000148773
      vertex 6.75629 5.21582 -2.00005
    endloop
  endfacet
  facet normal -0.994521 -0.104542 0
    outer loop
      vertex 6.75629 5.21582 0.000148773
      vertex 6.8 4.8 -2.00005
      vertex 6.8 4.8 0.000148773
    endloop
  endfacet
  facet normal 0.406729 0.913549 -0
    outer loop
      vertex -5.41803 -6.70211 -2.00005
      vertex -5.8 -6.53205 0.000148773
      vertex -5.41803 -6.70211 0.000148773
    endloop
  endfacet
  facet normal 0.406729 0.913549 0
    outer loop
      vertex -5.8 -6.53205 0.000148773
      vertex -5.41803 -6.70211 -2.00005
      vertex -5.8 -6.53205 -2.00005
    endloop
  endfacet
  facet normal 0.866024 -0.500003 0
    outer loop
      vertex -6.62709 5.61347 0.000148773
      vertex -6.41803 5.97557 -2.00005
      vertex -6.41803 5.97557 0.000148773
    endloop
  endfacet
  facet normal 0.866024 -0.500003 0
    outer loop
      vertex -6.41803 5.97557 -2.00005
      vertex -6.62709 5.61347 0.000148773
      vertex -6.62709 5.61347 -2.00005
    endloop
  endfacet
  facet normal -0.207913 0.978147 0
    outer loop
      vertex 5.41803 -6.70211 -2.00005
      vertex 5.00906 -6.78904 0.000148773
      vertex 5.41803 -6.70211 0.000148773
    endloop
  endfacet
  facet normal -0.207913 0.978147 0
    outer loop
      vertex 5.00906 -6.78904 0.000148773
      vertex 5.41803 -6.70211 -2.00005
      vertex 5.00906 -6.78904 -2.00005
    endloop
  endfacet
  facet normal 0.95106 0.309008 0
    outer loop
      vertex -6.62709 -5.61347 0.000148773
      vertex -6.75629 -5.21582 -2.00005
      vertex -6.75629 -5.21582 0.000148773
    endloop
  endfacet
  facet normal 0.95106 0.309008 0
    outer loop
      vertex -6.75629 -5.21582 -2.00005
      vertex -6.62709 -5.61347 0.000148773
      vertex -6.62709 -5.61347 -2.00005
    endloop
  endfacet
  facet normal 0.994521 -0.104542 0
    outer loop
      vertex -6.8 4.8 0.000148773
      vertex -6.75629 5.21582 -2.00005
      vertex -6.75629 5.21582 0.000148773
    endloop
  endfacet
  facet normal 0.994521 -0.104542 0
    outer loop
      vertex -6.75629 5.21582 -2.00005
      vertex -6.8 4.8 0.000148773
      vertex -6.8 4.8 -2.00005
    endloop
  endfacet
  facet normal 0.207913 -0.978147 0
    outer loop
      vertex -5.41803 6.70211 -2.00005
      vertex -5.00906 6.78904 0.000148773
      vertex -5.41803 6.70211 0.000148773
    endloop
  endfacet
  facet normal 0.207913 -0.978147 0
    outer loop
      vertex -5.00906 6.78904 0.000148773
      vertex -5.41803 6.70211 -2.00005
      vertex -5.00906 6.78904 -2.00005
    endloop
  endfacet
  facet normal -0.994521 0.104542 0
    outer loop
      vertex 6.75629 -5.21582 -2.00005
      vertex 6.8 -4.8 0.000148773
      vertex 6.8 -4.8 -2.00005
    endloop
  endfacet
  facet normal -0.994521 0.104542 0
    outer loop
      vertex 6.8 -4.8 0.000148773
      vertex 6.75629 -5.21582 -2.00005
      vertex 6.75629 -5.21582 0.000148773
    endloop
  endfacet
  facet normal 0 0 -1
    outer loop
      vertex 5.00906 -6.78904 0.000148773
      vertex 6.8 -4.8 0.000148773
      vertex 6.75629 -5.21582 0.000148773
    endloop
  endfacet
  facet normal 0 0 -1
    outer loop
      vertex -6.8 -4.8 0.000148773
      vertex 6.8 -4.8 0.000148773
      vertex 5.00906 -6.78904 0.000148773
    endloop
  endfacet
  facet normal 0 0 -1
    outer loop
      vertex 5.00906 -6.78904 0.000148773
      vertex 6.75629 -5.21582 0.000148773
      vertex 6.62709 -5.61347 0.000148773
    endloop
  endfacet
  facet normal 0 0 -1
    outer loop
      vertex 6.8 -4.8 0.000148773
      vertex -6.8 -4.8 0.000148773
      vertex 6.8 4.8 0.000148773
    endloop
  endfacet
  facet normal 0 0 -1
    outer loop
      vertex 5.00906 -6.78904 0.000148773
      vertex 6.62709 -5.61347 0.000148773
      vertex 6.41803 -5.97557 0.000148773
    endloop
  endfacet
  facet normal 0 0 -1
    outer loop
      vertex 6.8 4.8 0.000148773
      vertex 5.00906 6.78904 0.000148773
      vertex 6.75629 5.21582 0.000148773
    endloop
  endfacet
  facet normal 0 0 -1
    outer loop
      vertex 5.00906 -6.78904 0.000148773
      vertex 6.41803 -5.97557 0.000148773
      vertex 6.13826 -6.28629 0.000148773
    endloop
  endfacet
  facet normal 0 0 -1
    outer loop
      vertex 6.75629 5.21582 0.000148773
      vertex 5.00906 6.78904 0.000148773
      vertex 6.62709 5.61347 0.000148773
    endloop
  endfacet
  facet normal 0 0 -1
    outer loop
      vertex 5.00906 -6.78904 0.000148773
      vertex 6.13826 -6.28629 0.000148773
      vertex 5.8 -6.53205 0.000148773
    endloop
  endfacet
  facet normal 0 0 -1
    outer loop
      vertex 6.62709 5.61347 0.000148773
      vertex 5.00906 6.78904 0.000148773
      vertex 6.41803 5.97557 0.000148773
    endloop
  endfacet
  facet normal 0 0 -1
    outer loop
      vertex 5.00906 -6.78904 0.000148773
      vertex 5.8 -6.53205 0.000148773
      vertex 5.41803 -6.70211 0.000148773
    endloop
  endfacet
  facet normal 0 0 -1
    outer loop
      vertex 6.41803 5.97557 0.000148773
      vertex 5.00906 6.78904 0.000148773
      vertex 6.13826 6.28629 0.000148773
    endloop
  endfacet
  facet normal 0 0 -1
    outer loop
      vertex 6.13826 6.28629 0.000148773
      vertex 5.00906 6.78904 0.000148773
      vertex 5.8 6.53205 0.000148773
    endloop
  endfacet
  facet normal 0 0 -1
    outer loop
      vertex 5.8 6.53205 0.000148773
      vertex 5.00906 6.78904 0.000148773
      vertex 5.41803 6.70211 0.000148773
    endloop
  endfacet
  facet normal 0 0 -1
    outer loop
      vertex -6.8 -4.8 0.000148773
      vertex 5.00906 -6.78904 0.000148773
      vertex -5.00906 -6.78904 0.000148773
    endloop
  endfacet
  facet normal 0 0 -1
    outer loop
      vertex -6.8 4.8 0.000148773
      vertex 6.8 4.8 0.000148773
      vertex -6.8 -4.8 0.000148773
    endloop
  endfacet
  facet normal 0 0 -1
    outer loop
      vertex -6.8 -4.8 0.000148773
      vertex -5.00906 -6.78904 0.000148773
      vertex -5.41803 -6.70211 0.000148773
    endloop
  endfacet
  facet normal 0 0 -1
    outer loop
      vertex 6.8 4.8 0.000148773
      vertex -6.8 4.8 0.000148773
      vertex 5.00906 6.78904 0.000148773
    endloop
  endfacet
  facet normal 0 0 -1
    outer loop
      vertex -6.8 -4.8 0.000148773
      vertex -5.41803 -6.70211 0.000148773
      vertex -5.8 -6.53205 0.000148773
    endloop
  endfacet
  facet normal -0 0 -1
    outer loop
      vertex 5.00906 6.78904 0.000148773
      vertex -6.8 4.8 0.000148773
      vertex -5.00906 6.78904 0.000148773
    endloop
  endfacet
  facet normal 0 0 -1
    outer loop
      vertex -6.8 -4.8 0.000148773
      vertex -5.8 -6.53205 0.000148773
      vertex -6.13826 -6.28629 0.000148773
    endloop
  endfacet
  facet normal 0 0 -1
    outer loop
      vertex -5.00906 6.78904 0.000148773
      vertex -6.8 4.8 0.000148773
      vertex -5.41803 6.70211 0.000148773
    endloop
  endfacet
  facet normal 0 0 -1
    outer loop
      vertex -6.8 -4.8 0.000148773
      vertex -6.13826 -6.28629 0.000148773
      vertex -6.41803 -5.97557 0.000148773
    endloop
  endfacet
  facet normal 0 0 -1
    outer loop
      vertex -5.41803 6.70211 0.000148773
      vertex -6.8 4.8 0.000148773
      vertex -5.8 6.53205 0.000148773
    endloop
  endfacet
  facet normal 0 0 -1
    outer loop
      vertex -6.8 -4.8 0.000148773
      vertex -6.41803 -5.97557 0.000148773
      vertex -6.62709 -5.61347 0.000148773
    endloop
  endfacet
  facet normal 0 0 -1
    outer loop
      vertex -5.8 6.53205 0.000148773
      vertex -6.8 4.8 0.000148773
      vertex -6.13826 6.28629 0.000148773
    endloop
  endfacet
  facet normal 0 0 -1
    outer loop
      vertex -6.8 -4.8 0.000148773
      vertex -6.62709 -5.61347 0.000148773
      vertex -6.75629 -5.21582 0.000148773
    endloop
  endfacet
  facet normal 0 0 -1
    outer loop
      vertex -6.13826 6.28629 0.000148773
      vertex -6.8 4.8 0.000148773
      vertex -6.41803 5.97557 0.000148773
    endloop
  endfacet
  facet normal 0 0 -1
    outer loop
      vertex -6.41803 5.97557 0.000148773
      vertex -6.8 4.8 0.000148773
      vertex -6.62709 5.61347 0.000148773
    endloop
  endfacet
  facet normal 0 0 -1
    outer loop
      vertex -6.62709 5.61347 0.000148773
      vertex -6.8 4.8 0.000148773
      vertex -6.75629 5.21582 0.000148773
    endloop
  endfacet
  facet normal -0.406729 0.913549 0
    outer loop
      vertex 5.8 -6.53205 -2.00005
      vertex 5.41803 -6.70211 0.000148773
      vertex 5.8 -6.53205 0.000148773
    endloop
  endfacet
  facet normal -0.406729 0.913549 0
    outer loop
      vertex 5.41803 -6.70211 0.000148773
      vertex 5.8 -6.53205 -2.00005
      vertex 5.41803 -6.70211 -2.00005
    endloop
  endfacet
  facet normal 0.866024 0.500003 0
    outer loop
      vertex -6.41803 -5.97557 0.000148773
      vertex -6.62709 -5.61347 -2.00005
      vertex -6.62709 -5.61347 0.000148773
    endloop
  endfacet
  facet normal 0.866024 0.500003 0
    outer loop
      vertex -6.62709 -5.61347 -2.00005
      vertex -6.41803 -5.97557 0.000148773
      vertex -6.41803 -5.97557 -2.00005
    endloop
  endfacet
  facet normal 0.743149 0.669126 0
    outer loop
      vertex -6.13826 -6.28629 0.000148773
      vertex -6.41803 -5.97557 -2.00005
      vertex -6.41803 -5.97557 0.000148773
    endloop
  endfacet
  facet normal 0.743149 0.669126 0
    outer loop
      vertex -6.41803 -5.97557 -2.00005
      vertex -6.13826 -6.28629 0.000148773
      vertex -6.13826 -6.28629 -2.00005
    endloop
  endfacet
  facet normal 0.95106 -0.309008 0
    outer loop
      vertex -6.75629 5.21582 0.000148773
      vertex -6.62709 5.61347 -2.00005
      vertex -6.62709 5.61347 0.000148773
    endloop
  endfacet
  facet normal 0.95106 -0.309008 0
    outer loop
      vertex -6.62709 5.61347 -2.00005
      vertex -6.75629 5.21582 0.000148773
      vertex -6.75629 5.21582 -2.00005
    endloop
  endfacet
  facet normal -0.406729 -0.913549 0
    outer loop
      vertex 5.41803 6.70211 -2.00005
      vertex 5.8 6.53205 0.000148773
      vertex 5.41803 6.70211 0.000148773
    endloop
  endfacet
  facet normal -0.406729 -0.913549 -0
    outer loop
      vertex 5.8 6.53205 0.000148773
      vertex 5.41803 6.70211 -2.00005
      vertex 5.8 6.53205 -2.00005
    endloop
  endfacet
  facet normal 0.406729 -0.913549 0
    outer loop
      vertex -5.8 6.53205 -2.00005
      vertex -5.41803 6.70211 0.000148773
      vertex -5.8 6.53205 0.000148773
    endloop
  endfacet
  facet normal 0.406729 -0.913549 0
    outer loop
      vertex -5.41803 6.70211 0.000148773
      vertex -5.8 6.53205 -2.00005
      vertex -5.41803 6.70211 -2.00005
    endloop
  endfacet
  facet normal -0.743149 -0.669126 0
    outer loop
      vertex 6.41803 5.97557 -2.00005
      vertex 6.13826 6.28629 0.000148773
      vertex 6.13826 6.28629 -2.00005
    endloop
  endfacet
  facet normal -0.743149 -0.669126 0
    outer loop
      vertex 6.13826 6.28629 0.000148773
      vertex 6.41803 5.97557 -2.00005
      vertex 6.41803 5.97557 0.000148773
    endloop
  endfacet
  facet normal 0 -1 0
    outer loop
      vertex -3.35 -1 -3.6
      vertex -2.35 -1 0
      vertex -3.35 -1 0
    endloop
  endfacet
  facet normal 0 -1 -0
    outer loop
      vertex -2.35 -1 0
      vertex -3.35 -1 -3.6
      vertex -2.35 -1 -3.6
    endloop
  endfacet
  facet normal -0.923191 0 -0.384342
    outer loop
      vertex -3.1 -0.5 -4.2005
      vertex -3.35 1 -3.6
      vertex -3.1 0.5 -4.2005
    endloop
  endfacet
  facet normal -0.923191 -0 -0.384342
    outer loop
      vertex -3.35 1 -3.6
      vertex -3.1 -0.5 -4.2005
      vertex -3.35 -1 -3.6
    endloop
  endfacet
  facet normal -1 0 0
    outer loop
      vertex -3.35 -1 -3.6
      vertex -3.35 1 0
      vertex -3.35 1 -3.6
    endloop
  endfacet
  facet normal -1 -0 0
    outer loop
      vertex -3.35 1 0
      vertex -3.35 -1 -3.6
      vertex -3.35 -1 0
    endloop
  endfacet
  facet normal 0 1 -0
    outer loop
      vertex -2.35 1 -3.6
      vertex -3.35 1 0
      vertex -2.35 1 0
    endloop
  endfacet
  facet normal 0 1 0
    outer loop
      vertex -3.35 1 0
      vertex -2.35 1 -3.6
      vertex -3.35 1 -3.6
    endloop
  endfacet
  facet normal 0.923191 0 -0.384342
    outer loop
      vertex -2.35 1 -3.6
      vertex -2.6 -0.5 -4.2005
      vertex -2.6 0.5 -4.2005
    endloop
  endfacet
  facet normal 0.923191 0 -0.384342
    outer loop
      vertex -2.6 -0.5 -4.2005
      vertex -2.35 1 -3.6
      vertex -2.35 -1 -3.6
    endloop
  endfacet
  facet normal 1 -0 0
    outer loop
      vertex -2.35 -1 0
      vertex -2.35 1 -3.6
      vertex -2.35 1 0
    endloop
  endfacet
  facet normal 1 0 0
    outer loop
      vertex -2.35 1 -3.6
      vertex -2.35 -1 0
      vertex -2.35 -1 -3.6
    endloop
  endfacet
  facet normal -0 0 1
    outer loop
      vertex -3.35 1 0
      vertex -2.35 -1 0
      vertex -2.35 1 0
    endloop
  endfacet
  facet normal 0 0 1
    outer loop
      vertex -2.35 -1 0
      vertex -3.35 1 0
      vertex -3.35 -1 0
    endloop
  endfacet
  facet normal 0 0.768483 -0.63987
    outer loop
      vertex -2.6 0.5 -4.2005
      vertex -3.35 1 -3.6
      vertex -2.35 1 -3.6
    endloop
  endfacet
  facet normal 0 0.768483 -0.63987
    outer loop
      vertex -3.35 1 -3.6
      vertex -2.6 0.5 -4.2005
      vertex -3.1 0.5 -4.2005
    endloop
  endfacet
  facet normal 0 -0.768483 -0.63987
    outer loop
      vertex -3.1 -0.5 -4.2005
      vertex -2.35 -1 -3.6
      vertex -3.35 -1 -3.6
    endloop
  endfacet
  facet normal 0 -0.768483 -0.63987
    outer loop
      vertex -2.35 -1 -3.6
      vertex -3.1 -0.5 -4.2005
      vertex -2.6 -0.5 -4.2005
    endloop
  endfacet
  facet normal 0 0 -1
    outer loop
      vertex -3.1 -0.5 -4.2005
      vertex -2.6 0.5 -4.2005
      vertex -2.6 -0.5 -4.2005
    endloop
  endfacet
  facet normal -0 0 -1
    outer loop
      vertex -2.6 0.5 -4.2005
      vertex -3.1 -0.5 -4.2005
      vertex -3.1 0.5 -4.2005
    endloop
  endfacet
  facet normal 0 -1 0
    outer loop
      vertex 2.35 -1 -3.6
      vertex 3.35 -1 0
      vertex 2.35 -1 0
    endloop
  endfacet
  facet normal 0 -1 -0
    outer loop
      vertex 3.35 -1 0
      vertex 2.35 -1 -3.6
      vertex 3.35 -1 -3.6
    endloop
  endfacet
  facet normal -0.923191 0 -0.384342
    outer loop
      vertex 2.6 -0.5 -4.2005
      vertex 2.35 1 -3.6
      vertex 2.6 0.5 -4.2005
    endloop
  endfacet
  facet normal -0.923191 -0 -0.384342
    outer loop
      vertex 2.35 1 -3.6
      vertex 2.6 -0.5 -4.2005
      vertex 2.35 -1 -3.6
    endloop
  endfacet
  facet normal -1 0 0
    outer loop
      vertex 2.35 -1 -3.6
      vertex 2.35 1 0
      vertex 2.35 1 -3.6
    endloop
  endfacet
  facet normal -1 -0 0
    outer loop
      vertex 2.35 1 0
      vertex 2.35 -1 -3.6
      vertex 2.35 -1 0
    endloop
  endfacet
  facet normal 0 1 -0
    outer loop
      vertex 3.35 1 -3.6
      vertex 2.35 1 0
      vertex 3.35 1 0
    endloop
  endfacet
  facet normal 0 1 0
    outer loop
      vertex 2.35 1 0
      vertex 3.35 1 -3.6
      vertex 2.35 1 -3.6
    endloop
  endfacet
  facet normal 0.923191 0 -0.384342
    outer loop
      vertex 3.35 1 -3.6
      vertex 3.1 -0.5 -4.2005
      vertex 3.1 0.5 -4.2005
    endloop
  endfacet
  facet normal 0.923191 0 -0.384342
    outer loop
      vertex 3.1 -0.5 -4.2005
      vertex 3.35 1 -3.6
      vertex 3.35 -1 -3.6
    endloop
  endfacet
  facet normal 1 -0 0
    outer loop
      vertex 3.35 -1 0
      vertex 3.35 1 -3.6
      vertex 3.35 1 0
    endloop
  endfacet
  facet normal 1 0 0
    outer loop
      vertex 3.35 1 -3.6
      vertex 3.35 -1 0
      vertex 3.35 -1 -3.6
    endloop
  endfacet
  facet normal -0 0 1
    outer loop
      vertex 2.35 1 0
      vertex 3.35 -1 0
      vertex 3.35 1 0
    endloop
  endfacet
  facet normal 0 0 1
    outer loop
      vertex 3.35 -1 0
      vertex 2.35 1 0
      vertex 2.35 -1 0
    endloop
  endfacet
  facet normal 0 0.768483 -0.63987
    outer loop
      vertex 3.1 0.5 -4.2005
      vertex 2.35 1 -3.6
      vertex 3.35 1 -3.6
    endloop
  endfacet
  facet normal 0 0.768483 -0.63987
    outer loop
      vertex 2.35 1 -3.6
      vertex 3.1 0.5 -4.2005
      vertex 2.6 0.5 -4.2005
    endloop
  endfacet
  facet normal 0 -0.768483 -0.63987
    outer loop
      vertex 2.6 -0.5 -4.2005
      vertex 3.35 -1 -3.6
      vertex 2.35 -1 -3.6
    endloop
  endfacet
  facet normal 0 -0.768483 -0.63987
    outer loop
      vertex 3.35 -1 -3.6
      vertex 2.6 -0.5 -4.2005
      vertex 3.1 -0.5 -4.2005
    endloop
  endfacet
  facet normal 0 0 -1
    outer loop
      vertex 2.6 -0.5 -4.2005
      vertex 3.1 0.5 -4.2005
      vertex 3.1 -0.5 -4.2005
    endloop
  endfacet
  facet normal -0 0 -1
    outer loop
      vertex 3.1 0.5 -4.2005
      vertex 2.6 -0.5 -4.2005
      vertex 2.6 0.5 -4.2005
    endloop
  endfacet
  facet normal 0.362703 -0.0381177 0.931125
    outer loop
      vertex 5.9563 1.08418 2.50015
      vertex 7.8 -5.8 1.50015
      vertex 6 1.5 2.50015
    endloop
  endfacet
  facet normal 0.362683 -0.0381243 0.931133
    outer loop
      vertex 7.8 -5.8 1.50015
      vertex 5.9563 1.08418 2.50015
      vertex 7.75629 -6.21582 1.50015
    endloop
  endfacet
  facet normal -0.163277 -0.0942695 0.982066
    outer loop
      vertex -7.62709 -6.61347 1.50015
      vertex -5.61803 0.32443 2.50015
      vertex -5.82709 0.686527 2.50015
    endloop
  endfacet
  facet normal -0.163278 -0.0942693 0.982066
    outer loop
      vertex -5.61803 0.32443 2.50015
      vertex -7.62709 -6.61347 1.50015
      vertex -7.41803 -6.97557 1.50015
    endloop
  endfacet
  facet normal -0.0544617 -0.122324 0.990995
    outer loop
      vertex -6.8 -7.53205 1.50015
      vertex -4.61803 -0.402113 2.50015
      vertex -5 -0.23205 2.50015
    endloop
  endfacet
  facet normal -0.0544609 -0.122324 0.990995
    outer loop
      vertex -4.61803 -0.402113 2.50015
      vertex -6.8 -7.53205 1.50015
      vertex -6.41803 -7.70211 1.50015
    endloop
  endfacet
  facet normal -0.201718 0.181625 0.962456
    outer loop
      vertex -7.41803 6.97557 1.50015
      vertex -5.33826 3.98629 2.50015
      vertex -7.13826 7.28629 1.50015
    endloop
  endfacet
  facet normal -0.201718 0.181625 0.962456
    outer loop
      vertex -5.33826 3.98629 2.50015
      vertex -7.41803 6.97557 1.50015
      vertex -5.61803 3.67557 2.50015
    endloop
  endfacet
  facet normal 0.485643 -0 0.874157
    outer loop
      vertex 6 1.5 2.50015
      vertex 7.8 5.8 1.50015
      vertex 6 2.5 2.50015
    endloop
  endfacet
  facet normal 0.485643 0 0.874157
    outer loop
      vertex 7.8 5.8 1.50015
      vertex 6 1.5 2.50015
      vertex 7.8 -5.8 1.50015
    endloop
  endfacet
  facet normal 0 0 1
    outer loop
      vertex 4.20906 4.48904 2.50015
      vertex 6 2.5 2.50015
      vertex 5.9563 2.91582 2.50015
    endloop
  endfacet
  facet normal 0 0 1
    outer loop
      vertex 6 2.5 2.50015
      vertex 4.20906 4.48904 2.50015
      vertex 6 1.5 2.50015
    endloop
  endfacet
  facet normal 0 0 1
    outer loop
      vertex 4.20906 4.48904 2.50015
      vertex 5.9563 2.91582 2.50015
      vertex 5.82709 3.31347 2.50015
    endloop
  endfacet
  facet normal 0 0 1
    outer loop
      vertex 4.20906 -0.489043 2.50015
      vertex 6 1.5 2.50015
      vertex 4.20906 4.48904 2.50015
    endloop
  endfacet
  facet normal 0 0 1
    outer loop
      vertex 4.20906 4.48904 2.50015
      vertex 5.82709 3.31347 2.50015
      vertex 5.61803 3.67557 2.50015
    endloop
  endfacet
  facet normal 0 0 1
    outer loop
      vertex 6 1.5 2.50015
      vertex 4.20906 -0.489043 2.50015
      vertex 5.9563 1.08418 2.50015
    endloop
  endfacet
  facet normal 0 0 1
    outer loop
      vertex 4.20906 4.48904 2.50015
      vertex 5.61803 3.67557 2.50015
      vertex 5.33826 3.98629 2.50015
    endloop
  endfacet
  facet normal 0 0 1
    outer loop
      vertex 5.9563 1.08418 2.50015
      vertex 4.20906 -0.489043 2.50015
      vertex 5.82709 0.686527 2.50015
    endloop
  endfacet
  facet normal 0 0 1
    outer loop
      vertex 4.20906 4.48904 2.50015
      vertex 5.33826 3.98629 2.50015
      vertex 5 4.23205 2.50015
    endloop
  endfacet
  facet normal 0 0 1
    outer loop
      vertex 5.82709 0.686527 2.50015
      vertex 4.20906 -0.489043 2.50015
      vertex 5.61803 0.32443 2.50015
    endloop
  endfacet
  facet normal 0 0 1
    outer loop
      vertex 4.20906 4.48904 2.50015
      vertex 5 4.23205 2.50015
      vertex 4.61803 4.40211 2.50015
    endloop
  endfacet
  facet normal 0 0 1
    outer loop
      vertex 5.61803 0.32443 2.50015
      vertex 4.20906 -0.489043 2.50015
      vertex 5.33826 0.013711 2.50015
    endloop
  endfacet
  facet normal 0 0 1
    outer loop
      vertex 5.33826 0.013711 2.50015
      vertex 4.20906 -0.489043 2.50015
      vertex 5 -0.23205 2.50015
    endloop
  endfacet
  facet normal 0 0 1
    outer loop
      vertex 5 -0.23205 2.50015
      vertex 4.20906 -0.489043 2.50015
      vertex 4.61803 -0.402113 2.50015
    endloop
  endfacet
  facet normal -0 0 1
    outer loop
      vertex -4.20906 4.48904 2.50015
      vertex 4.20906 -0.489043 2.50015
      vertex 4.20906 4.48904 2.50015
    endloop
  endfacet
  facet normal 0 0 1
    outer loop
      vertex -4.20906 4.48904 2.50015
      vertex -4.20906 -0.489043 2.50015
      vertex 4.20906 -0.489043 2.50015
    endloop
  endfacet
  facet normal 0 0 1
    outer loop
      vertex -6 2.5 2.50015
      vertex -4.20906 4.48904 2.50015
      vertex -4.61803 4.40211 2.50015
    endloop
  endfacet
  facet normal 0 0 1
    outer loop
      vertex -4.20906 4.48904 2.50015
      vertex -6 2.5 2.50015
      vertex -4.20906 -0.489043 2.50015
    endloop
  endfacet
  facet normal 0 0 1
    outer loop
      vertex -6 2.5 2.50015
      vertex -4.61803 4.40211 2.50015
      vertex -5 4.23205 2.50015
    endloop
  endfacet
  facet normal -0 0 1
    outer loop
      vertex -6 1.5 2.50015
      vertex -4.20906 -0.489043 2.50015
      vertex -6 2.5 2.50015
    endloop
  endfacet
  facet normal 0 0 1
    outer loop
      vertex -6 2.5 2.50015
      vertex -5 4.23205 2.50015
      vertex -5.33826 3.98629 2.50015
    endloop
  endfacet
  facet normal 0 0 1
    outer loop
      vertex -4.20906 -0.489043 2.50015
      vertex -6 1.5 2.50015
      vertex -4.61803 -0.402113 2.50015
    endloop
  endfacet
  facet normal 0 0 1
    outer loop
      vertex -6 2.5 2.50015
      vertex -5.33826 3.98629 2.50015
      vertex -5.61803 3.67557 2.50015
    endloop
  endfacet
  facet normal 0 0 1
    outer loop
      vertex -4.61803 -0.402113 2.50015
      vertex -6 1.5 2.50015
      vertex -5 -0.23205 2.50015
    endloop
  endfacet
  facet normal 0 0 1
    outer loop
      vertex -6 2.5 2.50015
      vertex -5.61803 3.67557 2.50015
      vertex -5.82709 3.31347 2.50015
    endloop
  endfacet
  facet normal 0 0 1
    outer loop
      vertex -5 -0.23205 2.50015
      vertex -6 1.5 2.50015
      vertex -5.33826 0.013711 2.50015
    endloop
  endfacet
  facet normal 0 0 1
    outer loop
      vertex -6 2.5 2.50015
      vertex -5.82709 3.31347 2.50015
      vertex -5.9563 2.91582 2.50015
    endloop
  endfacet
  facet normal 0 0 1
    outer loop
      vertex -5.33826 0.013711 2.50015
      vertex -6 1.5 2.50015
      vertex -5.61803 0.32443 2.50015
    endloop
  endfacet
  facet normal 0 0 1
    outer loop
      vertex -5.61803 0.32443 2.50015
      vertex -6 1.5 2.50015
      vertex -5.82709 0.686527 2.50015
    endloop
  endfacet
  facet normal 0 0 1
    outer loop
      vertex -5.82709 0.686527 2.50015
      vertex -6 1.5 2.50015
      vertex -5.9563 1.08418 2.50015
    endloop
  endfacet
  facet normal -0.0274257 -0.129027 0.991262
    outer loop
      vertex -4.61803 -0.402113 2.50015
      vertex -6.00906 -7.78904 1.50015
      vertex -4.20906 -0.489043 2.50015
    endloop
  endfacet
  facet normal -0.0274257 -0.129027 0.991262
    outer loop
      vertex -6.00906 -7.78904 1.50015
      vertex -4.61803 -0.402113 2.50015
      vertex -6.41803 -7.70211 1.50015
    endloop
  endfacet
  facet normal 0.0544617 -0.122324 0.990995
    outer loop
      vertex 4.61803 -0.402113 2.50015
      vertex 6.8 -7.53205 1.50015
      vertex 5 -0.23205 2.50015
    endloop
  endfacet
  facet normal 0.0544609 -0.122324 0.990995
    outer loop
      vertex 6.8 -7.53205 1.50015
      vertex 4.61803 -0.402113 2.50015
      vertex 6.41803 -7.70211 1.50015
    endloop
  endfacet
  facet normal -0.152293 0.209613 0.965851
    outer loop
      vertex -7.13826 7.28629 1.50015
      vertex -5 4.23205 2.50015
      vertex -6.8 7.53205 1.50015
    endloop
  endfacet
  facet normal -0.152293 0.209613 0.965851
    outer loop
      vertex -5 4.23205 2.50015
      vertex -7.13826 7.28629 1.50015
      vertex -5.33826 3.98629 2.50015
    endloop
  endfacet
  facet normal 0.0274257 -0.129027 0.991262
    outer loop
      vertex 4.61803 -0.402113 2.50015
      vertex 6.00906 -7.78904 1.50015
      vertex 6.41803 -7.70211 1.50015
    endloop
  endfacet
  facet normal 0.0274257 -0.129027 0.991262
    outer loop
      vertex 6.00906 -7.78904 1.50015
      vertex 4.61803 -0.402113 2.50015
      vertex 4.20906 -0.489043 2.50015
    endloop
  endfacet
  facet normal 0.0556162 0.261651 0.963559
    outer loop
      vertex 6.00906 7.78904 1.50015
      vertex 4.61803 4.40211 2.50015
      vertex 6.41803 7.70211 1.50015
    endloop
  endfacet
  facet normal 0.0556162 0.261651 0.963559
    outer loop
      vertex 4.61803 4.40211 2.50015
      vertex 6.00906 7.78904 1.50015
      vertex 4.20906 4.48904 2.50015
    endloop
  endfacet
  facet normal 0.152293 0.209613 0.965851
    outer loop
      vertex 5 4.23205 2.50015
      vertex 7.13826 7.28629 1.50015
      vertex 6.8 7.53205 1.50015
    endloop
  endfacet
  facet normal 0.152293 0.209613 0.965851
    outer loop
      vertex 7.13826 7.28629 1.50015
      vertex 5 4.23205 2.50015
      vertex 5.33826 3.98629 2.50015
    endloop
  endfacet
  facet normal 0 0.290007 0.957024
    outer loop
      vertex 6.00906 7.78904 1.50015
      vertex -4.20906 4.48904 2.50015
      vertex 4.20906 4.48904 2.50015
    endloop
  endfacet
  facet normal 0 0.290007 0.957024
    outer loop
      vertex -4.20906 4.48904 2.50015
      vertex 6.00906 7.78904 1.50015
      vertex -6.00906 7.78904 1.50015
    endloop
  endfacet
  facet normal -0.232426 -0.0755224 0.969678
    outer loop
      vertex -7.75629 -6.21582 1.50015
      vertex -5.82709 0.686527 2.50015
      vertex -5.9563 1.08418 2.50015
    endloop
  endfacet
  facet normal -0.232434 -0.0755199 0.969676
    outer loop
      vertex -5.82709 0.686527 2.50015
      vertex -7.75629 -6.21582 1.50015
      vertex -7.62709 -6.61347 1.50015
    endloop
  endfacet
  facet normal -0.485643 0 0.874157
    outer loop
      vertex -7.8 5.8 1.50015
      vertex -6 1.5 2.50015
      vertex -6 2.5 2.50015
    endloop
  endfacet
  facet normal -0.485643 0 0.874157
    outer loop
      vertex -6 1.5 2.50015
      vertex -7.8 5.8 1.50015
      vertex -7.8 -5.8 1.50015
    endloop
  endfacet
  facet normal 0.201718 0.181625 0.962456
    outer loop
      vertex 5.33826 3.98629 2.50015
      vertex 7.41803 6.97557 1.50015
      vertex 7.13826 7.28629 1.50015
    endloop
  endfacet
  facet normal 0.201718 0.181625 0.962456
    outer loop
      vertex 7.41803 6.97557 1.50015
      vertex 5.33826 3.98629 2.50015
      vertex 5.61803 3.67557 2.50015
    endloop
  endfacet
  facet normal 0.257664 0.148763 0.954714
    outer loop
      vertex 5.61803 3.67557 2.50015
      vertex 7.62709 6.61347 1.50015
      vertex 7.41803 6.97557 1.50015
    endloop
  endfacet
  facet normal 0.257664 0.148763 0.954714
    outer loop
      vertex 7.62709 6.61347 1.50015
      vertex 5.61803 3.67557 2.50015
      vertex 5.82709 3.31347 2.50015
    endloop
  endfacet
  facet normal 0.232426 -0.0755224 0.969678
    outer loop
      vertex 5.82709 0.686527 2.50015
      vertex 7.75629 -6.21582 1.50015
      vertex 5.9563 1.08418 2.50015
    endloop
  endfacet
  facet normal 0.232434 -0.0755199 0.969676
    outer loop
      vertex 7.75629 -6.21582 1.50015
      vertex 5.82709 0.686527 2.50015
      vertex 7.62709 -6.61347 1.50015
    endloop
  endfacet
  facet normal 0.104882 0.235574 0.966181
    outer loop
      vertex 6.41803 7.70211 1.50015
      vertex 5 4.23205 2.50015
      vertex 6.8 7.53205 1.50015
    endloop
  endfacet
  facet normal 0.104882 0.235574 0.966181
    outer loop
      vertex 5 4.23205 2.50015
      vertex 6.41803 7.70211 1.50015
      vertex 4.61803 4.40211 2.50015
    endloop
  endfacet
  facet normal -0.0556162 0.261651 0.963559
    outer loop
      vertex -6.00906 7.78904 1.50015
      vertex -4.61803 4.40211 2.50015
      vertex -4.20906 4.48904 2.50015
    endloop
  endfacet
  facet normal -0.0556162 0.261651 0.963559
    outer loop
      vertex -4.61803 4.40211 2.50015
      vertex -6.00906 7.78904 1.50015
      vertex -6.41803 7.70211 1.50015
    endloop
  endfacet
  facet normal -0.104882 0.235574 0.966181
    outer loop
      vertex -6.41803 7.70211 1.50015
      vertex -5 4.23205 2.50015
      vertex -4.61803 4.40211 2.50015
    endloop
  endfacet
  facet normal -0.104882 0.235574 0.966181
    outer loop
      vertex -5 4.23205 2.50015
      vertex -6.41803 7.70211 1.50015
      vertex -6.8 7.53205 1.50015
    endloop
  endfacet
  facet normal 0.163277 -0.0942695 0.982066
    outer loop
      vertex 5.61803 0.32443 2.50015
      vertex 7.62709 -6.61347 1.50015
      vertex 5.82709 0.686527 2.50015
    endloop
  endfacet
  facet normal 0.163278 -0.0942693 0.982066
    outer loop
      vertex 7.62709 -6.61347 1.50015
      vertex 5.61803 0.32443 2.50015
      vertex 7.41803 -6.97557 1.50015
    endloop
  endfacet
  facet normal 0.0835485 -0.114994 0.989846
    outer loop
      vertex 5 -0.23205 2.50015
      vertex 7.13826 -7.28629 1.50015
      vertex 5.33826 0.013711 2.50015
    endloop
  endfacet
  facet normal 0.0835483 -0.114994 0.989846
    outer loop
      vertex 7.13826 -7.28629 1.50015
      vertex 5 -0.23205 2.50015
      vertex 6.8 -7.53205 1.50015
    endloop
  endfacet
  facet normal 0 -0.135719 0.990747
    outer loop
      vertex -4.20906 -0.489043 2.50015
      vertex 6.00906 -7.78904 1.50015
      vertex 4.20906 -0.489043 2.50015
    endloop
  endfacet
  facet normal 0 -0.135719 0.990747
    outer loop
      vertex 6.00906 -7.78904 1.50015
      vertex -4.20906 -0.489043 2.50015
      vertex -6.00906 -7.78904 1.50015
    endloop
  endfacet
  facet normal 0.11792 -0.106175 0.987331
    outer loop
      vertex 5.33826 0.013711 2.50015
      vertex 7.41803 -6.97557 1.50015
      vertex 5.61803 0.32443 2.50015
    endloop
  endfacet
  facet normal 0.11792 -0.106175 0.987331
    outer loop
      vertex 7.41803 -6.97557 1.50015
      vertex 5.33826 0.013711 2.50015
      vertex 7.13826 -7.28629 1.50015
    endloop
  endfacet
  facet normal -0.326946 0.106228 0.939054
    outer loop
      vertex -7.75629 6.21582 1.50015
      vertex -5.82709 3.31347 2.50015
      vertex -7.62709 6.61347 1.50015
    endloop
  endfacet
  facet normal -0.326938 0.106233 0.939056
    outer loop
      vertex -5.82709 3.31347 2.50015
      vertex -7.75629 6.21582 1.50015
      vertex -5.9563 2.91582 2.50015
    endloop
  endfacet
  facet normal -0.421819 0.0443406 0.905595
    outer loop
      vertex -7.8 5.8 1.50015
      vertex -5.9563 2.91582 2.50015
      vertex -7.75629 6.21582 1.50015
    endloop
  endfacet
  facet normal -0.421831 0.0443317 0.90559
    outer loop
      vertex -5.9563 2.91582 2.50015
      vertex -7.8 5.8 1.50015
      vertex -6 2.5 2.50015
    endloop
  endfacet
  facet normal -0.362703 -0.0381177 0.931125
    outer loop
      vertex -7.8 -5.8 1.50015
      vertex -5.9563 1.08418 2.50015
      vertex -6 1.5 2.50015
    endloop
  endfacet
  facet normal -0.362683 -0.0381243 0.931133
    outer loop
      vertex -5.9563 1.08418 2.50015
      vertex -7.8 -5.8 1.50015
      vertex -7.75629 -6.21582 1.50015
    endloop
  endfacet
  facet normal -0.257664 0.148763 0.954714
    outer loop
      vertex -7.62709 6.61347 1.50015
      vertex -5.61803 3.67557 2.50015
      vertex -7.41803 6.97557 1.50015
    endloop
  endfacet
  facet normal -0.257664 0.148763 0.954714
    outer loop
      vertex -5.61803 3.67557 2.50015
      vertex -7.62709 6.61347 1.50015
      vertex -5.82709 3.31347 2.50015
    endloop
  endfacet
  facet normal 0.326946 0.106228 0.939054
    outer loop
      vertex 5.82709 3.31347 2.50015
      vertex 7.75629 6.21582 1.50015
      vertex 7.62709 6.61347 1.50015
    endloop
  endfacet
  facet normal 0.326938 0.106233 0.939056
    outer loop
      vertex 7.75629 6.21582 1.50015
      vertex 5.82709 3.31347 2.50015
      vertex 5.9563 2.91582 2.50015
    endloop
  endfacet
  facet normal 0.421819 0.0443406 0.905595
    outer loop
      vertex 5.9563 2.91582 2.50015
      vertex 7.8 5.8 1.50015
      vertex 7.75629 6.21582 1.50015
    endloop
  endfacet
  facet normal 0.421831 0.0443317 0.90559
    outer loop
      vertex 7.8 5.8 1.50015
      vertex 5.9563 2.91582 2.50015
      vertex 6 2.5 2.50015
    endloop
  endfacet
  facet normal -0.11792 -0.106175 0.987331
    outer loop
      vertex -7.41803 -6.97557 1.50015
      vertex -5.33826 0.013711 2.50015
      vertex -5.61803 0.32443 2.50015
    endloop
  endfacet
  facet normal -0.11792 -0.106175 0.987331
    outer loop
      vertex -5.33826 0.013711 2.50015
      vertex -7.41803 -6.97557 1.50015
      vertex -7.13826 -7.28629 1.50015
    endloop
  endfacet
  facet normal -0.0835485 -0.114994 0.989846
    outer loop
      vertex -7.13826 -7.28629 1.50015
      vertex -5 -0.23205 2.50015
      vertex -5.33826 0.013711 2.50015
    endloop
  endfacet
  facet normal -0.0835483 -0.114994 0.989846
    outer loop
      vertex -5 -0.23205 2.50015
      vertex -7.13826 -7.28629 1.50015
      vertex -6.8 -7.53205 1.50015
    endloop
  endfacet
endsolid OpenSCAD_Model
