solid OpenSCAD_Model
  facet normal -0.406729 -0.913549 0
    outer loop
      vertex -6.8 -7.53205 -2.00005
      vertex -6.41803 -7.70211 1.00015
      vertex -6.8 -7.53205 1.00015
    endloop
  endfacet
  facet normal -0.406729 -0.913549 -0
    outer loop
      vertex -6.41803 -7.70211 1.00015
      vertex -6.8 -7.53205 -2.00005
      vertex -6.41803 -7.70211 -2.00005
    endloop
  endfacet
  facet normal 0 0 -1
    outer loop
      vertex 7.8 -5.8 -2.00005
      vertex 6.75629 -5.21582 -2.00005
      vertex 6.8 -4.8 -2.00005
    endloop
  endfacet
  facet normal 0 0 -1
    outer loop
      vertex 7.13826 -7.28629 -2.00005
      vertex 6.62709 -5.61347 -2.00005
      vertex 6.75629 -5.21582 -2.00005
    endloop
  endfacet
  facet normal 0 0 -1
    outer loop
      vertex 5.8 -6.53205 -2.00005
      vertex 6.8 -7.53205 -2.00005
      vertex 6.41803 -7.70211 -2.00005
    endloop
  endfacet
  facet normal 0 0 -1
    outer loop
      vertex 7.13826 -7.28629 -2.00005
      vertex 6.41803 -5.97557 -2.00005
      vertex 6.62709 -5.61347 -2.00005
    endloop
  endfacet
  facet normal 0 0 -1
    outer loop
      vertex 7.13826 -7.28629 -2.00005
      vertex 6.13826 -6.28629 -2.00005
      vertex 6.41803 -5.97557 -2.00005
    endloop
  endfacet
  facet normal 0 0 -1
    outer loop
      vertex 5.8 -6.53205 -2.00005
      vertex 6.41803 -7.70211 -2.00005
      vertex 6.00906 -7.78904 -2.00005
    endloop
  endfacet
  facet normal 0 0 -1
    outer loop
      vertex 6.8 -7.53205 -2.00005
      vertex 5.8 -6.53205 -2.00005
      vertex 6.13826 -6.28629 -2.00005
    endloop
  endfacet
  facet normal 0 0 -1
    outer loop
      vertex 6.00906 -7.78904 -2.00005
      vertex 5.41803 -6.70211 -2.00005
      vertex 5.8 -6.53205 -2.00005
    endloop
  endfacet
  facet normal 0 0 -1
    outer loop
      vertex 6.00906 -7.78904 -2.00005
      vertex 5.00906 -6.78904 -2.00005
      vertex 5.41803 -6.70211 -2.00005
    endloop
  endfacet
  facet normal 0 0 -1
    outer loop
      vertex 6.00906 -7.78904 -2.00005
      vertex -5.00906 -6.78904 -2.00005
      vertex 5.00906 -6.78904 -2.00005
    endloop
  endfacet
  facet normal 0 0 -1
    outer loop
      vertex -6.00906 -7.78904 -2.00005
      vertex -5.00906 -6.78904 -2.00005
      vertex 6.00906 -7.78904 -2.00005
    endloop
  endfacet
  facet normal 0 0 -1
    outer loop
      vertex -6.00906 -7.78904 -2.00005
      vertex -5.41803 -6.70211 -2.00005
      vertex -5.00906 -6.78904 -2.00005
    endloop
  endfacet
  facet normal 0 0 -1
    outer loop
      vertex -6.00906 -7.78904 -2.00005
      vertex -5.8 -6.53205 -2.00005
      vertex -5.41803 -6.70211 -2.00005
    endloop
  endfacet
  facet normal 0 0 -1
    outer loop
      vertex -6.41803 -7.70211 -2.00005
      vertex -5.8 -6.53205 -2.00005
      vertex -6.00906 -7.78904 -2.00005
    endloop
  endfacet
  facet normal 0 0 -1
    outer loop
      vertex -6.8 -7.53205 -2.00005
      vertex -5.8 -6.53205 -2.00005
      vertex -6.41803 -7.70211 -2.00005
    endloop
  endfacet
  facet normal -0 0 -1
    outer loop
      vertex -5.8 -6.53205 -2.00005
      vertex -6.8 -7.53205 -2.00005
      vertex -6.13826 -6.28629 -2.00005
    endloop
  endfacet
  facet normal 0 0 -1
    outer loop
      vertex -7.13826 -7.28629 -2.00005
      vertex -6.13826 -6.28629 -2.00005
      vertex -6.8 -7.53205 -2.00005
    endloop
  endfacet
  facet normal 0 0 -1
    outer loop
      vertex -7.41803 -6.97557 -2.00005
      vertex -6.13826 -6.28629 -2.00005
      vertex -7.13826 -7.28629 -2.00005
    endloop
  endfacet
  facet normal -0 0 -1
    outer loop
      vertex -6.13826 -6.28629 -2.00005
      vertex -7.41803 -6.97557 -2.00005
      vertex -6.41803 -5.97557 -2.00005
    endloop
  endfacet
  facet normal 0 0 -1
    outer loop
      vertex -7.62709 -6.61347 -2.00005
      vertex -6.41803 -5.97557 -2.00005
      vertex -7.41803 -6.97557 -2.00005
    endloop
  endfacet
  facet normal 0 0 -1
    outer loop
      vertex -7.75629 -6.21582 -2.00005
      vertex -6.41803 -5.97557 -2.00005
      vertex -7.62709 -6.61347 -2.00005
    endloop
  endfacet
  facet normal -0 0 -1
    outer loop
      vertex -6.8 -4.8 -2.00005
      vertex -7.8 -5.8 -2.00005
      vertex -6.8 4.8 -2.00005
    endloop
  endfacet
  facet normal -0 0 -1
    outer loop
      vertex -6.41803 -5.97557 -2.00005
      vertex -7.75629 -6.21582 -2.00005
      vertex -6.62709 -5.61347 -2.00005
    endloop
  endfacet
  facet normal 0 0 -1
    outer loop
      vertex -7.8 5.8 -2.00005
      vertex -6.8 4.8 -2.00005
      vertex -7.8 -5.8 -2.00005
    endloop
  endfacet
  facet normal 0 0 -1
    outer loop
      vertex -7.8 -5.8 -2.00005
      vertex -6.62709 -5.61347 -2.00005
      vertex -7.75629 -6.21582 -2.00005
    endloop
  endfacet
  facet normal 0 -0 -1
    outer loop
      vertex -7.75629 6.21582 -2.00005
      vertex -6.8 4.8 -2.00005
      vertex -7.8 5.8 -2.00005
    endloop
  endfacet
  facet normal -0 0 -1
    outer loop
      vertex -6.62709 -5.61347 -2.00005
      vertex -7.8 -5.8 -2.00005
      vertex -6.75629 -5.21582 -2.00005
    endloop
  endfacet
  facet normal 0 0 -1
    outer loop
      vertex -6.8 4.8 -2.00005
      vertex -7.13826 7.28629 -2.00005
      vertex -6.8 7.53205 -2.00005
    endloop
  endfacet
  facet normal -0 0 -1
    outer loop
      vertex -6.75629 -5.21582 -2.00005
      vertex -7.8 -5.8 -2.00005
      vertex -6.8 -4.8 -2.00005
    endloop
  endfacet
  facet normal 0 0 -1
    outer loop
      vertex -6.8 4.8 -2.00005
      vertex -7.41803 6.97557 -2.00005
      vertex -7.13826 7.28629 -2.00005
    endloop
  endfacet
  facet normal 0 0 -1
    outer loop
      vertex -6.8 4.8 -2.00005
      vertex -7.62709 6.61347 -2.00005
      vertex -7.41803 6.97557 -2.00005
    endloop
  endfacet
  facet normal 0 0 -1
    outer loop
      vertex -6.8 4.8 -2.00005
      vertex -7.75629 6.21582 -2.00005
      vertex -7.62709 6.61347 -2.00005
    endloop
  endfacet
  facet normal 0 0 -1
    outer loop
      vertex 6.75629 -5.21582 -2.00005
      vertex 7.8 -5.8 -2.00005
      vertex 7.75629 -6.21582 -2.00005
    endloop
  endfacet
  facet normal 0 0 -1
    outer loop
      vertex 7.8 -5.8 -2.00005
      vertex 6.8 -4.8 -2.00005
      vertex 7.8 5.8 -2.00005
    endloop
  endfacet
  facet normal 0 0 -1
    outer loop
      vertex 6.75629 -5.21582 -2.00005
      vertex 7.75629 -6.21582 -2.00005
      vertex 7.62709 -6.61347 -2.00005
    endloop
  endfacet
  facet normal 0 0 -1
    outer loop
      vertex 6.8 4.8 -2.00005
      vertex 7.8 5.8 -2.00005
      vertex 6.8 -4.8 -2.00005
    endloop
  endfacet
  facet normal 0 0 -1
    outer loop
      vertex 6.75629 -5.21582 -2.00005
      vertex 7.62709 -6.61347 -2.00005
      vertex 7.41803 -6.97557 -2.00005
    endloop
  endfacet
  facet normal 0 0 -1
    outer loop
      vertex 6.75629 5.21582 -2.00005
      vertex 7.8 5.8 -2.00005
      vertex 6.8 4.8 -2.00005
    endloop
  endfacet
  facet normal 0 0 -1
    outer loop
      vertex 6.75629 -5.21582 -2.00005
      vertex 7.41803 -6.97557 -2.00005
      vertex 7.13826 -7.28629 -2.00005
    endloop
  endfacet
  facet normal 0 0 -1
    outer loop
      vertex 6.62709 5.61347 -2.00005
      vertex 7.8 5.8 -2.00005
      vertex 6.75629 5.21582 -2.00005
    endloop
  endfacet
  facet normal 0 0 -1
    outer loop
      vertex 6.13826 -6.28629 -2.00005
      vertex 7.13826 -7.28629 -2.00005
      vertex 6.8 -7.53205 -2.00005
    endloop
  endfacet
  facet normal -0 0 -1
    outer loop
      vertex 7.8 5.8 -2.00005
      vertex 6.62709 5.61347 -2.00005
      vertex 7.75629 6.21582 -2.00005
    endloop
  endfacet
  facet normal 0 0 -1
    outer loop
      vertex 6.41803 5.97557 -2.00005
      vertex 7.75629 6.21582 -2.00005
      vertex 6.62709 5.61347 -2.00005
    endloop
  endfacet
  facet normal -0 0 -1
    outer loop
      vertex 7.75629 6.21582 -2.00005
      vertex 6.41803 5.97557 -2.00005
      vertex 7.62709 6.61347 -2.00005
    endloop
  endfacet
  facet normal -0 0 -1
    outer loop
      vertex 7.62709 6.61347 -2.00005
      vertex 6.41803 5.97557 -2.00005
      vertex 7.41803 6.97557 -2.00005
    endloop
  endfacet
  facet normal 0 0 -1
    outer loop
      vertex 6.13826 6.28629 -2.00005
      vertex 7.41803 6.97557 -2.00005
      vertex 6.41803 5.97557 -2.00005
    endloop
  endfacet
  facet normal -0 0 -1
    outer loop
      vertex 7.41803 6.97557 -2.00005
      vertex 6.13826 6.28629 -2.00005
      vertex 7.13826 7.28629 -2.00005
    endloop
  endfacet
  facet normal -0 0 -1
    outer loop
      vertex 7.13826 7.28629 -2.00005
      vertex 6.13826 6.28629 -2.00005
      vertex 6.8 7.53205 -2.00005
    endloop
  endfacet
  facet normal 0 0 -1
    outer loop
      vertex 5.8 6.53205 -2.00005
      vertex 6.8 7.53205 -2.00005
      vertex 6.13826 6.28629 -2.00005
    endloop
  endfacet
  facet normal -0 0 -1
    outer loop
      vertex 6.8 7.53205 -2.00005
      vertex 5.8 6.53205 -2.00005
      vertex 6.41803 7.70211 -2.00005
    endloop
  endfacet
  facet normal -0 0 -1
    outer loop
      vertex 6.41803 7.70211 -2.00005
      vertex 5.8 6.53205 -2.00005
      vertex 6.00906 7.78904 -2.00005
    endloop
  endfacet
  facet normal 0 0 -1
    outer loop
      vertex 5.41803 6.70211 -2.00005
      vertex 6.00906 7.78904 -2.00005
      vertex 5.8 6.53205 -2.00005
    endloop
  endfacet
  facet normal 0 0 -1
    outer loop
      vertex 5.00906 6.78904 -2.00005
      vertex 6.00906 7.78904 -2.00005
      vertex 5.41803 6.70211 -2.00005
    endloop
  endfacet
  facet normal 0 0 -1
    outer loop
      vertex -5.00906 6.78904 -2.00005
      vertex 6.00906 7.78904 -2.00005
      vertex 5.00906 6.78904 -2.00005
    endloop
  endfacet
  facet normal 0 0 -1
    outer loop
      vertex -5.00906 6.78904 -2.00005
      vertex -6.00906 7.78904 -2.00005
      vertex 6.00906 7.78904 -2.00005
    endloop
  endfacet
  facet normal 0 0 -1
    outer loop
      vertex -5.41803 6.70211 -2.00005
      vertex -6.00906 7.78904 -2.00005
      vertex -5.00906 6.78904 -2.00005
    endloop
  endfacet
  facet normal 0 0 -1
    outer loop
      vertex -5.8 6.53205 -2.00005
      vertex -6.00906 7.78904 -2.00005
      vertex -5.41803 6.70211 -2.00005
    endloop
  endfacet
  facet normal 0 0 -1
    outer loop
      vertex -6.8 7.53205 -2.00005
      vertex -5.8 6.53205 -2.00005
      vertex -6.13826 6.28629 -2.00005
    endloop
  endfacet
  facet normal 0 0 -1
    outer loop
      vertex -6.8 7.53205 -2.00005
      vertex -6.13826 6.28629 -2.00005
      vertex -6.41803 5.97557 -2.00005
    endloop
  endfacet
  facet normal 0 0 -1
    outer loop
      vertex -5.8 6.53205 -2.00005
      vertex -6.41803 7.70211 -2.00005
      vertex -6.00906 7.78904 -2.00005
    endloop
  endfacet
  facet normal 0 0 -1
    outer loop
      vertex -6.8 7.53205 -2.00005
      vertex -6.41803 5.97557 -2.00005
      vertex -6.62709 5.61347 -2.00005
    endloop
  endfacet
  facet normal 0 0 -1
    outer loop
      vertex -6.8 7.53205 -2.00005
      vertex -6.62709 5.61347 -2.00005
      vertex -6.75629 5.21582 -2.00005
    endloop
  endfacet
  facet normal 0 0 -1
    outer loop
      vertex -5.8 6.53205 -2.00005
      vertex -6.8 7.53205 -2.00005
      vertex -6.41803 7.70211 -2.00005
    endloop
  endfacet
  facet normal 0 0 -1
    outer loop
      vertex -6.8 7.53205 -2.00005
      vertex -6.75629 5.21582 -2.00005
      vertex -6.8 4.8 -2.00005
    endloop
  endfacet
  facet normal 0 -1 0
    outer loop
      vertex -6.00906 -7.78904 -2.00005
      vertex 6.00906 -7.78904 1.00015
      vertex -6.00906 -7.78904 1.00015
    endloop
  endfacet
  facet normal 0 -1 -0
    outer loop
      vertex 6.00906 -7.78904 1.00015
      vertex -6.00906 -7.78904 -2.00005
      vertex 6.00906 -7.78904 -2.00005
    endloop
  endfacet
  facet normal 0.587785 -0.809017 0
    outer loop
      vertex 6.8 -7.53205 -2.00005
      vertex 7.13826 -7.28629 1.00015
      vertex 6.8 -7.53205 1.00015
    endloop
  endfacet
  facet normal 0.587785 -0.809017 0
    outer loop
      vertex 7.13826 -7.28629 1.00015
      vertex 6.8 -7.53205 -2.00005
      vertex 7.13826 -7.28629 -2.00005
    endloop
  endfacet
  facet normal -1 0 0
    outer loop
      vertex -7.8 -5.8 -2.00005
      vertex -7.8 5.8 1.00015
      vertex -7.8 5.8 -2.00005
    endloop
  endfacet
  facet normal -1 -0 0
    outer loop
      vertex -7.8 5.8 1.00015
      vertex -7.8 -5.8 -2.00005
      vertex -7.8 -5.8 1.00015
    endloop
  endfacet
  facet normal 0.207913 -0.978147 0
    outer loop
      vertex 6.00906 -7.78904 -2.00005
      vertex 6.41803 -7.70211 1.00015
      vertex 6.00906 -7.78904 1.00015
    endloop
  endfacet
  facet normal 0.207913 -0.978147 0
    outer loop
      vertex 6.41803 -7.70211 1.00015
      vertex 6.00906 -7.78904 -2.00005
      vertex 6.41803 -7.70211 -2.00005
    endloop
  endfacet
  facet normal 0.994521 0.104542 0
    outer loop
      vertex 7.8 5.8 1.00015
      vertex 7.75629 6.21582 -2.00005
      vertex 7.75629 6.21582 1.00015
    endloop
  endfacet
  facet normal 0.994521 0.104542 0
    outer loop
      vertex 7.75629 6.21582 -2.00005
      vertex 7.8 5.8 1.00015
      vertex 7.8 5.8 -2.00005
    endloop
  endfacet
  facet normal 0.406729 -0.913549 0
    outer loop
      vertex 6.41803 -7.70211 -2.00005
      vertex 6.8 -7.53205 1.00015
      vertex 6.41803 -7.70211 1.00015
    endloop
  endfacet
  facet normal 0.406729 -0.913549 0
    outer loop
      vertex 6.8 -7.53205 1.00015
      vertex 6.41803 -7.70211 -2.00005
      vertex 6.8 -7.53205 -2.00005
    endloop
  endfacet
  facet normal 0.95106 0.309008 0
    outer loop
      vertex 7.75629 6.21582 1.00015
      vertex 7.62709 6.61347 -2.00005
      vertex 7.62709 6.61347 1.00015
    endloop
  endfacet
  facet normal 0.95106 0.309008 0
    outer loop
      vertex 7.62709 6.61347 -2.00005
      vertex 7.75629 6.21582 1.00015
      vertex 7.75629 6.21582 -2.00005
    endloop
  endfacet
  facet normal 0.207913 0.978147 -0
    outer loop
      vertex 6.41803 7.70211 -2.00005
      vertex 6.00906 7.78904 1.00015
      vertex 6.41803 7.70211 1.00015
    endloop
  endfacet
  facet normal 0.207913 0.978147 0
    outer loop
      vertex 6.00906 7.78904 1.00015
      vertex 6.41803 7.70211 -2.00005
      vertex 6.00906 7.78904 -2.00005
    endloop
  endfacet
  facet normal 0.95106 -0.309008 0
    outer loop
      vertex 7.62709 -6.61347 1.00015
      vertex 7.75629 -6.21582 -2.00005
      vertex 7.75629 -6.21582 1.00015
    endloop
  endfacet
  facet normal 0.95106 -0.309008 0
    outer loop
      vertex 7.75629 -6.21582 -2.00005
      vertex 7.62709 -6.61347 1.00015
      vertex 7.62709 -6.61347 -2.00005
    endloop
  endfacet
  facet normal -0.207913 0.978147 0
    outer loop
      vertex -6.00906 7.78904 -2.00005
      vertex -6.41803 7.70211 1.00015
      vertex -6.00906 7.78904 1.00015
    endloop
  endfacet
  facet normal -0.207913 0.978147 0
    outer loop
      vertex -6.41803 7.70211 1.00015
      vertex -6.00906 7.78904 -2.00005
      vertex -6.41803 7.70211 -2.00005
    endloop
  endfacet
  facet normal 1 -0 0
    outer loop
      vertex 7.8 -5.8 1.00015
      vertex 7.8 5.8 -2.00005
      vertex 7.8 5.8 1.00015
    endloop
  endfacet
  facet normal 1 0 0
    outer loop
      vertex 7.8 5.8 -2.00005
      vertex 7.8 -5.8 1.00015
      vertex 7.8 -5.8 -2.00005
    endloop
  endfacet
  facet normal -0.743149 -0.669126 0
    outer loop
      vertex -7.13826 -7.28629 -2.00005
      vertex -7.41803 -6.97557 1.00015
      vertex -7.41803 -6.97557 -2.00005
    endloop
  endfacet
  facet normal -0.743149 -0.669126 0
    outer loop
      vertex -7.41803 -6.97557 1.00015
      vertex -7.13826 -7.28629 -2.00005
      vertex -7.13826 -7.28629 1.00015
    endloop
  endfacet
  facet normal -0.207913 -0.978147 0
    outer loop
      vertex -6.41803 -7.70211 -2.00005
      vertex -6.00906 -7.78904 1.00015
      vertex -6.41803 -7.70211 1.00015
    endloop
  endfacet
  facet normal -0.207913 -0.978147 -0
    outer loop
      vertex -6.00906 -7.78904 1.00015
      vertex -6.41803 -7.70211 -2.00005
      vertex -6.00906 -7.78904 -2.00005
    endloop
  endfacet
  facet normal -0.866024 -0.500003 0
    outer loop
      vertex -7.41803 -6.97557 -2.00005
      vertex -7.62709 -6.61347 1.00015
      vertex -7.62709 -6.61347 -2.00005
    endloop
  endfacet
  facet normal -0.866024 -0.500003 0
    outer loop
      vertex -7.62709 -6.61347 1.00015
      vertex -7.41803 -6.97557 -2.00005
      vertex -7.41803 -6.97557 1.00015
    endloop
  endfacet
  facet normal -0.587785 0.809017 0
    outer loop
      vertex -6.8 7.53205 -2.00005
      vertex -7.13826 7.28629 1.00015
      vertex -6.8 7.53205 1.00015
    endloop
  endfacet
  facet normal -0.587785 0.809017 0
    outer loop
      vertex -7.13826 7.28629 1.00015
      vertex -6.8 7.53205 -2.00005
      vertex -7.13826 7.28629 -2.00005
    endloop
  endfacet
  facet normal 0.994521 -0.104542 0
    outer loop
      vertex 7.75629 -6.21582 1.00015
      vertex 7.8 -5.8 -2.00005
      vertex 7.8 -5.8 1.00015
    endloop
  endfacet
  facet normal 0.994521 -0.104542 0
    outer loop
      vertex 7.8 -5.8 -2.00005
      vertex 7.75629 -6.21582 1.00015
      vertex 7.75629 -6.21582 -2.00005
    endloop
  endfacet
  facet normal 0 1 -0
    outer loop
      vertex 6.00906 7.78904 -2.00005
      vertex -6.00906 7.78904 1.00015
      vertex 6.00906 7.78904 1.00015
    endloop
  endfacet
  facet normal 0 1 0
    outer loop
      vertex -6.00906 7.78904 1.00015
      vertex 6.00906 7.78904 -2.00005
      vertex -6.00906 7.78904 -2.00005
    endloop
  endfacet
  facet normal 0.587785 0.809017 -0
    outer loop
      vertex 7.13826 7.28629 -2.00005
      vertex 6.8 7.53205 1.00015
      vertex 7.13826 7.28629 1.00015
    endloop
  endfacet
  facet normal 0.587785 0.809017 0
    outer loop
      vertex 6.8 7.53205 1.00015
      vertex 7.13826 7.28629 -2.00005
      vertex 6.8 7.53205 -2.00005
    endloop
  endfacet
  facet normal -0.994521 -0.104542 0
    outer loop
      vertex -7.75629 -6.21582 -2.00005
      vertex -7.8 -5.8 1.00015
      vertex -7.8 -5.8 -2.00005
    endloop
  endfacet
  facet normal -0.994521 -0.104542 0
    outer loop
      vertex -7.8 -5.8 1.00015
      vertex -7.75629 -6.21582 -2.00005
      vertex -7.75629 -6.21582 1.00015
    endloop
  endfacet
  facet normal 0.866024 0.500003 0
    outer loop
      vertex 7.62709 6.61347 1.00015
      vertex 7.41803 6.97557 -2.00005
      vertex 7.41803 6.97557 1.00015
    endloop
  endfacet
  facet normal 0.866024 0.500003 0
    outer loop
      vertex 7.41803 6.97557 -2.00005
      vertex 7.62709 6.61347 1.00015
      vertex 7.62709 6.61347 -2.00005
    endloop
  endfacet
  facet normal 0.406729 0.913549 -0
    outer loop
      vertex 6.8 7.53205 -2.00005
      vertex 6.41803 7.70211 1.00015
      vertex 6.8 7.53205 1.00015
    endloop
  endfacet
  facet normal 0.406729 0.913549 0
    outer loop
      vertex 6.41803 7.70211 1.00015
      vertex 6.8 7.53205 -2.00005
      vertex 6.41803 7.70211 -2.00005
    endloop
  endfacet
  facet normal -0.406729 0.913549 0
    outer loop
      vertex -6.41803 7.70211 -2.00005
      vertex -6.8 7.53205 1.00015
      vertex -6.41803 7.70211 1.00015
    endloop
  endfacet
  facet normal -0.406729 0.913549 0
    outer loop
      vertex -6.8 7.53205 1.00015
      vertex -6.41803 7.70211 -2.00005
      vertex -6.8 7.53205 -2.00005
    endloop
  endfacet
  facet normal -0.743149 0.669126 0
    outer loop
      vertex -7.41803 6.97557 -2.00005
      vertex -7.13826 7.28629 1.00015
      vertex -7.13826 7.28629 -2.00005
    endloop
  endfacet
  facet normal -0.743149 0.669126 0
    outer loop
      vertex -7.13826 7.28629 1.00015
      vertex -7.41803 6.97557 -2.00005
      vertex -7.41803 6.97557 1.00015
    endloop
  endfacet
  facet normal -0.95106 0.309008 0
    outer loop
      vertex -7.75629 6.21582 -2.00005
      vertex -7.62709 6.61347 1.00015
      vertex -7.62709 6.61347 -2.00005
    endloop
  endfacet
  facet normal -0.95106 0.309008 0
    outer loop
      vertex -7.62709 6.61347 1.00015
      vertex -7.75629 6.21582 -2.00005
      vertex -7.75629 6.21582 1.00015
    endloop
  endfacet
  facet normal -0.95106 -0.309008 0
    outer loop
      vertex -7.62709 -6.61347 -2.00005
      vertex -7.75629 -6.21582 1.00015
      vertex -7.75629 -6.21582 -2.00005
    endloop
  endfacet
  facet normal -0.95106 -0.309008 0
    outer loop
      vertex -7.75629 -6.21582 1.00015
      vertex -7.62709 -6.61347 -2.00005
      vertex -7.62709 -6.61347 1.00015
    endloop
  endfacet
  facet normal 0.866024 -0.500003 0
    outer loop
      vertex 7.41803 -6.97557 1.00015
      vertex 7.62709 -6.61347 -2.00005
      vertex 7.62709 -6.61347 1.00015
    endloop
  endfacet
  facet normal 0.866024 -0.500003 0
    outer loop
      vertex 7.62709 -6.61347 -2.00005
      vertex 7.41803 -6.97557 1.00015
      vertex 7.41803 -6.97557 -2.00005
    endloop
  endfacet
  facet normal -0.587785 -0.809017 0
    outer loop
      vertex -7.13826 -7.28629 -2.00005
      vertex -6.8 -7.53205 1.00015
      vertex -7.13826 -7.28629 1.00015
    endloop
  endfacet
  facet normal -0.587785 -0.809017 -0
    outer loop
      vertex -6.8 -7.53205 1.00015
      vertex -7.13826 -7.28629 -2.00005
      vertex -6.8 -7.53205 -2.00005
    endloop
  endfacet
  facet normal -0.994521 0.104542 0
    outer loop
      vertex -7.8 5.8 -2.00005
      vertex -7.75629 6.21582 1.00015
      vertex -7.75629 6.21582 -2.00005
    endloop
  endfacet
  facet normal -0.994521 0.104542 0
    outer loop
      vertex -7.75629 6.21582 1.00015
      vertex -7.8 5.8 -2.00005
      vertex -7.8 5.8 1.00015
    endloop
  endfacet
  facet normal -0.866024 0.500003 0
    outer loop
      vertex -7.62709 6.61347 -2.00005
      vertex -7.41803 6.97557 1.00015
      vertex -7.41803 6.97557 -2.00005
    endloop
  endfacet
  facet normal -0.866024 0.500003 0
    outer loop
      vertex -7.41803 6.97557 1.00015
      vertex -7.62709 6.61347 -2.00005
      vertex -7.62709 6.61347 1.00015
    endloop
  endfacet
  facet normal 0.743149 0.669126 0
    outer loop
      vertex 7.41803 6.97557 1.00015
      vertex 7.13826 7.28629 -2.00005
      vertex 7.13826 7.28629 1.00015
    endloop
  endfacet
  facet normal 0.743149 0.669126 0
    outer loop
      vertex 7.13826 7.28629 -2.00005
      vertex 7.41803 6.97557 1.00015
      vertex 7.41803 6.97557 -2.00005
    endloop
  endfacet
  facet normal 0.743149 -0.669126 0
    outer loop
      vertex 7.13826 -7.28629 1.00015
      vertex 7.41803 -6.97557 -2.00005
      vertex 7.41803 -6.97557 1.00015
    endloop
  endfacet
  facet normal 0.743149 -0.669126 0
    outer loop
      vertex 7.41803 -6.97557 -2.00005
      vertex 7.13826 -7.28629 1.00015
      vertex 7.13826 -7.28629 -2.00005
    endloop
  endfacet
  facet normal 0.866024 0.500003 0
    outer loop
      vertex -6.41803 -5.97557 0.000148773
      vertex -6.62709 -5.61347 -2.00005
      vertex -6.62709 -5.61347 0.000148773
    endloop
  endfacet
  facet normal 0.866024 0.500003 0
    outer loop
      vertex -6.62709 -5.61347 -2.00005
      vertex -6.41803 -5.97557 0.000148773
      vertex -6.41803 -5.97557 -2.00005
    endloop
  endfacet
  facet normal 0.95106 -0.309008 0
    outer loop
      vertex -6.75629 5.21582 0.000148773
      vertex -6.62709 5.61347 -2.00005
      vertex -6.62709 5.61347 0.000148773
    endloop
  endfacet
  facet normal 0.95106 -0.309008 0
    outer loop
      vertex -6.62709 5.61347 -2.00005
      vertex -6.75629 5.21582 0.000148773
      vertex -6.75629 5.21582 -2.00005
    endloop
  endfacet
  facet normal 0.207913 0.978147 -0
    outer loop
      vertex -5.00906 -6.78904 -2.00005
      vertex -5.41803 -6.70211 0.000148773
      vertex -5.00906 -6.78904 0.000148773
    endloop
  endfacet
  facet normal 0.207913 0.978147 0
    outer loop
      vertex -5.41803 -6.70211 0.000148773
      vertex -5.00906 -6.78904 -2.00005
      vertex -5.41803 -6.70211 -2.00005
    endloop
  endfacet
  facet normal 1 -0 0
    outer loop
      vertex -6.8 -4.8 0.000148773
      vertex -6.8 4.8 -2.00005
      vertex -6.8 4.8 0.000148773
    endloop
  endfacet
  facet normal 1 0 0
    outer loop
      vertex -6.8 4.8 -2.00005
      vertex -6.8 -4.8 0.000148773
      vertex -6.8 -4.8 -2.00005
    endloop
  endfacet
  facet normal 0.743149 -0.669126 0
    outer loop
      vertex -6.41803 5.97557 0.000148773
      vertex -6.13826 6.28629 -2.00005
      vertex -6.13826 6.28629 0.000148773
    endloop
  endfacet
  facet normal 0.743149 -0.669126 0
    outer loop
      vertex -6.13826 6.28629 -2.00005
      vertex -6.41803 5.97557 0.000148773
      vertex -6.41803 5.97557 -2.00005
    endloop
  endfacet
  facet normal -0.207913 -0.978147 0
    outer loop
      vertex 5.00906 6.78904 -2.00005
      vertex 5.41803 6.70211 0.000148773
      vertex 5.00906 6.78904 0.000148773
    endloop
  endfacet
  facet normal -0.207913 -0.978147 -0
    outer loop
      vertex 5.41803 6.70211 0.000148773
      vertex 5.00906 6.78904 -2.00005
      vertex 5.41803 6.70211 -2.00005
    endloop
  endfacet
  facet normal -0.743149 0.669126 0
    outer loop
      vertex 6.13826 -6.28629 -2.00005
      vertex 6.41803 -5.97557 0.000148773
      vertex 6.41803 -5.97557 -2.00005
    endloop
  endfacet
  facet normal -0.743149 0.669126 0
    outer loop
      vertex 6.41803 -5.97557 0.000148773
      vertex 6.13826 -6.28629 -2.00005
      vertex 6.13826 -6.28629 0.000148773
    endloop
  endfacet
  facet normal 0.406729 -0.913549 0
    outer loop
      vertex -5.8 6.53205 -2.00005
      vertex -5.41803 6.70211 0.000148773
      vertex -5.8 6.53205 0.000148773
    endloop
  endfacet
  facet normal 0.406729 -0.913549 0
    outer loop
      vertex -5.41803 6.70211 0.000148773
      vertex -5.8 6.53205 -2.00005
      vertex -5.41803 6.70211 -2.00005
    endloop
  endfacet
  facet normal 0.587785 -0.809017 0
    outer loop
      vertex -6.13826 6.28629 -2.00005
      vertex -5.8 6.53205 0.000148773
      vertex -6.13826 6.28629 0.000148773
    endloop
  endfacet
  facet normal 0.587785 -0.809017 0
    outer loop
      vertex -5.8 6.53205 0.000148773
      vertex -6.13826 6.28629 -2.00005
      vertex -5.8 6.53205 -2.00005
    endloop
  endfacet
  facet normal 0 1 -0
    outer loop
      vertex 5.00906 -6.78904 -2.00005
      vertex -5.00906 -6.78904 0.000148773
      vertex 5.00906 -6.78904 0.000148773
    endloop
  endfacet
  facet normal 0 1 0
    outer loop
      vertex -5.00906 -6.78904 0.000148773
      vertex 5.00906 -6.78904 -2.00005
      vertex -5.00906 -6.78904 -2.00005
    endloop
  endfacet
  facet normal -0.406729 -0.913549 0
    outer loop
      vertex 5.41803 6.70211 -2.00005
      vertex 5.8 6.53205 0.000148773
      vertex 5.41803 6.70211 0.000148773
    endloop
  endfacet
  facet normal -0.406729 -0.913549 -0
    outer loop
      vertex 5.8 6.53205 0.000148773
      vertex 5.41803 6.70211 -2.00005
      vertex 5.8 6.53205 -2.00005
    endloop
  endfacet
  facet normal 0.866024 -0.500003 0
    outer loop
      vertex -6.62709 5.61347 0.000148773
      vertex -6.41803 5.97557 -2.00005
      vertex -6.41803 5.97557 0.000148773
    endloop
  endfacet
  facet normal 0.866024 -0.500003 0
    outer loop
      vertex -6.41803 5.97557 -2.00005
      vertex -6.62709 5.61347 0.000148773
      vertex -6.62709 5.61347 -2.00005
    endloop
  endfacet
  facet normal -1 0 0
    outer loop
      vertex 6.8 -4.8 -2.00005
      vertex 6.8 4.8 0.000148773
      vertex 6.8 4.8 -2.00005
    endloop
  endfacet
  facet normal -1 -0 0
    outer loop
      vertex 6.8 4.8 0.000148773
      vertex 6.8 -4.8 -2.00005
      vertex 6.8 -4.8 0.000148773
    endloop
  endfacet
  facet normal 0.994521 0.104542 0
    outer loop
      vertex -6.75629 -5.21582 0.000148773
      vertex -6.8 -4.8 -2.00005
      vertex -6.8 -4.8 0.000148773
    endloop
  endfacet
  facet normal 0.994521 0.104542 0
    outer loop
      vertex -6.8 -4.8 -2.00005
      vertex -6.75629 -5.21582 0.000148773
      vertex -6.75629 -5.21582 -2.00005
    endloop
  endfacet
  facet normal -0.994521 -0.104542 0
    outer loop
      vertex 6.8 4.8 -2.00005
      vertex 6.75629 5.21582 0.000148773
      vertex 6.75629 5.21582 -2.00005
    endloop
  endfacet
  facet normal -0.994521 -0.104542 0
    outer loop
      vertex 6.75629 5.21582 0.000148773
      vertex 6.8 4.8 -2.00005
      vertex 6.8 4.8 0.000148773
    endloop
  endfacet
  facet normal -0.406729 0.913549 0
    outer loop
      vertex 5.8 -6.53205 -2.00005
      vertex 5.41803 -6.70211 0.000148773
      vertex 5.8 -6.53205 0.000148773
    endloop
  endfacet
  facet normal -0.406729 0.913549 0
    outer loop
      vertex 5.41803 -6.70211 0.000148773
      vertex 5.8 -6.53205 -2.00005
      vertex 5.41803 -6.70211 -2.00005
    endloop
  endfacet
  facet normal 0 -1 0
    outer loop
      vertex -5.00906 6.78904 -2.00005
      vertex 5.00906 6.78904 0.000148773
      vertex -5.00906 6.78904 0.000148773
    endloop
  endfacet
  facet normal 0 -1 -0
    outer loop
      vertex 5.00906 6.78904 0.000148773
      vertex -5.00906 6.78904 -2.00005
      vertex 5.00906 6.78904 -2.00005
    endloop
  endfacet
  facet normal -0.743149 -0.669126 0
    outer loop
      vertex 6.41803 5.97557 -2.00005
      vertex 6.13826 6.28629 0.000148773
      vertex 6.13826 6.28629 -2.00005
    endloop
  endfacet
  facet normal -0.743149 -0.669126 0
    outer loop
      vertex 6.13826 6.28629 0.000148773
      vertex 6.41803 5.97557 -2.00005
      vertex 6.41803 5.97557 0.000148773
    endloop
  endfacet
  facet normal -0.207913 0.978147 0
    outer loop
      vertex 5.41803 -6.70211 -2.00005
      vertex 5.00906 -6.78904 0.000148773
      vertex 5.41803 -6.70211 0.000148773
    endloop
  endfacet
  facet normal -0.207913 0.978147 0
    outer loop
      vertex 5.00906 -6.78904 0.000148773
      vertex 5.41803 -6.70211 -2.00005
      vertex 5.00906 -6.78904 -2.00005
    endloop
  endfacet
  facet normal 0.95106 0.309008 0
    outer loop
      vertex -6.62709 -5.61347 0.000148773
      vertex -6.75629 -5.21582 -2.00005
      vertex -6.75629 -5.21582 0.000148773
    endloop
  endfacet
  facet normal 0.95106 0.309008 0
    outer loop
      vertex -6.75629 -5.21582 -2.00005
      vertex -6.62709 -5.61347 0.000148773
      vertex -6.62709 -5.61347 -2.00005
    endloop
  endfacet
  facet normal -0.994521 0.104542 0
    outer loop
      vertex 6.75629 -5.21582 -2.00005
      vertex 6.8 -4.8 0.000148773
      vertex 6.8 -4.8 -2.00005
    endloop
  endfacet
  facet normal -0.994521 0.104542 0
    outer loop
      vertex 6.8 -4.8 0.000148773
      vertex 6.75629 -5.21582 -2.00005
      vertex 6.75629 -5.21582 0.000148773
    endloop
  endfacet
  facet normal 0.743149 0.669126 0
    outer loop
      vertex -6.13826 -6.28629 0.000148773
      vertex -6.41803 -5.97557 -2.00005
      vertex -6.41803 -5.97557 0.000148773
    endloop
  endfacet
  facet normal 0.743149 0.669126 0
    outer loop
      vertex -6.41803 -5.97557 -2.00005
      vertex -6.13826 -6.28629 0.000148773
      vertex -6.13826 -6.28629 -2.00005
    endloop
  endfacet
  facet normal -0.587785 0.809017 0
    outer loop
      vertex 6.13826 -6.28629 -2.00005
      vertex 5.8 -6.53205 0.000148773
      vertex 6.13826 -6.28629 0.000148773
    endloop
  endfacet
  facet normal -0.587785 0.809017 0
    outer loop
      vertex 5.8 -6.53205 0.000148773
      vertex 6.13826 -6.28629 -2.00005
      vertex 5.8 -6.53205 -2.00005
    endloop
  endfacet
  facet normal 0.406729 0.913549 -0
    outer loop
      vertex -5.41803 -6.70211 -2.00005
      vertex -5.8 -6.53205 0.000148773
      vertex -5.41803 -6.70211 0.000148773
    endloop
  endfacet
  facet normal 0.406729 0.913549 0
    outer loop
      vertex -5.8 -6.53205 0.000148773
      vertex -5.41803 -6.70211 -2.00005
      vertex -5.8 -6.53205 -2.00005
    endloop
  endfacet
  facet normal 0.207913 -0.978147 0
    outer loop
      vertex -5.41803 6.70211 -2.00005
      vertex -5.00906 6.78904 0.000148773
      vertex -5.41803 6.70211 0.000148773
    endloop
  endfacet
  facet normal 0.207913 -0.978147 0
    outer loop
      vertex -5.00906 6.78904 0.000148773
      vertex -5.41803 6.70211 -2.00005
      vertex -5.00906 6.78904 -2.00005
    endloop
  endfacet
  facet normal -0.95106 -0.309008 0
    outer loop
      vertex 6.75629 5.21582 -2.00005
      vertex 6.62709 5.61347 0.000148773
      vertex 6.62709 5.61347 -2.00005
    endloop
  endfacet
  facet normal -0.95106 -0.309008 0
    outer loop
      vertex 6.62709 5.61347 0.000148773
      vertex 6.75629 5.21582 -2.00005
      vertex 6.75629 5.21582 0.000148773
    endloop
  endfacet
  facet normal 0.587785 0.809017 -0
    outer loop
      vertex -5.8 -6.53205 -2.00005
      vertex -6.13826 -6.28629 0.000148773
      vertex -5.8 -6.53205 0.000148773
    endloop
  endfacet
  facet normal 0.587785 0.809017 0
    outer loop
      vertex -6.13826 -6.28629 0.000148773
      vertex -5.8 -6.53205 -2.00005
      vertex -6.13826 -6.28629 -2.00005
    endloop
  endfacet
  facet normal -0.95106 0.309008 0
    outer loop
      vertex 6.62709 -5.61347 -2.00005
      vertex 6.75629 -5.21582 0.000148773
      vertex 6.75629 -5.21582 -2.00005
    endloop
  endfacet
  facet normal -0.95106 0.309008 0
    outer loop
      vertex 6.75629 -5.21582 0.000148773
      vertex 6.62709 -5.61347 -2.00005
      vertex 6.62709 -5.61347 0.000148773
    endloop
  endfacet
  facet normal -0.587785 -0.809017 0
    outer loop
      vertex 5.8 6.53205 -2.00005
      vertex 6.13826 6.28629 0.000148773
      vertex 5.8 6.53205 0.000148773
    endloop
  endfacet
  facet normal -0.587785 -0.809017 -0
    outer loop
      vertex 6.13826 6.28629 0.000148773
      vertex 5.8 6.53205 -2.00005
      vertex 6.13826 6.28629 -2.00005
    endloop
  endfacet
  facet normal -0.866024 -0.500003 0
    outer loop
      vertex 6.62709 5.61347 -2.00005
      vertex 6.41803 5.97557 0.000148773
      vertex 6.41803 5.97557 -2.00005
    endloop
  endfacet
  facet normal -0.866024 -0.500003 0
    outer loop
      vertex 6.41803 5.97557 0.000148773
      vertex 6.62709 5.61347 -2.00005
      vertex 6.62709 5.61347 0.000148773
    endloop
  endfacet
  facet normal -0.866024 0.500003 0
    outer loop
      vertex 6.41803 -5.97557 -2.00005
      vertex 6.62709 -5.61347 0.000148773
      vertex 6.62709 -5.61347 -2.00005
    endloop
  endfacet
  facet normal -0.866024 0.500003 0
    outer loop
      vertex 6.62709 -5.61347 0.000148773
      vertex 6.41803 -5.97557 -2.00005
      vertex 6.41803 -5.97557 0.000148773
    endloop
  endfacet
  facet normal 0 0 -1
    outer loop
      vertex 5.00906 -6.78904 0.000148773
      vertex 6.8 -4.8 0.000148773
      vertex 6.75629 -5.21582 0.000148773
    endloop
  endfacet
  facet normal 0 0 -1
    outer loop
      vertex -6.8 -4.8 0.000148773
      vertex 6.8 -4.8 0.000148773
      vertex 5.00906 -6.78904 0.000148773
    endloop
  endfacet
  facet normal 0 0 -1
    outer loop
      vertex 5.00906 -6.78904 0.000148773
      vertex 6.75629 -5.21582 0.000148773
      vertex 6.62709 -5.61347 0.000148773
    endloop
  endfacet
  facet normal 0 0 -1
    outer loop
      vertex 6.8 -4.8 0.000148773
      vertex -6.8 -4.8 0.000148773
      vertex 6.8 4.8 0.000148773
    endloop
  endfacet
  facet normal 0 0 -1
    outer loop
      vertex 5.00906 -6.78904 0.000148773
      vertex 6.62709 -5.61347 0.000148773
      vertex 6.41803 -5.97557 0.000148773
    endloop
  endfacet
  facet normal 0 0 -1
    outer loop
      vertex 6.8 4.8 0.000148773
      vertex 5.00906 6.78904 0.000148773
      vertex 6.75629 5.21582 0.000148773
    endloop
  endfacet
  facet normal 0 0 -1
    outer loop
      vertex 5.00906 -6.78904 0.000148773
      vertex 6.41803 -5.97557 0.000148773
      vertex 6.13826 -6.28629 0.000148773
    endloop
  endfacet
  facet normal 0 0 -1
    outer loop
      vertex 6.75629 5.21582 0.000148773
      vertex 5.00906 6.78904 0.000148773
      vertex 6.62709 5.61347 0.000148773
    endloop
  endfacet
  facet normal 0 0 -1
    outer loop
      vertex 5.00906 -6.78904 0.000148773
      vertex 6.13826 -6.28629 0.000148773
      vertex 5.8 -6.53205 0.000148773
    endloop
  endfacet
  facet normal 0 0 -1
    outer loop
      vertex 6.62709 5.61347 0.000148773
      vertex 5.00906 6.78904 0.000148773
      vertex 6.41803 5.97557 0.000148773
    endloop
  endfacet
  facet normal 0 0 -1
    outer loop
      vertex 5.00906 -6.78904 0.000148773
      vertex 5.8 -6.53205 0.000148773
      vertex 5.41803 -6.70211 0.000148773
    endloop
  endfacet
  facet normal 0 0 -1
    outer loop
      vertex 6.41803 5.97557 0.000148773
      vertex 5.00906 6.78904 0.000148773
      vertex 6.13826 6.28629 0.000148773
    endloop
  endfacet
  facet normal 0 0 -1
    outer loop
      vertex 6.13826 6.28629 0.000148773
      vertex 5.00906 6.78904 0.000148773
      vertex 5.8 6.53205 0.000148773
    endloop
  endfacet
  facet normal 0 0 -1
    outer loop
      vertex 5.8 6.53205 0.000148773
      vertex 5.00906 6.78904 0.000148773
      vertex 5.41803 6.70211 0.000148773
    endloop
  endfacet
  facet normal 0 0 -1
    outer loop
      vertex -6.8 -4.8 0.000148773
      vertex 5.00906 -6.78904 0.000148773
      vertex -5.00906 -6.78904 0.000148773
    endloop
  endfacet
  facet normal 0 0 -1
    outer loop
      vertex -6.8 4.8 0.000148773
      vertex 6.8 4.8 0.000148773
      vertex -6.8 -4.8 0.000148773
    endloop
  endfacet
  facet normal 0 0 -1
    outer loop
      vertex -6.8 -4.8 0.000148773
      vertex -5.00906 -6.78904 0.000148773
      vertex -5.41803 -6.70211 0.000148773
    endloop
  endfacet
  facet normal 0 0 -1
    outer loop
      vertex 6.8 4.8 0.000148773
      vertex -6.8 4.8 0.000148773
      vertex 5.00906 6.78904 0.000148773
    endloop
  endfacet
  facet normal 0 0 -1
    outer loop
      vertex -6.8 -4.8 0.000148773
      vertex -5.41803 -6.70211 0.000148773
      vertex -5.8 -6.53205 0.000148773
    endloop
  endfacet
  facet normal -0 0 -1
    outer loop
      vertex 5.00906 6.78904 0.000148773
      vertex -6.8 4.8 0.000148773
      vertex -5.00906 6.78904 0.000148773
    endloop
  endfacet
  facet normal 0 0 -1
    outer loop
      vertex -6.8 -4.8 0.000148773
      vertex -5.8 -6.53205 0.000148773
      vertex -6.13826 -6.28629 0.000148773
    endloop
  endfacet
  facet normal 0 0 -1
    outer loop
      vertex -5.00906 6.78904 0.000148773
      vertex -6.8 4.8 0.000148773
      vertex -5.41803 6.70211 0.000148773
    endloop
  endfacet
  facet normal 0 0 -1
    outer loop
      vertex -6.8 -4.8 0.000148773
      vertex -6.13826 -6.28629 0.000148773
      vertex -6.41803 -5.97557 0.000148773
    endloop
  endfacet
  facet normal 0 0 -1
    outer loop
      vertex -5.41803 6.70211 0.000148773
      vertex -6.8 4.8 0.000148773
      vertex -5.8 6.53205 0.000148773
    endloop
  endfacet
  facet normal 0 0 -1
    outer loop
      vertex -6.8 -4.8 0.000148773
      vertex -6.41803 -5.97557 0.000148773
      vertex -6.62709 -5.61347 0.000148773
    endloop
  endfacet
  facet normal 0 0 -1
    outer loop
      vertex -5.8 6.53205 0.000148773
      vertex -6.8 4.8 0.000148773
      vertex -6.13826 6.28629 0.000148773
    endloop
  endfacet
  facet normal 0 0 -1
    outer loop
      vertex -6.8 -4.8 0.000148773
      vertex -6.62709 -5.61347 0.000148773
      vertex -6.75629 -5.21582 0.000148773
    endloop
  endfacet
  facet normal 0 0 -1
    outer loop
      vertex -6.13826 6.28629 0.000148773
      vertex -6.8 4.8 0.000148773
      vertex -6.41803 5.97557 0.000148773
    endloop
  endfacet
  facet normal 0 0 -1
    outer loop
      vertex -6.41803 5.97557 0.000148773
      vertex -6.8 4.8 0.000148773
      vertex -6.62709 5.61347 0.000148773
    endloop
  endfacet
  facet normal 0 0 -1
    outer loop
      vertex -6.62709 5.61347 0.000148773
      vertex -6.8 4.8 0.000148773
      vertex -6.75629 5.21582 0.000148773
    endloop
  endfacet
  facet normal 0.994521 -0.104542 0
    outer loop
      vertex -6.8 4.8 0.000148773
      vertex -6.75629 5.21582 -2.00005
      vertex -6.75629 5.21582 0.000148773
    endloop
  endfacet
  facet normal 0.994521 -0.104542 0
    outer loop
      vertex -6.75629 5.21582 -2.00005
      vertex -6.8 4.8 0.000148773
      vertex -6.8 4.8 -2.00005
    endloop
  endfacet
  facet normal 0 -1 0
    outer loop
      vertex -3.35 -1 -3.6
      vertex -2.35 -1 0
      vertex -3.35 -1 0
    endloop
  endfacet
  facet normal 0 -1 -0
    outer loop
      vertex -2.35 -1 0
      vertex -3.35 -1 -3.6
      vertex -2.35 -1 -3.6
    endloop
  endfacet
  facet normal -0.923191 0 -0.384342
    outer loop
      vertex -3.1 -0.5 -4.2005
      vertex -3.35 1 -3.6
      vertex -3.1 0.5 -4.2005
    endloop
  endfacet
  facet normal -0.923191 -0 -0.384342
    outer loop
      vertex -3.35 1 -3.6
      vertex -3.1 -0.5 -4.2005
      vertex -3.35 -1 -3.6
    endloop
  endfacet
  facet normal -1 0 0
    outer loop
      vertex -3.35 -1 -3.6
      vertex -3.35 1 0
      vertex -3.35 1 -3.6
    endloop
  endfacet
  facet normal -1 -0 0
    outer loop
      vertex -3.35 1 0
      vertex -3.35 -1 -3.6
      vertex -3.35 -1 0
    endloop
  endfacet
  facet normal 0 1 -0
    outer loop
      vertex -2.35 1 -3.6
      vertex -3.35 1 0
      vertex -2.35 1 0
    endloop
  endfacet
  facet normal 0 1 0
    outer loop
      vertex -3.35 1 0
      vertex -2.35 1 -3.6
      vertex -3.35 1 -3.6
    endloop
  endfacet
  facet normal 0.923191 0 -0.384342
    outer loop
      vertex -2.35 1 -3.6
      vertex -2.6 -0.5 -4.2005
      vertex -2.6 0.5 -4.2005
    endloop
  endfacet
  facet normal 0.923191 0 -0.384342
    outer loop
      vertex -2.6 -0.5 -4.2005
      vertex -2.35 1 -3.6
      vertex -2.35 -1 -3.6
    endloop
  endfacet
  facet normal 1 -0 0
    outer loop
      vertex -2.35 -1 0
      vertex -2.35 1 -3.6
      vertex -2.35 1 0
    endloop
  endfacet
  facet normal 1 0 0
    outer loop
      vertex -2.35 1 -3.6
      vertex -2.35 -1 0
      vertex -2.35 -1 -3.6
    endloop
  endfacet
  facet normal -0 0 1
    outer loop
      vertex -3.35 1 0
      vertex -2.35 -1 0
      vertex -2.35 1 0
    endloop
  endfacet
  facet normal 0 0 1
    outer loop
      vertex -2.35 -1 0
      vertex -3.35 1 0
      vertex -3.35 -1 0
    endloop
  endfacet
  facet normal 0 0.768483 -0.63987
    outer loop
      vertex -2.6 0.5 -4.2005
      vertex -3.35 1 -3.6
      vertex -2.35 1 -3.6
    endloop
  endfacet
  facet normal 0 0.768483 -0.63987
    outer loop
      vertex -3.35 1 -3.6
      vertex -2.6 0.5 -4.2005
      vertex -3.1 0.5 -4.2005
    endloop
  endfacet
  facet normal 0 -0.768483 -0.63987
    outer loop
      vertex -3.1 -0.5 -4.2005
      vertex -2.35 -1 -3.6
      vertex -3.35 -1 -3.6
    endloop
  endfacet
  facet normal 0 -0.768483 -0.63987
    outer loop
      vertex -2.35 -1 -3.6
      vertex -3.1 -0.5 -4.2005
      vertex -2.6 -0.5 -4.2005
    endloop
  endfacet
  facet normal 0 0 -1
    outer loop
      vertex -3.1 -0.5 -4.2005
      vertex -2.6 0.5 -4.2005
      vertex -2.6 -0.5 -4.2005
    endloop
  endfacet
  facet normal -0 0 -1
    outer loop
      vertex -2.6 0.5 -4.2005
      vertex -3.1 -0.5 -4.2005
      vertex -3.1 0.5 -4.2005
    endloop
  endfacet
  facet normal 0 -1 0
    outer loop
      vertex 2.35 -1 -3.6
      vertex 3.35 -1 0
      vertex 2.35 -1 0
    endloop
  endfacet
  facet normal 0 -1 -0
    outer loop
      vertex 3.35 -1 0
      vertex 2.35 -1 -3.6
      vertex 3.35 -1 -3.6
    endloop
  endfacet
  facet normal -0.923191 0 -0.384342
    outer loop
      vertex 2.6 -0.5 -4.2005
      vertex 2.35 1 -3.6
      vertex 2.6 0.5 -4.2005
    endloop
  endfacet
  facet normal -0.923191 -0 -0.384342
    outer loop
      vertex 2.35 1 -3.6
      vertex 2.6 -0.5 -4.2005
      vertex 2.35 -1 -3.6
    endloop
  endfacet
  facet normal -1 0 0
    outer loop
      vertex 2.35 -1 -3.6
      vertex 2.35 1 0
      vertex 2.35 1 -3.6
    endloop
  endfacet
  facet normal -1 -0 0
    outer loop
      vertex 2.35 1 0
      vertex 2.35 -1 -3.6
      vertex 2.35 -1 0
    endloop
  endfacet
  facet normal 0 1 -0
    outer loop
      vertex 3.35 1 -3.6
      vertex 2.35 1 0
      vertex 3.35 1 0
    endloop
  endfacet
  facet normal 0 1 0
    outer loop
      vertex 2.35 1 0
      vertex 3.35 1 -3.6
      vertex 2.35 1 -3.6
    endloop
  endfacet
  facet normal 0.923191 0 -0.384342
    outer loop
      vertex 3.35 1 -3.6
      vertex 3.1 -0.5 -4.2005
      vertex 3.1 0.5 -4.2005
    endloop
  endfacet
  facet normal 0.923191 0 -0.384342
    outer loop
      vertex 3.1 -0.5 -4.2005
      vertex 3.35 1 -3.6
      vertex 3.35 -1 -3.6
    endloop
  endfacet
  facet normal 1 -0 0
    outer loop
      vertex 3.35 -1 0
      vertex 3.35 1 -3.6
      vertex 3.35 1 0
    endloop
  endfacet
  facet normal 1 0 0
    outer loop
      vertex 3.35 1 -3.6
      vertex 3.35 -1 0
      vertex 3.35 -1 -3.6
    endloop
  endfacet
  facet normal -0 0 1
    outer loop
      vertex 2.35 1 0
      vertex 3.35 -1 0
      vertex 3.35 1 0
    endloop
  endfacet
  facet normal 0 0 1
    outer loop
      vertex 3.35 -1 0
      vertex 2.35 1 0
      vertex 2.35 -1 0
    endloop
  endfacet
  facet normal 0 0.768483 -0.63987
    outer loop
      vertex 3.1 0.5 -4.2005
      vertex 2.35 1 -3.6
      vertex 3.35 1 -3.6
    endloop
  endfacet
  facet normal 0 0.768483 -0.63987
    outer loop
      vertex 2.35 1 -3.6
      vertex 3.1 0.5 -4.2005
      vertex 2.6 0.5 -4.2005
    endloop
  endfacet
  facet normal 0 -0.768483 -0.63987
    outer loop
      vertex 2.6 -0.5 -4.2005
      vertex 3.35 -1 -3.6
      vertex 2.35 -1 -3.6
    endloop
  endfacet
  facet normal 0 -0.768483 -0.63987
    outer loop
      vertex 3.35 -1 -3.6
      vertex 2.6 -0.5 -4.2005
      vertex 3.1 -0.5 -4.2005
    endloop
  endfacet
  facet normal 0 0 -1
    outer loop
      vertex 2.6 -0.5 -4.2005
      vertex 3.1 0.5 -4.2005
      vertex 3.1 -0.5 -4.2005
    endloop
  endfacet
  facet normal -0 0 -1
    outer loop
      vertex 3.1 0.5 -4.2005
      vertex 2.6 -0.5 -4.2005
      vertex 2.6 0.5 -4.2005
    endloop
  endfacet
  facet normal -0.100926 0.474816 0.874279
    outer loop
      vertex -6.00906 7.78904 1.00015
      vertex -4.61803 4.40211 3.00015
      vertex -4.20906 4.48904 3.00015
    endloop
  endfacet
  facet normal -0.100926 0.474816 0.874279
    outer loop
      vertex -4.61803 4.40211 3.00015
      vertex -6.00906 7.78904 1.00015
      vertex -6.41803 7.70211 1.00015
    endloop
  endfacet
  facet normal 0.106107 -0.238322 0.965372
    outer loop
      vertex 4.61803 -0.402113 3.00015
      vertex 6.8 -7.53205 1.00015
      vertex 5 -0.23205 3.00015
    endloop
  endfacet
  facet normal 0.106106 -0.238323 0.965372
    outer loop
      vertex 6.8 -7.53205 1.00015
      vertex 4.61803 -0.402113 3.00015
      vertex 6.41803 -7.70211 1.00015
    endloop
  endfacet
  facet normal 0.227408 -0.204757 0.95203
    outer loop
      vertex 5.33826 0.013711 3.00015
      vertex 7.41803 -6.97557 1.00015
      vertex 5.61803 0.32443 3.00015
    endloop
  endfacet
  facet normal 0.227408 -0.204757 0.95203
    outer loop
      vertex 7.41803 -6.97557 1.00015
      vertex 5.33826 0.013711 3.00015
      vertex 7.13826 -7.28629 1.00015
    endloop
  endfacet
  facet normal 0.613295 -0.0644533 0.78722
    outer loop
      vertex 5.9563 1.08418 3.00015
      vertex 7.8 -5.8 1.00015
      vertex 6 1.5 3.00015
    endloop
  endfacet
  facet normal 0.61327 -0.0644654 0.787239
    outer loop
      vertex 7.8 -5.8 1.00015
      vertex 5.9563 1.08418 3.00015
      vertex 7.75629 -6.21582 1.00015
    endloop
  endfacet
  facet normal 0 -0.264235 0.964458
    outer loop
      vertex -4.20906 -0.489043 3.00015
      vertex 6.00906 -7.78904 1.00015
      vertex 4.20906 -0.489043 3.00015
    endloop
  endfacet
  facet normal 0 -0.264235 0.964458
    outer loop
      vertex 6.00906 -7.78904 1.00015
      vertex -4.20906 -0.489043 3.00015
      vertex -6.00906 -7.78904 1.00015
    endloop
  endfacet
  facet normal 0.310422 -0.179225 0.933551
    outer loop
      vertex 5.61803 0.32443 3.00015
      vertex 7.62709 -6.61347 1.00015
      vertex 5.82709 0.686527 3.00015
    endloop
  endfacet
  facet normal 0.310424 -0.179224 0.93355
    outer loop
      vertex 7.62709 -6.61347 1.00015
      vertex 5.61803 0.32443 3.00015
      vertex 7.41803 -6.97557 1.00015
    endloop
  endfacet
  facet normal -0.42808 -0.139097 0.892972
    outer loop
      vertex -7.75629 -6.21582 1.00015
      vertex -5.82709 0.686527 3.00015
      vertex -5.9563 1.08418 3.00015
    endloop
  endfacet
  facet normal -0.428093 -0.139091 0.892967
    outer loop
      vertex -5.82709 0.686527 3.00015
      vertex -7.75629 -6.21582 1.00015
      vertex -7.62709 -6.61347 1.00015
    endloop
  endfacet
  facet normal -0.191528 0.430189 0.882187
    outer loop
      vertex -6.41803 7.70211 1.00015
      vertex -5 4.23205 3.00015
      vertex -4.61803 4.40211 3.00015
    endloop
  endfacet
  facet normal -0.191528 0.430189 0.882187
    outer loop
      vertex -5 4.23205 3.00015
      vertex -6.41803 7.70211 1.00015
      vertex -6.8 7.53205 1.00015
    endloop
  endfacet
  facet normal 0.191528 0.430189 0.882187
    outer loop
      vertex 6.41803 7.70211 1.00015
      vertex 5 4.23205 3.00015
      vertex 6.8 7.53205 1.00015
    endloop
  endfacet
  facet normal 0.191528 0.430189 0.882187
    outer loop
      vertex 5 4.23205 3.00015
      vertex 6.41803 7.70211 1.00015
      vertex 4.61803 4.40211 3.00015
    endloop
  endfacet
  facet normal -0.365099 0.328733 0.870998
    outer loop
      vertex -7.41803 6.97557 1.00015
      vertex -5.33826 3.98629 3.00015
      vertex -7.13826 7.28629 1.00015
    endloop
  endfacet
  facet normal -0.365099 0.328733 0.870998
    outer loop
      vertex -5.33826 3.98629 3.00015
      vertex -7.41803 6.97557 1.00015
      vertex -5.61803 3.67557 3.00015
    endloop
  endfacet
  facet normal 0.0534736 -0.251571 0.96636
    outer loop
      vertex 4.61803 -0.402113 3.00015
      vertex 6.00906 -7.78904 1.00015
      vertex 6.41803 -7.70211 1.00015
    endloop
  endfacet
  facet normal 0.0534736 -0.251571 0.96636
    outer loop
      vertex 6.00906 -7.78904 1.00015
      vertex 4.61803 -0.402113 3.00015
      vertex 4.20906 -0.489043 3.00015
    endloop
  endfacet
  facet normal -0.679891 0.0714685 0.729822
    outer loop
      vertex -7.8 5.8 1.00015
      vertex -5.9563 2.91582 3.00015
      vertex -7.75629 6.21582 1.00015
    endloop
  endfacet
  facet normal -0.679904 0.0714535 0.729812
    outer loop
      vertex -5.9563 2.91582 3.00015
      vertex -7.8 5.8 1.00015
      vertex -6 2.5 3.00015
    endloop
  endfacet
  facet normal 0.679891 0.0714685 0.729822
    outer loop
      vertex 5.9563 2.91582 3.00015
      vertex 7.8 5.8 1.00015
      vertex 7.75629 6.21582 1.00015
    endloop
  endfacet
  facet normal 0.679904 0.0714535 0.729812
    outer loop
      vertex 7.8 5.8 1.00015
      vertex 5.9563 2.91582 3.00015
      vertex 6 2.5 3.00015
    endloop
  endfacet
  facet normal 0.743294 -0 0.668965
    outer loop
      vertex 6 1.5 3.00015
      vertex 7.8 5.8 1.00015
      vertex 6 2.5 3.00015
    endloop
  endfacet
  facet normal 0.743294 0 0.668965
    outer loop
      vertex 7.8 5.8 1.00015
      vertex 6 1.5 3.00015
      vertex 7.8 -5.8 1.00015
    endloop
  endfacet
  facet normal -0.743294 0 0.668965
    outer loop
      vertex -7.8 5.8 1.00015
      vertex -6 1.5 3.00015
      vertex -6 2.5 3.00015
    endloop
  endfacet
  facet normal -0.743294 0 0.668965
    outer loop
      vertex -6 1.5 3.00015
      vertex -7.8 5.8 1.00015
      vertex -7.8 -5.8 1.00015
    endloop
  endfacet
  facet normal 0 0 1
    outer loop
      vertex 4.20906 4.48904 3.00015
      vertex 6 2.5 3.00015
      vertex 5.9563 2.91582 3.00015
    endloop
  endfacet
  facet normal 0 0 1
    outer loop
      vertex 6 2.5 3.00015
      vertex 4.20906 4.48904 3.00015
      vertex 6 1.5 3.00015
    endloop
  endfacet
  facet normal 0 0 1
    outer loop
      vertex 4.20906 4.48904 3.00015
      vertex 5.9563 2.91582 3.00015
      vertex 5.82709 3.31347 3.00015
    endloop
  endfacet
  facet normal 0 0 1
    outer loop
      vertex 4.20906 -0.489043 3.00015
      vertex 6 1.5 3.00015
      vertex 4.20906 4.48904 3.00015
    endloop
  endfacet
  facet normal 0 0 1
    outer loop
      vertex 4.20906 4.48904 3.00015
      vertex 5.82709 3.31347 3.00015
      vertex 5.61803 3.67557 3.00015
    endloop
  endfacet
  facet normal 0 0 1
    outer loop
      vertex 6 1.5 3.00015
      vertex 4.20906 -0.489043 3.00015
      vertex 5.9563 1.08418 3.00015
    endloop
  endfacet
  facet normal 0 0 1
    outer loop
      vertex 4.20906 4.48904 3.00015
      vertex 5.61803 3.67557 3.00015
      vertex 5.33826 3.98629 3.00015
    endloop
  endfacet
  facet normal 0 0 1
    outer loop
      vertex 5.9563 1.08418 3.00015
      vertex 4.20906 -0.489043 3.00015
      vertex 5.82709 0.686527 3.00015
    endloop
  endfacet
  facet normal 0 0 1
    outer loop
      vertex 4.20906 4.48904 3.00015
      vertex 5.33826 3.98629 3.00015
      vertex 5 4.23205 3.00015
    endloop
  endfacet
  facet normal 0 0 1
    outer loop
      vertex 5.82709 0.686527 3.00015
      vertex 4.20906 -0.489043 3.00015
      vertex 5.61803 0.32443 3.00015
    endloop
  endfacet
  facet normal 0 0 1
    outer loop
      vertex 4.20906 4.48904 3.00015
      vertex 5 4.23205 3.00015
      vertex 4.61803 4.40211 3.00015
    endloop
  endfacet
  facet normal 0 0 1
    outer loop
      vertex 5.61803 0.32443 3.00015
      vertex 4.20906 -0.489043 3.00015
      vertex 5.33826 0.013711 3.00015
    endloop
  endfacet
  facet normal 0 0 1
    outer loop
      vertex 5.33826 0.013711 3.00015
      vertex 4.20906 -0.489043 3.00015
      vertex 5 -0.23205 3.00015
    endloop
  endfacet
  facet normal 0 0 1
    outer loop
      vertex 5 -0.23205 3.00015
      vertex 4.20906 -0.489043 3.00015
      vertex 4.61803 -0.402113 3.00015
    endloop
  endfacet
  facet normal -0 0 1
    outer loop
      vertex -4.20906 4.48904 3.00015
      vertex 4.20906 -0.489043 3.00015
      vertex 4.20906 4.48904 3.00015
    endloop
  endfacet
  facet normal 0 0 1
    outer loop
      vertex -4.20906 4.48904 3.00015
      vertex -4.20906 -0.489043 3.00015
      vertex 4.20906 -0.489043 3.00015
    endloop
  endfacet
  facet normal 0 0 1
    outer loop
      vertex -6 2.5 3.00015
      vertex -4.20906 4.48904 3.00015
      vertex -4.61803 4.40211 3.00015
    endloop
  endfacet
  facet normal 0 0 1
    outer loop
      vertex -4.20906 4.48904 3.00015
      vertex -6 2.5 3.00015
      vertex -4.20906 -0.489043 3.00015
    endloop
  endfacet
  facet normal 0 0 1
    outer loop
      vertex -6 2.5 3.00015
      vertex -4.61803 4.40211 3.00015
      vertex -5 4.23205 3.00015
    endloop
  endfacet
  facet normal -0 0 1
    outer loop
      vertex -6 1.5 3.00015
      vertex -4.20906 -0.489043 3.00015
      vertex -6 2.5 3.00015
    endloop
  endfacet
  facet normal 0 0 1
    outer loop
      vertex -6 2.5 3.00015
      vertex -5 4.23205 3.00015
      vertex -5.33826 3.98629 3.00015
    endloop
  endfacet
  facet normal 0 0 1
    outer loop
      vertex -4.20906 -0.489043 3.00015
      vertex -6 1.5 3.00015
      vertex -4.61803 -0.402113 3.00015
    endloop
  endfacet
  facet normal 0 0 1
    outer loop
      vertex -6 2.5 3.00015
      vertex -5.33826 3.98629 3.00015
      vertex -5.61803 3.67557 3.00015
    endloop
  endfacet
  facet normal 0 0 1
    outer loop
      vertex -4.61803 -0.402113 3.00015
      vertex -6 1.5 3.00015
      vertex -5 -0.23205 3.00015
    endloop
  endfacet
  facet normal 0 0 1
    outer loop
      vertex -6 2.5 3.00015
      vertex -5.61803 3.67557 3.00015
      vertex -5.82709 3.31347 3.00015
    endloop
  endfacet
  facet normal 0 0 1
    outer loop
      vertex -5 -0.23205 3.00015
      vertex -6 1.5 3.00015
      vertex -5.33826 0.013711 3.00015
    endloop
  endfacet
  facet normal 0 0 1
    outer loop
      vertex -6 2.5 3.00015
      vertex -5.82709 3.31347 3.00015
      vertex -5.9563 2.91582 3.00015
    endloop
  endfacet
  facet normal 0 0 1
    outer loop
      vertex -5.33826 0.013711 3.00015
      vertex -6 1.5 3.00015
      vertex -5.61803 0.32443 3.00015
    endloop
  endfacet
  facet normal 0 0 1
    outer loop
      vertex -5.61803 0.32443 3.00015
      vertex -6 1.5 3.00015
      vertex -5.82709 0.686527 3.00015
    endloop
  endfacet
  facet normal 0 0 1
    outer loop
      vertex -5.82709 0.686527 3.00015
      vertex -6 1.5 3.00015
      vertex -5.9563 1.08418 3.00015
    endloop
  endfacet
  facet normal -0.277886 0.382478 0.881187
    outer loop
      vertex -7.13826 7.28629 1.00015
      vertex -5 4.23205 3.00015
      vertex -6.8 7.53205 1.00015
    endloop
  endfacet
  facet normal -0.277886 0.382478 0.881187
    outer loop
      vertex -5 4.23205 3.00015
      vertex -7.13826 7.28629 1.00015
      vertex -5.33826 3.98629 3.00015
    endloop
  endfacet
  facet normal -0.162252 -0.22332 0.961146
    outer loop
      vertex -7.13826 -7.28629 1.00015
      vertex -5 -0.23205 3.00015
      vertex -5.33826 0.013711 3.00015
    endloop
  endfacet
  facet normal -0.162252 -0.223321 0.961146
    outer loop
      vertex -5 -0.23205 3.00015
      vertex -7.13826 -7.28629 1.00015
      vertex -6.8 -7.53205 1.00015
    endloop
  endfacet
  facet normal -0.0534736 -0.251571 0.96636
    outer loop
      vertex -4.61803 -0.402113 3.00015
      vertex -6.00906 -7.78904 1.00015
      vertex -4.20906 -0.489043 3.00015
    endloop
  endfacet
  facet normal -0.0534736 -0.251571 0.96636
    outer loop
      vertex -6.00906 -7.78904 1.00015
      vertex -4.61803 -0.402113 3.00015
      vertex -6.41803 -7.70211 1.00015
    endloop
  endfacet
  facet normal 0.42808 -0.139097 0.892972
    outer loop
      vertex 5.82709 0.686527 3.00015
      vertex 7.75629 -6.21582 1.00015
      vertex 5.9563 1.08418 3.00015
    endloop
  endfacet
  facet normal 0.428093 -0.139091 0.892967
    outer loop
      vertex 7.75629 -6.21582 1.00015
      vertex 5.82709 0.686527 3.00015
      vertex 7.62709 -6.61347 1.00015
    endloop
  endfacet
  facet normal -0.561838 0.182546 0.806855
    outer loop
      vertex -7.75629 6.21582 1.00015
      vertex -5.82709 3.31347 3.00015
      vertex -7.62709 6.61347 1.00015
    endloop
  endfacet
  facet normal -0.561827 0.182557 0.80686
    outer loop
      vertex -5.82709 3.31347 3.00015
      vertex -7.75629 6.21582 1.00015
      vertex -5.9563 2.91582 3.00015
    endloop
  endfacet
  facet normal -0.106107 -0.238322 0.965372
    outer loop
      vertex -6.8 -7.53205 1.00015
      vertex -4.61803 -0.402113 3.00015
      vertex -5 -0.23205 3.00015
    endloop
  endfacet
  facet normal -0.106106 -0.238323 0.965372
    outer loop
      vertex -4.61803 -0.402113 3.00015
      vertex -6.8 -7.53205 1.00015
      vertex -6.41803 -7.70211 1.00015
    endloop
  endfacet
  facet normal -0.45808 0.264475 0.848655
    outer loop
      vertex -7.62709 6.61347 1.00015
      vertex -5.61803 3.67557 3.00015
      vertex -7.41803 6.97557 1.00015
    endloop
  endfacet
  facet normal -0.45808 0.264475 0.848655
    outer loop
      vertex -5.61803 3.67557 3.00015
      vertex -7.62709 6.61347 1.00015
      vertex -5.82709 3.31347 3.00015
    endloop
  endfacet
  facet normal 0.561838 0.182546 0.806855
    outer loop
      vertex 5.82709 3.31347 3.00015
      vertex 7.75629 6.21582 1.00015
      vertex 7.62709 6.61347 1.00015
    endloop
  endfacet
  facet normal 0.561827 0.182557 0.80686
    outer loop
      vertex 7.75629 6.21582 1.00015
      vertex 5.82709 3.31347 3.00015
      vertex 5.9563 2.91582 3.00015
    endloop
  endfacet
  facet normal 0.100926 0.474816 0.874279
    outer loop
      vertex 6.00906 7.78904 1.00015
      vertex 4.61803 4.40211 3.00015
      vertex 6.41803 7.70211 1.00015
    endloop
  endfacet
  facet normal 0.100926 0.474816 0.874279
    outer loop
      vertex 4.61803 4.40211 3.00015
      vertex 6.00906 7.78904 1.00015
      vertex 4.20906 4.48904 3.00015
    endloop
  endfacet
  facet normal 0.162252 -0.22332 0.961146
    outer loop
      vertex 5 -0.23205 3.00015
      vertex 7.13826 -7.28629 1.00015
      vertex 5.33826 0.013711 3.00015
    endloop
  endfacet
  facet normal 0.162252 -0.223321 0.961146
    outer loop
      vertex 7.13826 -7.28629 1.00015
      vertex 5 -0.23205 3.00015
      vertex 6.8 -7.53205 1.00015
    endloop
  endfacet
  facet normal -0.613295 -0.0644533 0.78722
    outer loop
      vertex -7.8 -5.8 1.00015
      vertex -5.9563 1.08418 3.00015
      vertex -6 1.5 3.00015
    endloop
  endfacet
  facet normal -0.61327 -0.0644654 0.787239
    outer loop
      vertex -5.9563 1.08418 3.00015
      vertex -7.8 -5.8 1.00015
      vertex -7.75629 -6.21582 1.00015
    endloop
  endfacet
  facet normal -0.310422 -0.179225 0.933551
    outer loop
      vertex -7.62709 -6.61347 1.00015
      vertex -5.61803 0.32443 3.00015
      vertex -5.82709 0.686527 3.00015
    endloop
  endfacet
  facet normal -0.310424 -0.179224 0.93355
    outer loop
      vertex -5.61803 0.32443 3.00015
      vertex -7.62709 -6.61347 1.00015
      vertex -7.41803 -6.97557 1.00015
    endloop
  endfacet
  facet normal 0 0.518302 0.855198
    outer loop
      vertex 6.00906 7.78904 1.00015
      vertex -4.20906 4.48904 3.00015
      vertex 4.20906 4.48904 3.00015
    endloop
  endfacet
  facet normal 0 0.518302 0.855198
    outer loop
      vertex -4.20906 4.48904 3.00015
      vertex 6.00906 7.78904 1.00015
      vertex -6.00906 7.78904 1.00015
    endloop
  endfacet
  facet normal 0.45808 0.264475 0.848655
    outer loop
      vertex 5.61803 3.67557 3.00015
      vertex 7.62709 6.61347 1.00015
      vertex 7.41803 6.97557 1.00015
    endloop
  endfacet
  facet normal 0.45808 0.264475 0.848655
    outer loop
      vertex 7.62709 6.61347 1.00015
      vertex 5.61803 3.67557 3.00015
      vertex 5.82709 3.31347 3.00015
    endloop
  endfacet
  facet normal -0.227408 -0.204757 0.95203
    outer loop
      vertex -7.41803 -6.97557 1.00015
      vertex -5.33826 0.013711 3.00015
      vertex -5.61803 0.32443 3.00015
    endloop
  endfacet
  facet normal -0.227408 -0.204757 0.95203
    outer loop
      vertex -5.33826 0.013711 3.00015
      vertex -7.41803 -6.97557 1.00015
      vertex -7.13826 -7.28629 1.00015
    endloop
  endfacet
  facet normal 0.277886 0.382478 0.881187
    outer loop
      vertex 5 4.23205 3.00015
      vertex 7.13826 7.28629 1.00015
      vertex 6.8 7.53205 1.00015
    endloop
  endfacet
  facet normal 0.277886 0.382478 0.881187
    outer loop
      vertex 7.13826 7.28629 1.00015
      vertex 5 4.23205 3.00015
      vertex 5.33826 3.98629 3.00015
    endloop
  endfacet
  facet normal 0.365099 0.328733 0.870998
    outer loop
      vertex 5.33826 3.98629 3.00015
      vertex 7.41803 6.97557 1.00015
      vertex 7.13826 7.28629 1.00015
    endloop
  endfacet
  facet normal 0.365099 0.328733 0.870998
    outer loop
      vertex 7.41803 6.97557 1.00015
      vertex 5.33826 3.98629 3.00015
      vertex 5.61803 3.67557 3.00015
    endloop
  endfacet
endsolid OpenSCAD_Model
